<?xml version="1.0" encoding="UTF-8"?>
<svg width="60px" height="60px" clip-rule="evenodd" fill-rule="evenodd" image-rendering="optimizeQuality" shape-rendering="geometricPrecision" text-rendering="geometricPrecision" version="1.1" viewBox="-12 -24 84 84" xml:space="preserve" xmlns="http://www.w3.org/2000/svg">
 <defs>
   <linearGradient id="id0" x1="4.02" x2="56" y1="60" y2="60" gradientUnits="userSpaceOnUse">
    <stop stop-color="gold" offset="0"/>
    <stop stop-color="gold" offset=".2"/>
    <stop stop-color="orange" offset="1"/>
   </linearGradient>
 </defs>
 
  
  <path d="m28 6v11c2 0 3 1 5 1v-1c-1 0-2-1-3-1v-6l3 3v2h1l1-3-7-6zm4 18c-1 1-2 2-4 2-1 0-2-1-3-2-1 0-2 1-3 2 2 1 4 1 7 1 2 1 4 0 6-2l-3-1zm-4-4c-4 0-7 2-10 3-1 0-1 0-2 1 1 0 2 1 3 1 4-2 4-3 9-3 4 0 6 2 10 3l2-2h-2c-3-2-6-3-10-3zm5 9c-1 1-3 1-4 1v24l7-13-1-7-2 1 2 6-4 6v-15c1 0 2-1 3-1l-1-2zm5-14-3 4c2 1 3 2 5 3 1-1 3-2 4-2l-6-5zm-1 3 1-2 4 3s-1 1-2 1-2-1-3-2zm1 8c-1 1-2 2-3 2l3 7 4-7-4-2zm-1 3c1 0 1-1 2-1l2 1-2 3-2-3z" fill="#03DC03"/>
  <path d="m30 0 13 7 13 8v15 15l-13 8-13 7-13-7-13-8v-15-15l13-8 13-7zm0 5 22 12v13 13l-22 12-22-12v-13-13l22-12z" fill="url(#id0)"/>
 
</svg>
