<?xml version="1.0" encoding="UTF-8"?>
<svg width="60px" height="60px" clip-rule="evenodd" fill-rule="evenodd" image-rendering="optimizeQuality" shape-rendering="geometricPrecision" text-rendering="geometricPrecision" version="1.1" viewBox="-12 -24 84 84" xml:space="preserve" xmlns="http://www.w3.org/2000/svg">
 <defs>
   <linearGradient id="id0" x1="4.02" x2="56" y1="60" y2="60" gradientUnits="userSpaceOnUse">
    <stop stop-color="gold" offset="0"/>
    <stop stop-color="gold" offset=".2"/>
    <stop stop-color="orange" offset="1"/>
   </linearGradient>
 </defs>
 
  
  <path d="m30 0 13 7 13 8v15 15l-13 8-13 7-13-7-13-8v-15-15l13-8 13-7zm0 5 22 12v13 13l-22 12-22-12v-13-13l22-12z" fill="url(#id0)"/>
  
  
   <path d="m16 18v20c0 6 10 11 14 13 4-2 14-7 14-13v-20h-28z" fill="#F0592A"/>
   <path d="m21 19 5 6h-4c1 3 3 6 5 9l-8 7c1 1 2 2 4 3v1l4-10c1 1 2 3 3 4 1-1 2-3 3-4l4 10v-1c2-1 3-2 4-3l-8-7c2-3 4-6 5-9h-4l5-6h-4l-3 6h-2-2l-3-6h-4zm-3 6v4h5c-1-1-1-2-2-2l-3-2zm24 0-3 2c-1 0-1 1-2 2h5v-4zm-9 2h3l-6 9-6-9h6 3zm-3 1h-3l3 2 3-2h-3zm-3 1c1 1 2 3 3 5v-4l-3-1zm6 0-3 1v4c1-2 2-4 3-5z"/><g fill="#FDC616">
   <path d="m32 37-2 3 1 8c1 0 3-1 5-2l-4-9z"/>
   <path d="m28 37-4 9c2 1 4 2 5 2v-8l-1-3z"/>
   <path d="m35 32v2l6 6c1-1 1-1 1-2v-3l-7-3z"/>
   <path d="m25 33-7 2v3c0 1 0 2 1 2l6-6v-1z"/>
   <path d="m37 30c-1 1-1 1-1 2l6 2v-4h-5z"/>
   <path d="m18 30v4l6-2c0-1 0-1-1-2h-5z"/>
   <path d="m41 19-5 5h2 2v1l2-1v-5h-1z"/>
   <path d="m30 19v5h2l2-5h-4z"/>
   <path d="m26 19 2 5h2v-5h-4z"/>
   <path d="m18 19v5l2 1v-1h2 2l-5-5h-1z"/>
   </g><path d="m16 18v20c0 6 10 11 14 13 4-2 14-7 14-13v-20h-28zm28-2h1v2 21c0 6-10 11-15 13-5-2-15-7-15-13v-21-2h1 28z"/>
  
 
</svg>
