<?xml version="1.0" encoding="UTF-8"?>
<svg width="60px" height="60px" clip-rule="evenodd" fill-rule="evenodd" image-rendering="optimizeQuality" shape-rendering="geometricPrecision" text-rendering="geometricPrecision" version="1.1" viewBox="-12 -24 84 84" xml:space="preserve" xmlns="http://www.w3.org/2000/svg">
 <defs>
   <linearGradient id="id0" x1="4.02" x2="56" y1="60" y2="60" gradientUnits="userSpaceOnUse">
    <stop stop-color="gold" offset="0"/>
    <stop stop-color="gold" offset=".2"/>
    <stop stop-color="orange" offset="1"/>
   </linearGradient>
 </defs>
 
  
  <path d="m30 0 13 7 13 8v15 15l-13 8-13 7-13-7-13-8v-15-15l13-8 13-7zm0 5 22 12v13 13l-22 12-22-12v-13-13l22-12z" fill="url(#id0)"/>
  
   <path d="m40 26v-1-2c4 2 5 3 5 3-1 1-3 0-5 0zm-7-2c-1-1-2-1-3-2-2 0-4-1-6-2 2 0 4-1 6-1 1-1 2-1 3-1 2-1 4-1 6-1 3-1 5-1 6-1 0 1-2 2-5 3v-1c-2 0-4 0-6 1v2c0 1 0 2-1 3zm-11-5c0-2 1-3 2-4v4h-2zm-2-1c-2-1-4-2-4-3 1 0 2 0 5 1 0 1 0 1-1 2zm6-4s1-1 2-1c2 0 3 2 5 3-2 1-3 1-4 1-1 1-3 1-5 2 0-2 1-4 2-5zm-1 16 1 11-4-13c1 1 2 2 3 2zm1 1c1 0 2 1 2 2v1h1 3v-1c0-1 1-2 2-2l-1 9c-2-2-5-3-5-3l1 5h-1s0-1-1-1l-1-10zm6 16h-4v-2h1v1h4l-1 1zm-3-9c1 1 1 1 2 1l1 1c0 2-1 4-2 4l-1-1v-2-3zm-4 6v-3s1 1 2 1h1v1l1 1h-4zm16-22v-2c6-2 6-3 5-4v-1h-8c-2-2-4-4-8-4-3 0-6 2-8 4-6-2-7-1-7 0v1c0 1 2 2 5 4-1 0-1 1-2 1-4 2-5 3-4 3 0 1 0 2 3 2 1 0 2 0 4-1v1l4 14h-1v5h2l1 2h-1v-1h-2v1c0 1 0 3 2 3 0 0 0 1 1 1s3 0 5-1h3c1-1 1-2 1-2l2-1h1-1-2-3l1-2h3s0-1-1-2l-1-1 4-13-1-1-4 13 1-11c1 0 2-1 3-2h-2c-1 0-1 0-1-1-1 0-2 0-3-1-1 2-3 2-4 2h-3v-4l-1-1 1 4c-2-1-3-2-3-4h-2v1c-3 1-5 0-5 0 0-1 3-2 7-3 1 0 2 0 3 1h-1 1c1 1 3 1 4 2 1 0 11 4 15 4 1 0 2 0 2-1 0 0 1-2-5-5zm0 0z" fill="#808080" fill-rule="nonzero"/>
  
 
</svg>
