<?xml version="1.0" encoding="UTF-8"?>
<svg width="4.1541in" height="1.5438in" enable-background="new 0 0 134.333 207.581" version="1.1" viewBox="0 0 398.79 148.2" xml:space="preserve" xmlns="http://www.w3.org/2000/svg">
<polygon transform="translate(-2.7568 -7.0837)" points="119.94 117.48 124.96 114.58 124.96 51.93 98.581 67.16 98.581 105.15" fill="#191b28"/><polygon transform="translate(-2.7569 -7.0847)" points="35.752 58.133 13.66 45.377 9.374 47.852 9.374 111.54 35.752 96.307" fill="#191b28"/><path d="m64.377 1.623-62.754 36.262 0.013672 72.482 62.781 36.215 62.746-36.24v-72.469zm0.0332 5.7793 17.668 10.199-5.3398 3.084c-0.78 0.448-1.2598 1.2807-1.2598 2.1797v67.811c0 0.898 0.47977 1.7287 1.2598 2.1777l14.049 8.1133v24.672l-26.379 15.229-16.613-9.5918 4.6094-2.6621c0.778-0.45099 1.2598-1.2816 1.2598-2.1816v-67.811c0-0.899-0.48177-1.7307-1.2598-2.1797l-14.373-8.2988v-25.277c0-0.076-0.0086-0.15061-0.01563-0.22461zm22.701 13.107 33.59 19.391-28.654 16.543c-0.778 0.45-1.2578 1.2807-1.2578 2.1797v36.531l-10.275-5.9316h-2e-3v-64.904zm-54.115 5.0273v19.699l-17.059-9.8496zm-22.094 12.756 22.094 12.756v38.174l-26.379 15.23v-63.686zm111.3 6.5527v62.654l-5.0156 2.8965-21.363-12.334v-37.986zm-84.172 9.1094 10.598 6.1211v64.902l-5.8691 3.3887-33.75-19.482 27.762-16.029c0.778-0.449 1.2598-1.2807 1.2598-2.1797zm57.793 49.918 16.328 9.4277-16.328 9.4297z" fill="#fff" fill-rule="evenodd"/><g transform="matrix(2.7014 0 0 2.7014 114.59 -409.61)" fill="#fff">
		<path d="m102.77 188.54-8.822-5.094v-8.778l8.822-5.094c1.168-0.676 1.566-2.164 0.893-3.333-0.673-1.166-2.163-1.563-3.33-0.892l-10.041 5.8c-0.755 0.433-1.219 1.238-1.219 2.11v11.592c0 0.872 0.464 1.678 1.219 2.114l10.041 5.796c0.383 0.223 0.803 0.328 1.217 0.328 0.843 0 1.662-0.439 2.113-1.221 0.673-1.164 0.275-2.655-0.893-3.328z"/>
		<path d="m53.21 165.03c-1.346 0-2.438 1.091-2.438 2.438v23.189c0 1.347 1.092 2.439 2.438 2.439 1.348 0 2.439-1.093 2.439-2.439v-23.189c0-1.347-1.091-2.438-2.439-2.438z"/>
		<path d="m81.501 165.03h-15.135c-1.346 0-2.438 1.091-2.438 2.438 0 1.346 1.091 2.438 2.438 2.438h5.13v20.751c0 1.347 1.092 2.439 2.438 2.439 1.348 0 2.439-1.093 2.439-2.439v-20.751h5.128c1.348 0 2.439-1.093 2.439-2.438 0-1.347-1.091-2.438-2.439-2.438z"/>
		<path d="m32.785 165.03c-1.346 0-2.438 1.091-2.438 2.438v23.189c0 1.347 1.091 2.439 2.438 2.439 1.348 0 2.439-1.093 2.439-2.439v-23.189c0-1.347-1.092-2.438-2.439-2.438z"/>
	</g>
</svg>
