<?xml version="1.0" encoding="UTF-8"?>
<!DOCTYPE svg PUBLIC "-//W3C//DTD SVG 1.1//EN" "http://www.w3.org/Graphics/SVG/1.1/DTD/svg11.dtd">
<!-- Creator: CorelDRAW Home & Student X8 -->
<svg xmlns="http://www.w3.org/2000/svg" xml:space="preserve" width="60px" height="60px" version="1.1" shape-rendering="geometricPrecision" text-rendering="geometricPrecision" image-rendering="optimizeQuality" fill-rule="evenodd" clip-rule="evenodd"
viewBox="0 0 60 60"
 xmlns:xlink="http://www.w3.org/1999/xlink"
 xmlns:dc="http://purl.org/dc/elements/1.1/"
 xmlns:cc="http://creativecommons.org/ns#"
 xmlns:rdf="http://www.w3.org/1999/02/22-rdf-syntax-ns#"
 xmlns:svg="http://www.w3.org/2000/svg"
 xmlns:sodipodi="http://sodipodi.sourceforge.net/DTD/sodipodi-0.dtd"
 xmlns:inkscape="http://www.inkscape.org/namespaces/inkscape"
 inkscape:version="0.91 r13725"
 sodipodi:docname="aegisNova.svg">
 <defs>
   <linearGradient id="id0" gradientUnits="userSpaceOnUse" x1="4.01828" y1="60.0008" x2="55.9817" y2="60.0008">
    <stop offset="0" stop-opacity="1" stop-color="gold"/>
    <stop offset="0.2" stop-opacity="1" stop-color="gold"/>
    <stop offset="1" stop-opacity="1" stop-color="orange"/>
   </linearGradient>
 </defs>
 <g id="Ebene_x0020_1">
  <metadata id="CorelCorpID_0Corel-Layer"/>
  <path fill="url(#id0)" d="M30 0l13 7 13 8 0 15 0 15 -13 8 -13 7 -13 -7 -13 -8 0 -15 0 -15 13 -8 13 -7zm0 5l11 6 11 6 0 13 0 13 -11 6 -11 6 -11 -6 -11 -6 0 -13 0 -13 11 -6 11 -6z"/>
  <sodipodi:namedview pagecolor="#ffffff" bordercolor="#666666" borderopacity="1" objecttolerance="10" gridtolerance="10" guidetolerance="10" inkscape:pageopacity="0" inkscape:pageshadow="2" inkscape:window-width="1887" inkscape:window-height="1054" id="namedview4" showgrid="false" inkscape:zoom="1.4142136" inkscape:cx="234.37532" inkscape:cy="233.60323" inkscape:window-x="3840" inkscape:window-y="0" inkscape:window-maximized="1" inkscape:current-layer="svg2" inkscape:snap-global="true" inkscape:snap-bbox="true" showguides="false" fit-margin-top="0" fit-margin-left="0" fit-margin-right="0" fit-margin-bottom="0"/>
  <g id="_506523672">
   <path id="path8297" fill="#F0592A" d="M16 18l0 20c0,6 10,11 14,13 4,-2 14,-7 14,-13l0 -20 -28 0z" inkscape:connector-curvature="0" sodipodi:nodetypes="cccccc"/>
   <path id="path8253" fill="black" d="M21 19l5 6c0,0 0,0 0,0 -2,0 -3,0 -4,0 1,3 3,6 5,9l-8 7c1,1 2,2 4,3 0,1 0,1 0,1l4 -10c1,1 2,3 3,4 1,-1 2,-3 3,-4l4 10c0,0 0,0 0,-1 2,-1 3,-2 4,-3l-8 -7c2,-3 4,-6 5,-9 -1,0 -3,0 -4,0l5 -6 -4 0 -3 6c0,0 -1,0 -2,0 -1,0 -2,0 -2,0l-3 -6 -4 0 0 0zm-3 6l0 4 5 0c-1,-1 -1,-2 -2,-2l-3 -2zm24 0l-3 2c-1,0 -1,1 -2,2l5 0 0 -4zm-9 2c1,0 2,0 3,0 -2,3 -4,6 -6,9 -2,-3 -4,-6 -6,-9 2,0 4,0 6,0 1,0 2,0 3,0zm-3 1c-1,0 -2,0 -3,0l3 2 3 -2c-1,0 -2,0 -3,0zm-3 1c1,1 2,3 3,5l0 -4 -3 -1 0 0zm6 0l-3 1 0 4c1,-2 2,-4 3,-5l0 0z" inkscape:connector-curvature="0"/>
   <path id="path8255" fill="#FDC616" d="M32 37l-2 3 1 8c1,0 3,-1 5,-2l-4 -9z" inkscape:connector-curvature="0"/>
   <path id="path8255_0" fill="#FDC616" d="M28 37l-4 9c2,1 4,2 5,2l0 -8 -1 -3 0 0z" inkscape:connector-curvature="0"/>
   <path id="path8255_1" fill="#FDC616" d="M35 32c0,1 0,1 0,2l6 6c1,-1 1,-1 1,-2 0,0 0,0 0,0l0 -3 -7 -3 0 0z" inkscape:connector-curvature="0"/>
   <path id="path8255_2" fill="#FDC616" d="M25 33l-7 2 0 3c0,0 0,0 0,0 0,1 0,2 1,2l6 -6c0,-1 0,-1 0,-1l0 0z" inkscape:connector-curvature="0"/>
   <path id="path8255_3" fill="#FDC616" d="M37 30c-1,1 -1,1 -1,2l6 2 0 -4 -5 0 0 0z" inkscape:connector-curvature="0"/>
   <path id="path8255_4" fill="#FDC616" d="M18 30l0 4 6 -2c0,-1 0,-1 -1,-2l-5 0 0 0z" inkscape:connector-curvature="0"/>
   <path id="path8255_5" fill="#FDC616" d="M41 19l-5 5c1,0 2,0 2,0l2 0 0 1 2 -1 0 -5 -1 0 0 0z" inkscape:connector-curvature="0"/>
   <path id="path8255_6" fill="#FDC616" d="M30 19l0 5c1,0 1,0 2,0l2 -5 -4 0z" inkscape:connector-curvature="0"/>
   <path id="path8255_7" fill="#FDC616" d="M26 19l2 5c1,0 1,0 2,0l0 -5 -4 0z" inkscape:connector-curvature="0"/>
   <path id="path8255_8" fill="#FDC616" d="M18 19l0 5 2 1 0 -1 2 0c0,0 1,0 2,0l-5 -5 -1 0z" inkscape:connector-curvature="0"/>
   <path id="rect8114" fill="black" d="M16 18l0 20c0,6 10,11 14,13 4,-2 14,-7 14,-13l0 -20 -28 0zm28 -2l1 0 0 2 0 21 0 0 0 0c0,6 -10,11 -15,13 -5,-2 -15,-7 -15,-13l0 0 0 0 0 -21 0 -2 1 0 28 0z" sodipodi:nodetypes="cccccccccccccccc" inkscape:connector-curvature="0"/>
  </g>
 </g>
</svg>
