<?xml version="1.0" encoding="UTF-8"?>
<svg width="60px" height="60px" clip-rule="evenodd" fill-rule="evenodd" image-rendering="optimizeQuality" shape-rendering="geometricPrecision" text-rendering="geometricPrecision" version="1.1" viewBox="0 0 60 60" xml:space="preserve" xmlns="http://www.w3.org/2000/svg">
 <defs>
   <linearGradient id="id0" x1="4.02" x2="56" y1="60" y2="60" gradientUnits="userSpaceOnUse">
    <stop stop-color="gold" offset="0"/>
    <stop stop-color="gold" offset=".2"/>
    <stop stop-color="orange" offset="1"/>
   </linearGradient>
 </defs>
 
  
  <path d="m30 0 13 7 13 8v15 15l-13 8-13 7-13-7-13-8v-15-15l13-8 13-7zm0 5 22 12v13 13l-22 12-22-12v-13-13l22-12z" fill="url(#id0)"/>
  <path d="m43 13h-12l2 2h8v24l-11 10-11-10v-24h8l2-2h-12v27l13 12 13-12v-27zm-13 2-2 2h-8v5l7 5v1h1-1v2h1v8h-3v-1h2v-2h-4v5l4 4v-2h1v3l2 2 1-2v-15h2v-2h-2 2v-1l7-5v-5h-8l-2-2zm-1 3 1-1 1 1-1 1-1-1zm3 1h5v1l-5 4h-2-2l-5-4v-1h5l2 3 2-3z" fill="#008BFF"/>
 
</svg>
