<?xml version="1.0" encoding="UTF-8"?>
<!DOCTYPE svg PUBLIC "-//W3C//DTD SVG 1.1//EN" "http://www.w3.org/Graphics/SVG/1.1/DTD/svg11.dtd">
<!-- Creator: CorelDRAW Home & Student X8 -->
<svg xmlns="http://www.w3.org/2000/svg" xml:space="preserve" width="84px" height="84px" version="1.1" shape-rendering="geometricPrecision" text-rendering="geometricPrecision" image-rendering="optimizeQuality" fill-rule="evenodd" clip-rule="evenodd"
viewBox="0 0 84 84"
 xmlns:xlink="http://www.w3.org/1999/xlink">
 <g id="Ebene_x0020_1">
  <metadata id="CorelCorpID_0Corel-Layer"/>
  <rect fill="none" width="84" height="84"/>
  <path fill="#E25952" fill-rule="nonzero" d="M57 18l-6 -3 -2 5 5 2c1,0 1,0 1,1 1,0 1,0 0,1 0,0 0,0 0,1 -1,0 -1,0 -2,-1l-5 -2 -2 6c-1,0 -1,1 -1,1 -1,0 -1,0 -2,0 0,0 -1,-1 -1,-1 0,0 0,-1 0,-2l5 -12c1,-1 1,-1 1,-2 0,0 1,0 1,0 0,0 1,0 1,0l8 3c1,1 1,1 1,1 0,1 0,1 0,1 0,1 0,1 -1,1 0,0 0,0 -1,0z"/>
  <path fill="#E25952" fill-rule="nonzero" d="M18 27l-3 6 5 2 2 -5c0,-1 0,-1 1,-1 0,-1 0,-1 1,0 0,0 0,0 1,0 0,1 0,1 -1,2l-2 5 6 2c0,1 1,1 1,1 0,1 0,1 0,2 0,0 -1,1 -1,1 0,0 -1,0 -2,0l-12 -5c-1,-1 -1,-1 -2,-1 0,0 0,-1 0,-1 0,0 0,-1 0,-1l3 -8c1,-1 1,-1 1,-1 1,0 1,0 1,0 1,0 1,0 1,1 0,0 0,0 0,1z"/>
  <path fill="#E25952" fill-rule="nonzero" d="M27 66l6 3 2 -5 -5 -2c-1,0 -1,0 -1,-1 -1,0 -1,0 0,-1 0,0 0,0 0,-1 1,0 1,0 2,1l5 2 2 -6c1,0 1,-1 1,-1 1,0 1,0 2,0 0,0 1,1 1,1 0,0 0,1 0,2l-5 12c-1,1 -1,1 -1,2 0,0 -1,0 -1,0 0,0 -1,0 -1,0l-8 -3c-1,-1 -1,-1 -1,-1 0,-1 0,-1 0,-1 0,-1 0,-1 1,-1 0,0 0,0 1,0z"/>
  <path fill="#E25952" fill-rule="nonzero" d="M66 57l3 -6 -5 -2 -2 5c0,1 0,1 -1,1 0,1 0,1 -1,0 0,0 0,0 -1,0 0,-1 0,-1 1,-2l2 -5 -6 -2c0,-1 -1,-1 -1,-1 0,-1 0,-1 0,-2 0,0 1,-1 1,-1 0,0 1,0 2,0l12 5c1,1 1,1 2,1 0,0 0,1 0,1 0,0 0,1 0,1l-3 8c-1,1 -1,1 -1,1 -1,0 -1,0 -1,0 -1,0 -1,0 -1,-1 0,0 0,0 0,-1z"/>
 </g>
</svg>
