<?xml version="1.0" encoding="UTF-8"?>
<!DOCTYPE svg PUBLIC "-//W3C//DTD SVG 1.1//EN" "http://www.w3.org/Graphics/SVG/1.1/DTD/svg11.dtd">
<!-- Creator: CorelDRAW Home & Student X8 -->
<svg xmlns="http://www.w3.org/2000/svg" xml:space="preserve" width="84px" height="84px" version="1.1" shape-rendering="geometricPrecision" text-rendering="geometricPrecision" image-rendering="optimizeQuality" fill-rule="evenodd" clip-rule="evenodd"
viewBox="0 0 84 84"
 xmlns:xlink="http://www.w3.org/1999/xlink">
 <g id="Ebene_x0020_1">
  <metadata id="CorelCorpID_0Corel-Layer"/>
  <rect fill="none" width="84" height="84"/>
  <path fill="#E25952" fill-rule="nonzero" d="M38 24l5 -13c0,0 1,-1 1,-1 1,0 1,0 2,0 0,0 0,1 1,1 0,1 0,1 -1,2l-5 13c0,1 0,1 -1,1 0,0 -1,0 -1,0 -1,0 -1,0 -1,-1 0,0 0,-1 0,-2z"/>
  <path id="1" fill="#E25952" fill-rule="nonzero" d="M53 15l-1 13 8 -10c1,0 1,0 1,-1 0,0 1,0 1,0 0,0 0,0 1,0 0,0 0,0 1,1 0,0 0,0 0,0 0,1 0,1 0,1 0,0 0,1 0,1 -1,0 -1,0 -1,0 0,0 0,1 0,1l-9 9c0,0 0,1 -1,1 0,0 0,0 0,1 -1,0 -1,0 -1,0 -1,0 -1,0 -2,0 0,0 -1,-1 -1,-1 0,0 0,0 0,-1 0,0 0,-1 0,-1 0,0 0,-1 0,-1l0 -13c0,0 0,0 0,0 0,-1 0,-1 0,-1 0,0 0,0 0,-1 0,0 1,0 1,-1 1,0 1,0 2,0 0,1 0,1 1,1 0,1 0,2 0,2z"/>
  <path fill="#E25952" fill-rule="nonzero" d="M24 46l-13 -5c0,0 -1,-1 -1,-1 0,-1 0,-1 0,-2 0,0 1,0 1,-1 1,0 1,0 2,1l13 5c1,0 1,0 1,1 0,0 0,1 0,1 0,1 0,1 -1,1 0,0 -1,0 -2,0z"/>
  <path id="1" fill="#E25952" fill-rule="nonzero" d="M15 31l13 1 -10 -8c0,-1 0,-1 -1,-1 0,0 0,-1 0,-1 0,0 0,0 0,-1 0,0 0,0 1,-1 0,0 0,0 0,0 1,0 1,0 1,0 0,0 1,0 1,0 0,1 0,1 0,1 0,0 1,0 1,0l9 9c0,0 1,0 1,1 0,0 0,0 1,0 0,1 0,1 0,1 0,1 0,1 0,2 0,0 -1,1 -1,1 0,0 0,0 -1,0 0,0 -1,0 -1,0 0,0 -1,0 -1,0l-13 0c0,0 0,0 0,0 -1,0 -1,0 -1,0 0,0 0,0 -1,0 0,0 0,-1 -1,-1 0,-1 0,-1 0,-2 1,0 1,0 1,-1 1,0 2,0 2,0z"/>
  <path fill="#E25952" fill-rule="nonzero" d="M46 60l-5 13c0,0 -1,1 -1,1 -1,0 -1,0 -2,0 0,0 0,-1 -1,-1 0,-1 0,-1 1,-2l5 -13c0,-1 0,-1 1,-1 0,0 1,0 1,0 1,0 1,0 1,1 0,0 0,1 0,2z"/>
  <path id="1" fill="#E25952" fill-rule="nonzero" d="M31 69l1 -13 -8 10c-1,0 -1,0 -1,1 0,0 -1,0 -1,0 0,0 0,0 -1,0 0,0 0,0 -1,-1 0,0 0,0 0,0 0,-1 0,-1 0,-1 0,0 0,-1 0,-1 1,0 1,0 1,0 0,0 0,-1 0,-1l9 -9c0,0 0,-1 1,-1 0,0 0,0 0,-1 1,0 1,0 1,0 1,0 1,0 2,0 0,0 1,1 1,1 0,0 0,0 0,1 0,0 0,1 0,1 0,0 0,1 0,1l0 13c0,0 0,0 0,0 0,1 0,1 0,1 0,0 0,0 0,1 0,0 -1,0 -1,1 -1,0 -1,0 -2,0 0,-1 0,-1 -1,-1 0,-1 0,-2 0,-2z"/>
  <path fill="#E25952" fill-rule="nonzero" d="M60 38l13 5c0,0 1,1 1,1 0,1 0,1 0,2 0,0 -1,0 -1,1 -1,0 -1,0 -2,-1l-13 -5c-1,0 -1,0 -1,-1 0,0 0,-1 0,-1 0,-1 0,-1 1,-1 0,0 1,0 2,0z"/>
  <path id="1" fill="#E25952" fill-rule="nonzero" d="M69 53l-13 -1 10 8c0,1 0,1 1,1 0,0 0,1 0,1 0,0 0,0 0,1 0,0 0,0 -1,1 0,0 0,0 0,0 -1,0 -1,0 -1,0 0,0 -1,0 -1,0 0,-1 0,-1 0,-1 0,0 -1,0 -1,0l-9 -9c0,0 -1,0 -1,-1 0,0 0,0 -1,0 0,-1 0,-1 0,-1 0,-1 0,-1 0,-2 0,0 1,-1 1,-1 0,0 0,0 1,0 0,0 1,0 1,0 0,0 1,0 1,0l13 0c0,0 0,0 0,0 1,0 1,0 1,0 0,0 0,0 1,0 0,0 0,1 1,1 0,1 0,1 0,2 -1,0 -1,0 -1,1 -1,0 -2,0 -2,0z"/>
 </g>
</svg>
