<?xml version="1.0" encoding="UTF-8"?>
<!DOCTYPE svg PUBLIC "-//W3C//DTD SVG 1.1//EN" "http://www.w3.org/Graphics/SVG/1.1/DTD/svg11.dtd">
<!-- Creator: CorelDRAW Home & Student X8 -->
<svg xmlns="http://www.w3.org/2000/svg" xml:space="preserve" width="84px" height="84px" version="1.1" shape-rendering="geometricPrecision" text-rendering="geometricPrecision" image-rendering="optimizeQuality" fill-rule="evenodd" clip-rule="evenodd"
viewBox="0 0 84 84"
 xmlns:xlink="http://www.w3.org/1999/xlink">
 <g id="Ebene_x0020_1">
  <metadata id="CorelCorpID_0Corel-Layer"/>
  <rect fill="none" width="84" height="84"/>
  <path fill="#FF9136" d="M44 14l11 6 10 6 4 -2c0,0 0,0 0,0 0,-2 2,-4 4,-4 2,0 4,2 4,4 0,3 -2,5 -4,5 -1,0 -2,-1 -2,-1l-4 2 0 12 0 12 4 2c0,0 1,-1 2,-1 2,0 4,2 4,5 0,2 -2,4 -4,4 -2,0 -4,-2 -4,-4 0,0 0,0 0,0l-4 -2 -10 6 -11 6 0 4c1,1 2,2 2,4 0,2 -2,4 -4,4 -2,0 -4,-2 -4,-4 0,-2 1,-3 2,-4l0 -4 -11 -6 -10 -6 -4 2c0,0 0,0 0,0 0,2 -2,4 -4,4 -2,0 -4,-2 -4,-4 0,-3 2,-5 4,-5 1,0 2,1 2,1l4 -2 0 -12 0 -12 -4 -2c0,0 -1,1 -2,1 -2,0 -4,-2 -4,-5 0,-2 2,-4 4,-4 2,0 4,2 4,4 0,0 0,0 0,0l4 2 10 -6 11 -6 0 -4c-1,0 -2,-2 -2,-4 0,-2 2,-4 4,-4 2,0 4,2 4,4 0,2 0,3 -2,4l0 4zm-2 3l11 6 10 7 0 12 0 12 -10 7 -11 6 -11 -6 -10 -7 0 -12 0 -12 10 -7 11 -6z"/>
  <path fill="#FF9136" d="M42 22l9 5 8 5 0 10 0 10 -8 5 -9 5 -9 -5 -8 -5 0 -10 0 -10 8 -5 9 -5zm0 4l7 4 7 4 0 8 0 8 -7 4 -7 4 -7 -4 -7 -4 0 -8 0 -8 7 -4 7 -4z"/>
 </g>
</svg>
