<?xml version="1.0" encoding="UTF-8"?>
<!-- Creator: CorelDRAW Home & Student X8 -->
<svg width="60" height="60" clip-rule="evenodd" fill-rule="evenodd" image-rendering="optimizeQuality" shape-rendering="geometricPrecision" text-rendering="geometricPrecision" version="1.1" viewBox="-12 -24 84 84" xml:space="preserve" xmlns="http://www.w3.org/2000/svg">
 <defs>
    <linearGradient id="id0" x1="5.6268" x2="78.373" y1="84" y2="84" gradientUnits="userSpaceOnUse">
     <stop stop-color="gold" offset="0"/>
     <stop stop-color="gold" offset=".2"/>
     <stop stop-color="orange" offset="1"/>
    </linearGradient>
 </defs>
 
  
  <g transform="matrix(.71429 0 0 .71429 1.7143 0)">
   <path d="m42 12c-12 0-21 9-21 21v29h42v-29c0-12-9-21-21-21z" fill="#808080"/>
   <path d="m26 57h20c-3-5-2-4-5-4l1-2c-1-1-6-5-8-6-1 0-1 0-2-3l3 1c1 1 1 2 4 3v-1c1 1 1 2 2 3l3 2c0-2 1-5 0-8-1-5-2-3-4-4l1-1c0-1-2-3-3-4l-3-3h-2v-1l-2-3h4c1 3 1 2 2 4 1 0 2 1 3 2l1-1c0 7 2 2 5 12 4-7 2-7 1-9h3v-6l-1-1 1-4 3 3c-1 1 0 1-1 1v3h1c0 2-1 2-2 5-1 2-1 4-2 6h1c2 0 1 0 1 1-5 1-6 6-5 11h2c-1 5-2 4 10 4 0-7 1-22-1-27-3-17-27-16-30 0-2 5-1 20-1 27z"/>
   <path d="m42 0 18 11 18 10v42l-18 11-18 10-18-10-18-11v-42l18-10zm0 6 15 9 16 9v36l-16 9-15 9-15-9-16-9v-36l16-9z" fill="url(#id0)"/>
   <path d="m42 14c-11 0-20 8-20 19v27l3-2v-25c0-9 7-17 17-17 9 0 16 6 17 15v1 1 25l3 2v-27c0-11-9-19-20-19zm-16 45-3 2h37l-2-2z" fill="#ccc"/>
   <g fill="#ccc">
    <polygon points="38 23 39 22 39 23 40 24 39 24 39 25 38 24 37 24"/>
    <polygon points="46 30 46 29 47 30 48 30 47 31 46 32 46 31 45 30"/>
    <polygon points="54 38 54 37 55 38 56 39 55 39 54 40 54 39 53 39"/>
    <polygon points="53 45 54 44 54 45 55 46 54 46 54 47 53 46 52 46"/>
    <polygon points="51 50 52 49 52 50 53 50 52 51 52 52 51 51 50 50"/>
    <polygon points="33 51 33 50 34 51 35 51 34 51 33 53 33 51 32 51"/>
    <polygon points="30 53 30 52 31 53 32 54 31 54 30 55 30 54 29 54"/>
    <polygon points="34 38 35 37 35 38 36 38 35 39 35 40 34 39 33 38"/>
    <polygon points="29 37 29 36 29 37 31 37 29 37 29 39 29 37 28 37"/>
    <polygon points="32 33 33 32 33 33 34 33 33 34 33 35 32 34 31 33"/>
    <path d="m44 20c1 0 2 1 2 2s-1 2-2 2c0 0 1-1 1-2s-1-2-1-2z"/>
   </g>
  </g>
 
</svg>
