<?xml version="1.0" encoding="UTF-8"?>
<svg width="60px" height="60px" clip-rule="evenodd" fill-rule="evenodd" image-rendering="optimizeQuality" shape-rendering="geometricPrecision" text-rendering="geometricPrecision" version="1.1" viewBox="0 0 60 60" xml:space="preserve" xmlns="http://www.w3.org/2000/svg">
 <defs>
   <linearGradient id="id0" x1="4.02" x2="56" y1="60" y2="60" gradientUnits="userSpaceOnUse">
    <stop stop-color="gold" offset="0"/>
    <stop stop-color="gold" offset=".2"/>
    <stop stop-color="orange" offset="1"/>
   </linearGradient>
 </defs>
 
  
  <path d="m30 0 13 7 13 8v15 15l-13 8-13 7-13-7-13-8v-15-15l13-8 13-7zm0 5 22 12v13 13l-22 12-22-12v-13-13l22-12z" fill="url(#id0)"/>
  <polygon points="30 38 35 26 39 14 30 14 21 14 25 26" fill="#69f"/>
  <path d="m22 32h8 4 4c1 1 3 2 5 2 2 1 5 2 7 3-1 1-2 2-3 4-1 1-2 3-3 4h-14-13c-2-2-3-3-4-5l-3-3 6-3c2 0 4-1 6-2zm1 1h7 6c2 1 3 1 4 2 2 1 4 1 6 2l-6 6h-10-10l-6-6c2-1 4-2 5-2 2-1 3-1 4-2z" fill="#69f"/>
 
</svg>
