<?xml version="1.0" encoding="UTF-8"?>
<svg width="7.11mm" height="7.11mm" clip-rule="evenodd" fill-rule="evenodd" image-rendering="optimizeQuality" shape-rendering="geometricPrecision" text-rendering="geometricPrecision" version="1.1" viewBox="0 0 711 711" xml:space="preserve" xmlns="http://www.w3.org/2000/svg">
 <g transform="matrix(1 0 0 1 -2.41 2.36)" clip-rule="evenodd" fill="#e25952" fill-rule="evenodd" shape-rendering="geometricPrecision" style="mix-blend-mode:normal">
 <g transform="rotate(22,633,410)"><path d="m430 214 0.582 127" fill="none" stroke="#e25952" stroke-linecap="round" stroke-width="30" style="mix-blend-mode:normal"/><path d="m325 320c12.6-37.1 24.9-74.3 37.7-111 2.07-8.11 11.7-12.5 19.2-9.04 7.28 2.84 10.8 11.7 7.97 18.9-15.4 42.9-30.5 83-45.3 123-3.33 8.78-12.3 15.2-21.8 14.1-9.72 0.032-17-7.94-19.9-16.6-14.5-39.3-29.1-78.7-43.4-118-3.67-8.11-0.0374-18.9 8.98-21.3 8.13-2.73 16.7 2.23 18.9 10.4 13.8 37.4 26.7 77.6 37.7 110z"/></g><g transform="rotate(-68,276,410)"><path d="m433 218 0.37 127" fill="none" stroke="#e25952" stroke-linecap="round" stroke-width="30" style="mix-blend-mode:normal"/><path d="m327 324c12.6-37.1 24.9-74.3 37.7-111 2.07-8.11 11.7-12.5 19.2-9.04 7.28 2.84 10.8 11.7 7.97 18.9-15.4 42.9-30.5 83-45.3 123-3.33 8.78-12.3 15.2-21.8 14.1-9.72 0.032-17-7.94-19.9-16.6-14.5-39.3-29.1-78.7-43.4-118-3.67-8.11-0.0374-18.9 8.98-21.3 8.13-2.73 16.7 2.23 18.9 10.4 13.8 37.4 26.7 77.6 37.7 110z"/></g><g transform="rotate(202 345 410)"><path d="m427 221 0.43 127" fill="none" stroke="#e25952" stroke-linecap="round" stroke-width="30" style="mix-blend-mode:normal"/><path d="m322 327c12.6-37.1 24.9-74.3 37.7-111 2.07-8.11 11.7-12.5 19.2-9.04 7.28 2.84 10.8 11.7 7.97 18.9-15.4 42.9-30.5 83-45.3 123-3.33 8.78-12.3 15.2-21.8 14.1-9.72 0.032-17-7.94-19.9-16.6-14.5-39.3-29.1-78.7-43.4-118-3.67-8.11-0.0374-18.9 8.98-21.3 8.13-2.73 16.7 2.23 18.9 10.4 13.8 37.4 26.7 77.6 37.7 110z"/></g><g transform="rotate(112,392,410)"><path d="m320 322c12.6-37.1 24.9-74.3 37.7-111 2.07-8.11 11.7-12.5 19.2-9.04 7.28 2.84 10.8 11.7 7.97 18.9-15.4 42.9-30.5 83-45.3 123-3.33 8.78-12.3 15.2-21.8 14.1-9.72 0.032-17-7.94-19.9-16.6-14.5-39.3-29.1-78.7-43.4-118-3.67-8.11-0.0374-18.9 8.98-21.3 8.13-2.73 16.7 2.23 18.9 10.4 13.8 37.4 26.7 77.6 37.7 110z"/><path d="m425 216 0.289 127" fill="none" stroke="#e25952" stroke-linecap="round" stroke-width="30" style="mix-blend-mode:normal"/></g>
 </g>
</svg>
