<?xml version="1.0" encoding="UTF-8"?>
<svg width="60px" height="60px" clip-rule="evenodd" fill-rule="evenodd" image-rendering="optimizeQuality" shape-rendering="geometricPrecision" text-rendering="geometricPrecision" version="1.1" viewBox="0 0 60 60" xml:space="preserve" xmlns="http://www.w3.org/2000/svg">
 <defs>
   <linearGradient id="id0" x1="4.02" x2="56" y1="60" y2="60" gradientUnits="userSpaceOnUse">
    <stop stop-color="gold" offset="0"/>
    <stop stop-color="gold" offset=".2"/>
    <stop stop-color="orange" offset="1"/>
   </linearGradient>
 </defs>
 
  
  <path d="m30 0 13 7 13 8v15 15l-13 8-13 7-13-7-13-8v-15-15l13-8 13-7zm0 5 22 12v13 13l-22 12-22-12v-13-13l22-12z" fill="url(#id0)"/>
  
   <path d="m30 9c-8 0-15 6-15 15v21h30v-21c0-9-7-15-15-15z"/>
   <path d="m41 24c0-7-5-12-11-12s-11 5-11 12v15h22v-15z" fill="#F8E7C1"/>
   <circle cx="30" cy="25" r="7" fill="#BD932D"/>
   <path d="m38 25v-3l3-2c-1-2-2-3-3-5l-3 4c-1-1-2-2-3-2v-5h-2c-1 0-2 0-3 1l1 4c-1 0-2 1-3 2l-3-4c-1 2-2 3-3 5l3 2v3c0 5 3 9 8 9s8-4 8-9z" fill="#FFC423"/>
   <path d="m30 10c-8 0-14 6-14 14v19l2-2v-17c0-7 5-13 12-13 6 0 11 5 12 11v1 1 17l2 2v-19c0-8-6-14-14-14zm-12 32-1 2h26l-2-2h-23z" fill="#FFC423"/>
   <rect x="19" y="25" width="22.8" height="15.4" fill="#836528"/>
   <path d="m30 25h7c0-4-3-7-7-7s-7 3-7 7h7z" fill="#BD932D"/>
   
    <path d="m36 17v3c0 3-1 5-2 7 0 2-1 3-1 4-2-4-3-7-7-11v1c2 2 4 5 6 11 0 1-1 2-1 4-1-1-3-2-4-3s-1-1-2-1h-1c1 1 2 2 3 2 2 2 4 4 5 6 1 0 1 0 1 1h2c-1-1-1-2-2-2 0-1-1-2-1-3 0-3 3-6 4-9 1-2 1-4 1-7l-1-3z"/>
    
     <path d="m36 36s1 2 0 3c-1 2-3 1-3 1s-1-1 0-3c1-1 3-1 3-1z"/>
     <path d="m36 37s0 1-1 2h-1v-1c1-1 2-1 2-1z" fill="#F8E7C1"/>
    
    
     <path d="m31 36s0 2-2 3c-2 0-3-1-3-1s0-2 2-2c2-1 3 0 3 0z"/>
     <path d="m30 37-1 1c-1 0-2-1-2-1h1c1-1 2 0 2 0z" fill="#F8E7C1"/>
    
    
     <path d="m25 32s-1 1-3 0-1-3-1-3 1-1 3 0c1 1 1 3 1 3z"/>
     <path d="m24 31s-1 1-1 0c-1 0-1-1-1-1h1l1 1z" fill="#F8E7C1"/>
    
    
     <path d="m37 30s0 2-2 3c-1 0-3-1-3-1s1-2 2-2c2-1 3 0 3 0z"/>
     <path d="m36 31-1 1h-1s0-1 1-1c0-1 1 0 1 0z" fill="#F8E7C1"/>
    
    
     <path d="m31 28s-1 1-2 1c-2 0-3-2-3-2s1-2 3-1c2 0 2 2 2 2z"/>
     <path d="m30 27s0 1-1 1-2-1-2-1h2 1z" fill="#F8E7C1"/>
    
    
     <path d="m36 27s-2 0-3-1c-2-2-1-3-1-3s2-1 3 1c1 1 1 3 1 3z"/>
     <path d="m35 26s-1 0-2-1v-1h1c1 1 1 2 1 2z" fill="#F8E7C1"/>
    
    
     <path d="m40 21s0 1-1 3c-1 1-3 0-3 0s-1-2 1-3c1-1 3 0 3 0z"/>
     <path d="m39 22-1 1h-1v-1c1-1 2 0 2 0z" fill="#F8E7C1"/>
    
    
     <path d="m29 19s2 1 2 3-2 2-2 2-2-1-2-2c1-2 2-3 2-3z"/>
     <path d="m29 20s1 1 1 2-1 1-1 1-1 0-1-1c1-1 1-2 1-2z" fill="#F8E7C1"/>
    
    
     <path d="m35 15s2 0 2 2c1 2 0 3 0 3s-2 0-3-2c0-1 1-3 1-3z"/>
     <path d="m35 16 1 1c1 1 0 2 0 2l-1-1v-2z" fill="#F8E7C1"/>
    
    
     <path d="m26 21s-1 1-3 0c-1-1-1-3-1-3s1-1 3 0c1 1 1 3 1 3z"/>
     <path d="m25 20s-1 1-1 0c-1 0-1-1-1-1h1l1 1z" fill="#F8E7C1"/>
    
    
     <path d="m29 35s-2 0-2-2 1-3 1-3 2 1 2 2c0 2-1 3-1 3z"/>
     <path d="m29 34s-1 0-1-1v-2s1 1 1 2v1z" fill="#F8E7C1"/>
    
   
  
 
</svg>
