<?xml version="1.0" encoding="UTF-8"?>
<!DOCTYPE svg PUBLIC "-//W3C//DTD SVG 1.1//EN" "http://www.w3.org/Graphics/SVG/1.1/DTD/svg11.dtd">
<!-- Creator: CorelDRAW Home & Student X8 -->
<svg xmlns="http://www.w3.org/2000/svg" xml:space="preserve" width="60px" height="60px" version="1.1" shape-rendering="geometricPrecision" text-rendering="geometricPrecision" image-rendering="optimizeQuality" fill-rule="evenodd" clip-rule="evenodd"
viewBox="0 0 60 60"
 xmlns:xlink="http://www.w3.org/1999/xlink">
 <defs>
   <linearGradient id="id0" gradientUnits="userSpaceOnUse" x1="4.01828" y1="60.0008" x2="55.9817" y2="60.0008">
    <stop offset="0" stop-opacity="1" stop-color="gold"/>
    <stop offset="0.2" stop-opacity="1" stop-color="gold"/>
    <stop offset="1" stop-opacity="1" stop-color="orange"/>
   </linearGradient>
   <linearGradient id="id1" gradientUnits="userSpaceOnUse" x1="9.54162" y1="40.4798" x2="50.4584" y2="40.4798">
    <stop offset="0" stop-opacity="1" stop-color="gold"/>
    <stop offset="0.2" stop-opacity="1" stop-color="gold"/>
    <stop offset="1" stop-opacity="1" stop-color="orange"/>
   </linearGradient>
 </defs>
 <g id="Ebene_x0020_1">
  <metadata id="CorelCorpID_0Corel-Layer"/>
  <path fill="url(#id0)" d="M30 0l13 7 13 8 0 15 0 15 -13 8 -13 7 -13 -7 -13 -8 0 -15 0 -15 13 -8 13 -7zm0 5l11 6 11 6 0 13 0 13 -11 6 -11 6 -11 -6 -11 -6 0 -13 0 -13 11 -6 11 -6z"/>
  <path fill="url(#id1)" stroke="black" stroke-width="0.642857" stroke-linejoin="round" d="M16 20l13 0 0 20 -13 0 0 -20zm0 15c-4,0 -6,-2 -6,-6 0,-4 2,-6 6,-6m0 2c-2,0 -4,2 -4,4 0,2 2,4 4,4l0 -8zm28 -5l-13 0 0 20 13 0 0 -20zm0 15c4,0 6,-2 6,-6 0,-4 -2,-6 -6,-6m0 2c2,0 4,2 4,4 0,2 -2,4 -4,4l0 -8z"/>
 </g>
</svg>
