<?xml version="1.0" encoding="UTF-8"?>
<svg width="7.11mm" height="7.11mm" clip-rule="evenodd" fill-rule="evenodd" image-rendering="optimizeQuality" shape-rendering="geometricPrecision" text-rendering="geometricPrecision" version="1.1" viewBox="0 0 711 711" xml:space="preserve" xmlns="http://www.w3.org/2000/svg">
  <g transform="matrix(.927 .375 -.375 .927 200 -207)">
   <g class="fil1 fnt0" fill="#e25952" aria-label="F"><path d="m399 228h-60.5v38.8l52.2 0.0501c8.45-0.629 15 8.55 11.4 16.3-3.27 7.58-12.4 6.78-19.3 6.74h-44.3l-0.153 53.3c-0.0774 8.39-7.22 16.3-16 15.3-8.71 0.137-14.7-8.28-14.5-16.4l-0.0355-120c-0.391-7.78 4.5-16.1 12.8-16.7l81.7-0.284c8.56 0.105 13.9 10.3 9.63 17.5-2.47 4.74-8.13 6.05-13.1 5.97z"/></g>
  </g>
  <g transform="matrix(.375 -.927 .927 .375 -207 512)">
   <g class="fil1 fnt0" fill="#e25952" aria-label="F"><path d="m399 228h-60.5v38.8l52.2 0.0501c8.45-0.629 15 8.55 11.4 16.3-3.27 7.58-12.4 6.78-19.3 6.74h-44.3l-0.153 53.3c-0.0774 8.39-7.22 16.3-16 15.3-8.71 0.137-14.7-8.28-14.5-16.4l-0.0355-120c-0.391-7.78 4.5-16.1 12.8-16.7l81.7-0.284c8.56 0.105 13.9 10.3 9.63 17.5-2.47 4.74-8.13 6.05-13.1 5.97z"/></g>
  </g>
  <g transform="matrix(-.927 -.375 .375 -.927 512 919)">
   <g class="fil1 fnt0" fill="#e25952" aria-label="F"><path d="m399 228h-60.5v38.8l52.2 0.0501c8.45-0.629 15 8.55 11.4 16.3-3.27 7.58-12.4 6.78-19.3 6.74h-44.3l-0.153 53.3c-0.0774 8.39-7.22 16.3-16 15.3-8.71 0.137-14.7-8.28-14.5-16.4l-0.0355-120c-0.391-7.78 4.5-16.1 12.8-16.7l81.7-0.284c8.56 0.105 13.9 10.3 9.63 17.5-2.47 4.74-8.13 6.05-13.1 5.97z"/></g>
  </g>
  <g transform="matrix(-.375 .927 -.927 -.375 919 200)">
   <g class="fil1 fnt0" fill="#e25952" aria-label="F"><path d="m399 228h-60.5v38.8l52.2 0.0501c8.45-0.629 15 8.55 11.4 16.3-3.27 7.58-12.4 6.78-19.3 6.74h-44.3l-0.153 53.3c-0.0774 8.39-7.22 16.3-16 15.3-8.71 0.137-14.7-8.28-14.5-16.4l-0.0355-120c-0.391-7.78 4.5-16.1 12.8-16.7l81.7-0.284c8.56 0.105 13.9 10.3 9.63 17.5-2.47 4.74-8.13 6.05-13.1 5.97z"/></g>
  </g>
</svg>
