<?xml version="1.0" encoding="UTF-8"?>
<!DOCTYPE svg PUBLIC "-//W3C//DTD SVG 1.1//EN" "http://www.w3.org/Graphics/SVG/1.1/DTD/svg11.dtd">
<!-- Creator: CorelDRAW Home & Student X8 -->
<svg xmlns="http://www.w3.org/2000/svg" xml:space="preserve" width="84px" height="84px" version="1.1" shape-rendering="geometricPrecision" text-rendering="geometricPrecision" image-rendering="optimizeQuality" fill-rule="evenodd" clip-rule="evenodd"
viewBox="0 0 84 84"
 xmlns:xlink="http://www.w3.org/1999/xlink">
 <g id="Ebene_x0020_1">
  <metadata id="CorelCorpID_0Corel-Layer"/>
  <rect fill="none" width="84" height="84"/>
  <path fill="#E25952" fill-rule="nonzero" d="M49 14l-1 13 9 -10c0,-1 0,-1 0,-1 1,0 1,0 1,-1 1,0 1,0 1,1 1,0 1,0 1,0 0,0 0,1 0,1 0,0 0,0 0,1 0,0 0,0 0,0 0,0 0,1 0,1 -1,0 -1,0 -1,0l-8 9c-1,1 -1,1 -1,1 0,1 -1,1 -1,1 0,0 -1,1 -1,1 0,0 -1,0 -1,-1 -1,0 -1,0 -1,0 -1,-1 -1,-1 -1,-1 0,-1 0,-1 0,-1 0,-1 0,-1 0,-2l0 -12c0,0 0,-1 0,-1 0,0 1,0 1,-1 0,0 0,0 0,0 0,0 0,-1 1,-1 0,0 0,0 1,0 1,0 1,1 1,1 0,0 0,1 0,2z"/>
  <path fill="#E25952" fill-rule="nonzero" d="M14 35l13 1 -10 -9c-1,0 -1,0 -1,0 0,-1 0,-1 -1,-1 0,-1 0,-1 1,-1 0,-1 0,-1 0,-1 0,0 1,0 1,0 0,0 0,0 1,0 0,0 0,0 0,0 0,0 1,0 1,0 0,1 0,1 0,1l9 8c1,1 1,1 1,1 1,0 1,1 1,1 0,0 1,1 1,1 0,0 0,1 -1,1 0,1 0,1 0,1 -1,1 -1,1 -1,1 -1,0 -1,0 -1,0 -1,0 -1,0 -2,0l-12 0c0,0 -1,0 -1,0 0,0 0,-1 -1,-1 0,0 0,0 0,0 0,0 -1,0 -1,-1 0,0 0,0 0,-1 0,-1 1,-1 1,-1 0,0 1,0 2,0z"/>
  <path fill="#E25952" fill-rule="nonzero" d="M35 70l1 -13 -9 10c0,1 0,1 0,1 -1,0 -1,0 -1,1 -1,0 -1,0 -1,-1 -1,0 -1,0 -1,0 0,0 0,-1 0,-1 0,0 0,0 0,-1 0,0 0,0 0,0 0,0 0,-1 0,-1 1,0 1,0 1,0l8 -9c1,-1 1,-1 1,-1 0,-1 1,-1 1,-1 0,0 1,-1 1,-1 0,0 1,0 1,1 1,0 1,0 1,0 1,1 1,1 1,1 0,1 0,1 0,1 0,1 0,1 0,2l0 12c0,0 0,1 0,1 0,0 -1,0 -1,1 0,0 0,0 0,0 0,0 0,1 -1,1 0,0 0,0 -1,0 -1,0 -1,-1 -1,-1 0,0 0,-1 0,-2z"/>
  <path fill="#E25952" fill-rule="nonzero" d="M70 49l-13 -1 10 9c1,0 1,0 1,0 0,1 0,1 1,1 0,1 0,1 -1,1 0,1 0,1 0,1 0,0 -1,0 -1,0 0,0 0,0 -1,0 0,0 0,0 0,0 0,0 -1,0 -1,0 0,-1 0,-1 0,-1l-9 -8c-1,-1 -1,-1 -1,-1 -1,0 -1,-1 -1,-1 0,0 -1,-1 -1,-1 0,0 0,-1 1,-1 0,-1 0,-1 0,-1 1,-1 1,-1 1,-1 1,0 1,0 1,0 1,0 1,0 2,0l12 0c0,0 1,0 1,0 0,0 0,1 1,1 0,0 0,0 0,0 0,0 1,0 1,1 0,0 0,0 0,1 0,1 -1,1 -1,1 0,0 -1,0 -2,0z"/>
 </g>
</svg>
