<?xml version="1.0" encoding="UTF-8"?>
<svg width="7.11mm" height="7.11mm" clip-rule="evenodd" fill-rule="evenodd" image-rendering="optimizeQuality" shape-rendering="geometricPrecision" text-rendering="geometricPrecision" version="1.1" viewBox="0 0 711 711" xml:space="preserve" xmlns="http://www.w3.org/2000/svg">
 <g clip-rule="evenodd" fill="#e25952" fill-rule="evenodd" shape-rendering="geometricPrecision">
  <path d="m409 226 76.8-89.4c4.97-6.72 15.5-7.2 21.2-1.17 5.69 5.36 5.65 14.9 0.319 20.5l-87.9 96.7c-6.38 6.91-17.1 9.53-25.6 4.88-9.04-3.61-12.9-13.7-12.3-22.9l4.07-126c-0.372-8.9 7.03-17.5 16.3-16.4 8.57 0.508 14.7 8.33 13.6 16.8z" image-rendering="optimizeQuality"/><path d="m303 485-76.8 89.4c-4.97 6.72-15.5 7.2-21.2 1.17-5.69-5.36-5.65-14.9-0.319-20.5l87.9-96.7c6.38-6.91 17.1-9.53 25.6-4.88 9.04 3.61 12.9 13.7 12.3 22.9l-4.07 126c0.372 8.9-7.03 17.5-16.3 16.4-8.57-0.508-14.7-8.33-13.6-16.8z"/><path d="m485 409 89.4 76.8c6.72 4.97 7.2 15.5 1.17 21.2-5.36 5.69-14.9 5.65-20.5 0.319l-96.7-87.9c-6.91-6.38-9.53-17.1-4.88-25.6 3.61-9.04 13.7-12.9 22.9-12.3l126 4.07c8.9-0.372 17.5 7.03 16.4 16.3-0.508 8.57-8.33 14.7-16.8 13.6z"/><path d="m226 303-89.4-76.8c-6.72-4.97-7.2-15.5-1.17-21.2 5.36-5.69 14.9-5.65 20.5-0.319l96.7 87.9c6.91 6.38 9.53 17.1 4.88 25.6-3.61 9.04-13.7 12.9-22.9 12.3l-126-4.07c-8.9 0.372-17.5-7.03-16.4-16.3 0.508-8.57 8.33-14.7 16.8-13.6z"/>
 </g>
</svg>
