<?xml version="1.0" encoding="UTF-8"?>
<svg width="84" height="84" version="1.1" viewBox="0 -1 84 84" xml:space="preserve" xmlns="http://www.w3.org/2000/svg">
<g transform="translate(.00526 10.9)"><path d="m42.1 14.4 23.9 13.8-0.0102 27.8-23.9 13.8-24.1-13.8 0.0179-27.8z" fill="none" stroke="#ffa500" stroke-opacity=".8" stroke-width="4"/><g transform="translate(0,13.1)" fill-opacity=".8" stroke-linejoin="round">
<path d="m33 36c4-6 10-5 14 0" fill="#a52a2a"/>
<path d="m28 23c-3 0-5-5 0-8s23-3 28 0 3 8 0 8v20h-28zm23 13c-3-11-15-11-18 0zm-17-14a3.33 2.5 90 0 0 5 0 3.33 2.5 90 0 0-5 0m11 0a3.33 2.5 90 0 0 5 0 3.33 2.5 90 0 0-5 0" fill="#ffa500" stroke="#000"/>
</g></g>
</svg>
