<?xml version="1.0" encoding="UTF-8"?>
<!DOCTYPE svg PUBLIC "-//W3C//DTD SVG 1.1//EN" "http://www.w3.org/Graphics/SVG/1.1/DTD/svg11.dtd">
<!-- Creator: CorelDRAW Home & Student X8 -->
<svg xmlns="http://www.w3.org/2000/svg" xml:space="preserve" width="60px" height="60px" version="1.1" shape-rendering="geometricPrecision" text-rendering="geometricPrecision" image-rendering="optimizeQuality" fill-rule="evenodd" clip-rule="evenodd"
viewBox="0 0 60 60"
 xmlns:xlink="http://www.w3.org/1999/xlink">
 <defs>
   <linearGradient id="id0" gradientUnits="userSpaceOnUse" x1="4.01828" y1="60.0008" x2="55.9817" y2="60.0008">
    <stop offset="0" stop-opacity="1" stop-color="gold"/>
    <stop offset="0.2" stop-opacity="1" stop-color="gold"/>
    <stop offset="1" stop-opacity="1" stop-color="orange"/>
   </linearGradient>
 </defs>
 <g id="Ebene_x0020_1">
  <metadata id="CorelCorpID_0Corel-Layer"/>
  <path fill="url(#id0)" d="M30 0l13 7 13 8 0 15 0 15 -13 8 -13 7 -13 -7 -13 -8 0 -15 0 -15 13 -8 13 -7zm0 5l11 6 11 6 0 13 0 13 -11 6 -11 6 -11 -6 -11 -6 0 -13 0 -13 11 -6 11 -6z"/>
  <path fill="#008BFF" d="M43 13l-12 0 2 2 8 0 0 24 -11 10 -11 -10 0 -24 8 0 2 -2 -12 0 0 27 13 12 13 -12 0 -27zm-13 2l-2 2 -8 0 0 5 7 5 0 1 1 0 0 0 -1 0 0 2 1 0 0 8 -3 0 0 -1 2 0 0 -2 -4 0 0 5 4 4 0 -2 1 0 0 3 2 2 1 -2 0 -15 2 0 0 -2 -2 0 0 0 2 0 0 -1 7 -5 0 -5 -8 0 -2 -2zm-1 3l1 -1 1 1 -1 1 -1 -1zm3 1l5 0 0 1 -5 4 -2 0 -2 0 -5 -4 0 -1 5 0 2 3 2 -3z"/>
 </g>
</svg>
