<?xml version="1.0" encoding="UTF-8"?>
<!DOCTYPE svg PUBLIC "-//W3C//DTD SVG 1.1//EN" "http://www.w3.org/Graphics/SVG/1.1/DTD/svg11.dtd">
<!-- Creator: CorelDRAW Home & Student X8 -->
<svg xmlns="http://www.w3.org/2000/svg" xml:space="preserve" width="60px" height="60px" version="1.1" shape-rendering="geometricPrecision" text-rendering="geometricPrecision" image-rendering="optimizeQuality" fill-rule="evenodd" clip-rule="evenodd"
viewBox="0 0 60 60"
 xmlns:xlink="http://www.w3.org/1999/xlink">
 <defs>
   <linearGradient id="id0" gradientUnits="userSpaceOnUse" x1="4.01828" y1="60.0008" x2="55.9817" y2="60.0008">
    <stop offset="0" stop-opacity="1" stop-color="gold"/>
    <stop offset="0.2" stop-opacity="1" stop-color="gold"/>
    <stop offset="1" stop-opacity="1" stop-color="orange"/>
   </linearGradient>
 </defs>
 <g id="Ebene_x0020_1">
  <metadata id="CorelCorpID_0Corel-Layer"/>
  <path fill="url(#id0)" d="M30 0l13 7 13 8 0 15 0 15 -13 8 -13 7 -13 -7 -13 -8 0 -15 0 -15 13 -8 13 -7zm0 5l11 6 11 6 0 13 0 13 -11 6 -11 6 -11 -6 -11 -6 0 -13 0 -13 11 -6 11 -6z"/>
  <g>
   <path fill="#0F0C0C" fill-rule="nonzero" d="M40 26l0 -1c0,0 0,-1 0,-2 4,2 5,3 5,3 -1,1 -3,0 -5,0zm-7 -2c-1,-1 -2,-1 -3,-2 -2,0 -4,-1 -6,-2 2,0 4,-1 6,-1 1,-1 2,-1 3,-1 0,0 0,0 0,0 2,-1 4,-1 6,-1l0 0c3,-1 5,-1 6,-1 0,1 -2,2 -5,3 0,0 0,-1 0,-1 -2,0 -4,0 -6,1 0,1 0,1 0,2 0,1 0,2 -1,3l0 0zm-11 -5c0,0 0,0 0,0 0,-2 1,-3 2,-4 0,1 0,3 0,4 -1,0 -1,0 -2,0zm-2 -1c-2,-1 -4,-2 -4,-3 1,0 2,0 5,1 0,1 0,1 -1,2zm6 -4c0,0 1,-1 2,-1 2,0 3,2 5,3 -2,1 -3,1 -4,1 -1,1 -3,1 -5,2 0,-2 1,-4 2,-5l0 0zm-1 16l1 11c0,0 0,0 0,0l-4 -13c1,1 2,2 3,2l0 0zm1 1l0 0c1,0 2,1 2,2 0,0 0,1 0,1 0,0 0,0 0,0l0 0c0,0 0,0 1,0l3 0c0,0 0,0 0,0l0 0c0,0 0,0 0,0 0,0 0,-1 0,-1 0,-1 1,-2 2,-2l0 0c0,0 0,0 0,0l-1 9c-2,-2 -5,-3 -5,-3l1 5c-1,0 -1,0 -1,0 0,0 0,-1 -1,-1l-1 -10c0,0 0,0 0,0l0 0zm6 16c-1,0 -3,0 -4,0 0,0 0,-1 0,-2l1 0 0 1c0,0 0,0 0,0l0 0 0 0 4 0c0,0 -1,1 -1,1l0 0zm-3 -9c1,1 1,1 2,1 1,1 1,1 1,1 0,2 -1,4 -2,4 0,0 0,0 0,0 0,0 0,0 -1,-1 0,0 0,0 0,0l0 -2 0 -3 0 0zm-4 6l0 -3c0,0 1,1 2,1 0,0 0,0 0,0 0,0 0,0 1,0 0,1 0,1 0,1 0,0 0,0 1,1 0,0 0,0 0,0l-4 0zm16 -22c0,0 0,0 0,0 0,-1 0,-1 0,-2 6,-2 6,-3 5,-4 0,0 0,0 0,-1 -1,0 -4,0 -8,0 -2,-2 -4,-4 -8,-4 -3,0 -6,2 -8,4 -6,-2 -7,-1 -7,0 0,0 0,0 0,1 0,1 2,2 5,4 0,0 0,0 0,0 -1,0 -1,1 -2,1 -4,2 -5,3 -4,3 0,1 0,2 3,2 1,0 2,0 4,-1 0,1 0,1 0,1l4 14c-1,0 -1,0 -1,0l0 5 0 0 0 0 2 0 1 2c0,0 0,0 0,0 0,0 -1,0 -1,0 0,0 0,-1 0,-1l-2 0c0,0 0,1 0,1 0,1 0,3 2,3 0,0 0,0 0,0 0,0 0,1 1,1 1,0 3,0 5,-1 0,0 3,0 3,0 1,-1 1,-2 1,-2 0,0 2,-1 2,-1 1,0 1,0 1,0 0,0 0,0 -1,0 0,0 -2,0 -2,0 0,0 0,0 0,0 0,0 0,0 0,0 -1,0 -2,0 -3,0l1 -2 3 0 0 0 0 0c0,0 0,0 0,0 0,0 0,-1 -1,-2 0,0 -1,-1 -1,-1l4 -13c0,0 0,0 0,0 0,0 -1,-1 -1,-1l-4 13c0,0 0,0 0,0l1 -11c1,0 2,-1 3,-2 -1,0 -2,0 -2,0l0 0c-1,0 -1,0 -1,-1l0 0c-1,0 -2,0 -3,-1 -1,2 -3,2 -4,2 -1,0 -2,0 -3,0l0 -4c0,0 -1,-1 -1,-1l1 4c-2,-1 -3,-2 -3,-4 -1,0 -2,0 -2,0 0,1 0,1 0,1 -3,1 -5,0 -5,0 0,-1 3,-2 7,-3 1,0 2,0 3,1 0,0 0,0 -1,0 1,0 1,0 1,0l0 0c1,1 3,1 4,2 1,0 11,4 15,4 1,0 2,0 2,-1 0,0 1,-2 -5,-5l0 0zm0 0l0 0 0 0z"/>
  </g>
 </g>
</svg>
