<?xml version="1.0" encoding="UTF-8"?>
<svg width="32" height="32" version="1.1" viewBox="0 0 32 32" xml:space="preserve" xmlns="http://www.w3.org/2000/svg"><rect x=".4923" y=".4923" width="31.02" height="31.02" ry="4.258" fill="#eee" stroke="#5d5d5d" stroke-width=".9846"/><style type="text/css"> .st0{fill:#333333;} </style><g transform="matrix(1.3432 0 0 1.3432 5.2567 4.8679)"><path d="M 8,1 C 4.6862,1 2,3.6862 2,7 2,8.6563 2.6711,10.156 3.7565,11.2417 4.8422,12.328 7.4,13.9 7.55,15.55 7.57249,15.7974 7.7516,16 8,16 8.2484,16 8.42751,15.7974 8.45,15.55 8.6,13.9 11.1578,12.328 12.2435,11.2417 13.3289,10.156 14,8.6563 14,7 14,3.6862 11.3138,1 8,1 Z" fill="#f43"/><path d="m8 9.1002c1.1598 0 2.1-0.94021 2.1-2.1 0-1.1598-0.94018-2.1-2.1-2.1-1.1598 0-2.1 0.9402-2.1 2.1 0 1.1598 0.94021 2.1 2.1 2.1z" fill="#fff"/></g></svg>
