<?xml version="1.0" encoding="UTF-8"?>
<svg width="32" height="32" version="1.1" viewBox="0 0 32 32" xml:space="preserve" xmlns="http://www.w3.org/2000/svg"><rect x=".4923" y=".4923" width="31.02" height="31.02" ry="4.258" fill="#eee" stroke="#5d5d5d" stroke-width=".9846"/><g transform="matrix(.39132 0 0 .39132 5.4606 5.4479)"><path d="m37.188 0c-5.2468-0.14761-10.475 2.1208-13.969 6.5-3.2405 4.0616-4.4549 9.4063-3.3125 14.469 0.40466 1.7932 1.2944 3.979 2.25 5.4688l0.5 0.75-3.8438 3.8438 4.0625 4.0938 3.8438-3.8438 0.78125 0.46875c3.0049 1.9276 6.9285 2.9198 10.469 2.625 2.4847-0.20693 4.3134-0.72733 6.4688-1.8125 1.8105-0.91151 2.9526-1.706 4.375-3.125 2.761-2.7544 4.3854-6.0453 4.9375-9.9062 0.15839-1.1098 0.15948-3.6043 0-4.6562-0.75442-4.976-3.3931-9.2294-7.4688-11.969-2.7852-1.872-5.9456-2.8177-9.0938-2.9062z"/><path d="m16.219 30.469c-1.0112 0.04067-1.579 0.65374-8.6562 7.75-8.0088 8.0303-7.5585 7.515-7.5625 8.9688-0.00395 1.3012 0.14951 1.5612 2.6562 4.0625 2.1069 2.1023 2.5232 2.4262 3.3125 2.625 0.57274 0.14425 1.5164 0.0274 2.125-0.25 0.47514-0.21658 1.4215-1.1167 7.625-7.3125 8.0554-8.0455 7.7228-7.6321 7.7188-9.0938-0.0018-0.67647-0.03772-0.86077-0.3125-1.4062l-0.3125-0.625-4.0938-4.0625-0.625-0.34375c-0.54548-0.27478-0.69854-0.3105-1.375-0.3125-0.18292-4.76e-4 -0.35554-0.0058-0.5 0z" fill="#75570f"/><path d="m39.271 31.353c4.4767-0.81946 8.3862-3.8 10.346-7.8876 3.1242-6.517 1.023-14.176-4.9999-18.225-1.4368-0.9659-3.4432-1.7801-5.3262-2.1615-1.3045-0.2642-4.0648-0.23718-5.4253 0.0531-2.031 0.4333-3.8956 1.2413-5.5115 2.3884-0.99858 0.70884-2.6451 2.3547-3.3426 3.3412-3.8647 5.4664-3.515 12.732 0.85543 17.775 2.2403 2.5851 5.3388 4.2821 8.7673 4.8016 1.1386 0.17255 3.4633 0.13003 4.637-0.0848z" fill="#c0c0c0"/><path d="m35.307 29.406c-1.5446-0.24456-2.854-0.63675-3.9155-1.1727l-0.60054-0.30322v-5.5702h-1.0586c-0.92057 0-2.1816 0.18074-3.0922 0.44323-0.1208 0.0348-0.17081 0.17477-0.19217 0.53771l-0.0289 0.49065-0.45941-0.8732c-1.0074-1.9148-1.3662-3.4221-1.3662-5.739 1e-5 -1.7912 0.12725-2.616 0.62542-4.0537 0.26443-0.76317 0.9161-2.1148 1.2011-2.4912 0.12387-0.16362 0.13737-0.12771 0.14013 0.37275l3e-3 0.5538 6.2936-0.0506 0.0279-0.79271 0.0279-0.7927h-2.1216v-3.4552l0.37585-0.19175c0.61978-0.31619 1.7708-0.75158 2.4228-0.9165 0.33681-0.0852 0.68246-0.17537 0.7681-0.2004 0.13464-0.0394 0.14495 0.0101 0.0762 0.36538-0.13259 0.68562-0.0976 2.5672 0.0601 3.2365 0.31231 1.325 1.0889 2.3056 2.144 2.7074 0.62994 0.23986 1.8178 0.28529 2.5124 0.0961 0.66228-0.18039 1.397-0.71216 1.7708-1.2817 0.55294-0.8424 0.74788-1.5781 0.80139-3.0245l0.0471-1.2715 0.77672 0.40409c0.89466 0.46546 1.9824 1.251 2.7775 2.0058 0.53486 0.50779 0.55249 0.54051 0.55249 1.0254v0.50089h-2.1139v1.6334h3.9012l0.21007 0.43238 0.21006 0.43239-1.0797-2e-3c-0.74374-2e-3 -1.4161 0.065-2.1607 0.21405l-1.081 0.21632v0.79485c0 0.43717 0.0169 0.79485 0.0375 0.79485s0.45775-0.0865 0.97143-0.19217c0.51369-0.1057 0.97245-0.19217 1.0195-0.19217 0.048 0 0.0855 1.2613 0.0855 2.8793v2.8793l-2.0658 0.0546-0.0279 0.79095-0.0279 0.79096 4.5128 0.0516-0.16635 0.3769-0.16635 0.37691-1.1974 7e-3c-1.1069 7e-3 -1.2385 0.0276-1.7413 0.27453-1.3125 0.64454-2.0183 2.1066-2.0399 4.2255l-0.0105 1.0335-0.64233 0.33767c-0.56082 0.29483-2.5223 1.0064-2.7742 1.0064-0.055 0-0.0906-1.3394-0.0906-3.411v-3.411h-1.0464c-0.67328 0-1.3842 0.0692-1.9938 0.19415-1.4089 0.28871-1.2837 0.18523-1.2837 1.0614 0 0.56154 0.0329 0.76221 0.12497 0.76221 0.0687 0 0.51193-0.0855 0.98488-0.19009 0.47294-0.10455 0.89233-0.19103 0.93196-0.19217 0.0396-1e-3 0.0721 1.2302 0.0721 2.7364v2.7384l-0.84075-0.0131c-0.46241-7e-3 -0.94884-0.0302-1.081-0.0511z" fill="#c6e0ad"/><path d="m30.909 21.421c0.98836-0.4372 1.7376-1.4385 2.0418-2.7286 0.18257-0.77443 0.18513-2.5218 5e-3 -3.3721-0.28369-1.3388-1.0743-2.3571-2.1507-2.7702-0.76485-0.29355-2.0547-0.29167-2.8257 4e-3 -1.0771 0.41318-1.8355 1.426-2.1384 2.856-0.17789 0.83957-0.17851 2.3926-1e-3 3.2289 0.29524 1.3933 1.1769 2.4909 2.2949 2.857 0.78176 0.25597 2.1074 0.22012 2.7746-0.075z" fill="#c0c0c0"/><path d="m28.686 19.807c-0.39372-0.33129-0.57905-0.98887-0.64791-2.2988-0.0616-1.1712 0.0717-2.3822 0.31949-2.9045 0.22671-0.47776 0.64963-0.71968 1.1662-0.66709 0.82666 0.0842 1.1443 0.72961 1.2376 2.5146 0.0973 1.8608-0.20969 3.2265-0.78404 3.4882-0.43294 0.19726-0.96435 0.14277-1.2914-0.13241z" fill="#c6e0ad"/><path d="m39.275 21.495c1.6729-0.51671 2.5443-2.2469 2.4433-4.8513-0.0859-2.2166-0.87676-3.5837-2.3988-4.1468-0.63172-0.23371-2.0046-0.20633-2.6816 0.0535-1.071 0.41107-1.8335 1.3866-2.1555 2.758-0.22446 0.95602-0.14534 3.1242 0.1434 3.9295 0.45053 1.2564 1.2976 2.0896 2.385 2.3458 0.64728 0.1525 1.6048 0.11502 2.2641-0.0886z" fill="#c0c0c0"/><g fill="#c6e0ad"><path d="m37.409 19.91c-0.55629-0.30231-0.81055-1.4738-0.72845-3.3564 0.0625-1.4332 0.16365-1.8658 0.53269-2.2789 0.52678-0.58957 1.5154-0.4222 1.8656 0.31584 0.38412 0.80947 0.44958 3.3604 0.11513 4.4866-0.1895 0.63814-0.58566 0.9787-1.1324 0.97346-0.22054-2e-3 -0.51421-0.0654-0.65259-0.14058z"/><path d="m27.904 25.66c-0.81076-0.84732-1.1101-1.269-0.93913-1.3227 0.32146-0.101 1.5545-0.34135 1.5866-0.30926 0.0198 0.0198 0.0237 0.54298 9e-3 1.1627l-0.0272 1.1267-0.62909-0.65744z"/><path d="m45.354 25.531c0.0771-0.66807 0.34281-1.2865 0.63359-1.4747 0.3181-0.20586 0.71273-0.28727 0.89583-0.1848 0.13465 0.0754 0.0974 0.16571-0.27065 0.65725-0.23472 0.31343-0.62768 0.78607-0.87326 1.0503l-0.44649 0.48043 0.061-0.52847z"/><path d="m48.096 16.187 9e-3 -3.6753 0.28699 0.86477c0.56745 1.7098 0.76774 3.5456 0.56711 5.198-0.15748 1.297-0.1536 1.2878-0.54291 1.2878h-0.32983l9e-3 -3.6753z"/><path d="m37.554 10.063c-0.28705-0.11598-0.59357-0.53639-0.72863-0.99934-0.1313-0.45005-0.16707-3.178-0.049-3.7348 0.0711-0.33529 0.10038-0.36032 0.42149-0.36032 0.68951 0 2.0406 0.22566 2.0879 0.3487 0.0259 0.0676 0.0759 0.54649 0.11097 1.0642 0.0733 1.0813-0.081 2.5913-0.31513 3.0848-0.26899 0.56685-0.94655 0.83156-1.5276 0.59679z"/><path d="m27.031 9.7972c0.0498-0.0925 0.41684-0.51406 0.8156-0.93684l0.72504-0.76868 4e-3 0.93683 4e-3 0.93684h-0.8201c-0.7515 0-0.81253-0.0141-0.72954-0.16815z"/><path d="m30.868 47.933c-2.679-0.77406-4.8967-1.4343-4.9282-1.4672-0.059-0.0617 2.7097-9.881 2.8195-9.9992 0.0547-0.0589 9.5344 2.5958 9.9228 2.7789 0.1373 0.0647-8e-3 0.65019-1.1784 4.734-0.73428 2.5631-1.3794 4.8223-1.4335 5.0205-0.0542 0.19818-0.15083 0.35588-0.21485 0.35044-0.064-5e-3 -2.3083-0.6432-4.9874-1.4173z"/></g><path d="m37.421 49.107c0-0.11986 2.7546-9.7411 2.7983-9.7739 0.0997-0.0749 9.7167-2.7598 9.7535-2.723 0.0435 0.0435-2.6883 9.7481-2.7601 9.805-0.049 0.0388-9.2807 2.6732-9.5755 2.7325-0.1189 0.0239-0.21619 6e-3 -0.21619-0.0406z" fill="#a5d383"/><path d="m21.442 44.811c1.9005-1.9104 3.5941-3.6548 3.7637-3.8763 0.38223-0.49952 0.91352-1.6482 1.058-2.2876 0.0597-0.26424 0.11917-0.7909 0.13212-1.1704l0.0236-0.68994 0.41112-0.11603c0.22611-0.0638 0.42844-0.0987 0.44962-0.0775 0.0527 0.0527-2.7127 9.7109-2.8049 9.7957-0.0405 0.0373-1.517 0.47908-3.2812 0.98168l-3.2075 0.91382 3.4554-3.4735z" fill="#a5d383"/><path d="m40.071 37.938c-0.0196-0.0327-0.0797-0.22045-0.13356-0.41711l-0.0979-0.35756 0.35181-0.0595c3.0145-0.51001 6.2429-1.9254 8.7859-3.8517 0.36329-0.2752 0.56917-0.37858 0.59589-0.29922 0.12326 0.36614 0.61414 2.1355 0.59716 2.1525-0.0764 0.0764-10.071 2.8796-10.099 2.8326z" fill="#c6e0ad"/><path d="m6.1777 35.02c-0.11626-0.0943-2.6528-8.6968-2.8442-9.6459-0.0383-0.19002 0.33003-0.0993 4.8857 1.2029 4.7667 1.3626 4.9293 1.4167 4.9956 1.6646 0.0591 0.22112 0.0205 0.28971-0.28183 0.50033-0.1927 0.13425-1.7337 1.6288-3.4245 3.3211-1.6908 1.6924-3.0986 3.077-3.1284 3.077-0.0298 0-0.12091-0.0541-0.20236-0.12011z" fill="#a5d383"/><path d="m8.0186 25.174c-2.6688-0.76719-4.8602-1.4011-4.8697-1.4087-0.0334-0.0265 2.8285-9.9645 2.8862-10.022 0.0502-0.0502 9.942 2.7212 10.045 2.8142 0.0209 0.0189-0.60418 2.2837-1.389 5.0329-1.2958 4.539-1.445 4.9976-1.6234 4.9886-0.10802-5e-3 -2.38-0.63763-5.0487-1.4048z" fill="#c6e0ad"/><path d="m14.669 26.384c0.0273-0.0722 0.47612-1.6229 0.99727-3.4461l0.94755-3.315 0.12352 0.72064c0.21402 1.2486 0.59353 2.6718 1.0434 3.913 0.23915 0.65973 0.42128 1.2114 0.40474 1.2258-0.0165 0.0145-0.74349 0.22823-1.6155 0.47499-0.87198 0.24677-1.6676 0.47323-1.7681 0.50325-0.1282 0.0383-0.16785 0.0155-0.13295-0.0766z" fill="#a5d383"/><path d="m10.997 13.739c-2.6688-0.76771-4.8754-1.4317-4.9036-1.4755-0.0917-0.14236-2.8012-9.71-2.7612-9.75 0.0563-0.0563 9.6845 2.7068 9.7764 2.8056 0.10307 0.11082 2.8745 9.8384 2.7994 9.8257-0.0323-5e-3 -2.2422-0.63806-4.911-1.4058z" fill="#a5d383"/><path d="m15.82 9.8885c-0.53799-1.8864-1.0597-3.7143-1.1594-4.0622l-0.18123-0.63242 3.808-1.0857c2.0944-0.59713 3.8728-1.11 3.9521-1.1396 0.0793-0.0297-0.18308 0.3111-0.583 0.75725-2.1267 2.3725-3.521 4.9148-4.4028 8.0281-0.16438 0.58035-0.29888 1.1479-0.29888 1.2613 0 0.65763-0.25897-0.056-1.1348-3.1268z" fill="#c6e0ad"/><path d="m36.781 2.8438c-7.9454 0-14.375 6.4296-14.375 14.375 0 7.9454 6.4296 14.375 14.375 14.375s14.406-6.4296 14.406-14.375v-0.125c-0.07418-7.8923-6.5136-14.25-14.406-14.25zm0 2.125c6.7152 0 12.187 5.4101 12.25 12.125v0.125c0 6.7601-5.4899 12.25-12.25 12.25s-12.219-5.4899-12.219-12.25 5.4587-12.25 12.219-12.25z" fill="#fff"/></g></svg>
