<?xml version="1.0" encoding="UTF-8"?>
<svg width="32" height="32" version="1.1" viewBox="0 0 32 32" xml:space="preserve" xmlns="http://www.w3.org/2000/svg"><rect x=".4923" y=".4923" width="31.02" height="31.02" ry="4.258" fill="#643893" stroke="#371a4a" stroke-width=".9846"/><path d="m22.07 12.42q0.6982 0.5422 0.6982 1.426 0 0.8838-0.6982 1.426l-2.252 1.742q-0.2328 0.1675-0.5118 0.1472-0.2788-0.02025-0.4865-0.228-0.248-0.248-0.2152-0.575 0.03275-0.3268 0.296-0.5345l2.242-1.733q0.125-0.096 0.125-0.2402t-0.125-0.2405l-5.24-4.065q-0.07675-0.0675-0.1875-0.0675-0.1105 0-0.197 0.0675l-1.804 1.384q-0.2325 0.1672-0.5115 0.1472-0.2788-0.02025-0.4865-0.228-0.248-0.248-0.2152-0.575 0.0325-0.327 0.296-0.5345l1.804-1.4q0.5018-0.3865 1.11-0.3865t1.11 0.3865zm1.087 13.79-4.127-4.127-2.21 1.712q-0.5018 0.3865-1.11 0.3865t-1.11-0.3865l-6.318-4.914q-0.294-0.223-0.2912-0.5855 3e-3 -0.3625 0.2972-0.5952 0.2075-0.1518 0.4558-0.1518 0.248 0 0.4557 0.1518l6.317 4.888q0.0865 0.06725 0.1922 0.06725t0.1922-0.06725l2.033-1.584-1.74-1.71h0.7155l-0.0905 0.05975q-0.5018 0.3768-1.11 0.3845-0.6078 0.0078-1.1-0.3788l-5.289-4.11q-0.698-0.5325-0.6932-1.407 5e-3 -0.874 0.6932-1.406l0.03075-0.031-3.542-3.527q-0.223-0.2232-0.2355-0.53-0.0125-0.3065 0.22-0.5392 0.2328-0.2328 0.5348-0.2328t0.5345 0.2328l17.35 17.35q0.2078 0.2075 0.2125 0.522 0.0047 0.3145-0.2125 0.5318-0.2172 0.2172-0.527 0.2172-0.3095 0-0.5268-0.2172zm-7.444-12.38m7.434 3.867q0.2788 0.2328 0.274 0.5828-0.0047 0.35-0.2835 0.598l-0.8002 0.6348q-0.2325 0.1825-0.5115 0.1625-0.2788-0.02025-0.4865-0.228-0.248-0.248-0.223-0.5902t0.3038-0.55l0.8-0.6098q0.2078-0.1518 0.4635-0.1518t0.4635 0.1518z" fill="#fff" stroke-width=".025"/></svg>
