<?xml version="1.0" encoding="UTF-8"?>
<svg width="32" height="32" version="1.1" viewBox="0 0 32 32" xml:space="preserve" xmlns="http://www.w3.org/2000/svg"><rect x=".4923" y=".4923" width="31.02" height="31.02" ry="4.258" fill="#643893" stroke="#371a4a" stroke-width=".9846"/><path d="m24.37 26.24-4.392-4.386h0.925v0.048q0 0.525-0.374 0.899-0.374 0.3742-0.899 0.3742h-12.21q-0.6325 0-1.076-0.4432-0.4432-0.4435-0.4432-1.076v-0.704q0-0.773 0.399-1.38t1.066-0.9432q1.425-0.698 2.866-1.076 1.442-0.3778 3.168-0.3778 0.6175 0 1.132 0.0605 0.5145 0.06075 0.978 0.1625l-1.848-1.848q-0.06925 0.0095-0.131 0.0095h-0.1308q-1.448 0-2.474-1.026-1.026-1.026-1.026-2.474v-0.1308q0-0.0615 0.0095-0.1308l-4-4q-0.223-0.223-0.228-0.5298-0.0047-0.3068 0.228-0.5395 0.2328-0.2328 0.5345-0.2328 0.302 0 0.5348 0.2328l18.46 18.46q0.223 0.223 0.2278 0.522 0.0047 0.299-0.2278 0.5318-0.2328 0.2328-0.5348 0.2328t-0.5345-0.2328zm-3.318-8.819q1.006 0.15 1.91 0.4642 0.9038 0.3145 1.725 0.7432 0.775 0.4135 1.197 0.973 0.422 0.5598 0.422 1.227v2.317h-0.07675l-3.51-3.51q-0.196-0.6422-0.6142-1.212t-1.053-1.004zm-7.65 1.254q-1.496 0-2.804 0.3278-1.308 0.328-2.542 0.9645-0.3405 0.1828-0.4972 0.427t-0.1568 0.5575v0.7232h12v-0.3868l-1.829-1.829q-0.9595-0.3922-1.984-0.5885-1.025-0.196-2.187-0.196zm4.627-3.729q0.427-0.6325 0.65-1.365t0.223-1.521q0-0.9345-0.324-1.794-0.324-0.8595-0.9028-1.582 0.2152-0.077 0.4308-0.1 0.2152-0.02325 0.4308-0.02325 1.448 0 2.474 1.026 1.026 1.026 1.026 2.474 0 1.41-1.012 2.416-1.012 1.006-2.392 1.074zm-1.44-1.44-1.206-1.206q0.0098-0.06925 0.0145-0.1155 0.0047-0.046 0.0047-0.125 0-0.825-0.5875-1.412t-1.412-0.5875q-0.07875 0-0.125 5e-3 -0.046 0.0047-0.1152 0.01425l-1.206-1.206q0.3422-0.1518 0.6952-0.2325 0.3528-0.081 0.7508-0.081 1.448 0 2.474 1.026 1.026 1.026 1.026 2.474 0 0.3982-0.08075 0.751-0.08075 0.353-0.2328 0.6952z" fill="#fff" stroke-width=".025"/></svg>
