<?xml version="1.0" encoding="UTF-8"?>
<svg width="32" height="32" version="1.1" viewBox="0 0 32 32" xml:space="preserve" xmlns="http://www.w3.org/2000/svg"><rect x=".4923" y=".4923" width="31.02" height="31.02" ry="4.258" fill="#643893" stroke="#371a4a" stroke-width=".9846"/><g transform="matrix(.025 0 0 .025 4 28.002)" fill="#fff"><path d="m205.77-297.69q-15.37 0-25.76-10.4-10.39-10.39-10.39-25.76v-72.3h-33.46q-15.37 0-25.76-10.4-10.4-10.39-10.4-25.76v-75.38q0-15.37 10.4-25.76 10.39-10.4 25.76-10.4h33.46v-72.38q0-15.38 10.39-25.73t25.76-10.35h618.07q15.37 0 25.76 10.4 10.4 10.39 10.4 25.76v292.24q0 15.52-10.4 25.87-10.39 10.35-25.76 10.35zm23.46-60h570.77v-244.62h-570.77z"/></g></svg>
