<?xml version="1.0" encoding="UTF-8"?>
<svg width="32" height="32" version="1.1" viewBox="0 0 32 32" xml:space="preserve" xmlns="http://www.w3.org/2000/svg"><rect x=".4923" y=".4923" width="31.02" height="31.02" ry="4.258" fill="#643893" stroke="#371a4a" stroke-width=".9846"/><path d="m16 18.5q1.048 0 1.774-0.726t0.726-1.774-0.726-1.774-1.774-0.726-1.774 0.726-0.726 1.774 0.726 1.774 1.774 0.726zm0.0018 7q-1.971 0-3.705-0.748t-3.017-2.03q-1.283-1.282-2.031-3.016-0.7482-1.734-0.7482-3.704 0-1.971 0.748-3.705t2.03-3.017 3.016-2.031q1.734-0.7482 3.704-0.7482 1.971 0 3.705 0.748t3.017 2.03 2.031 3.016q0.7482 1.734 0.7482 3.704 0 1.971-0.748 3.705t-2.03 3.017-3.016 2.031q-1.734 0.7482-3.704 0.7482zm-0.0018-1.5q3.35 0 5.675-2.325t2.325-5.675-2.325-5.675-5.675-2.325-5.675 2.325-2.325 5.675 2.325 5.675 5.675 2.325z" fill="#fff" stroke-width=".025"/></svg>
