<?xml version="1.0" encoding="UTF-8"?>
<svg width="32" height="32" version="1.1" viewBox="0 0 32 32" xml:space="preserve" xmlns="http://www.w3.org/2000/svg"><rect x=".4923" y=".4923" width="31.02" height="31.02" ry="4.258" fill="#643893" stroke="#371a4a" stroke-width=".9846"/><path d="m18.417 24.256-5.4172-1.8942-4.2758 1.6542q-0.23 0.092-0.44475 0.058-0.2145-0.034-0.39525-0.14725t-0.2825-0.306q-0.10175-0.1925-0.10175-0.44175v-13.098q0-0.30375 0.15875-0.537 0.1585-0.2335 0.44525-0.33925l4.3038-1.4598q0.13675-0.05 0.28475-0.075t0.3075-0.025 0.3075 0.025 0.28475 0.075l5.4078 1.8942 4.2758-1.6542q0.23-0.092 0.44475-0.058 0.2145 0.034 0.39525 0.14725t0.2825 0.306q0.10175 0.1925 0.10175 0.44175v13.142q0 0.3045-0.173 0.53525-0.17325 0.23075-0.46925 0.3365l-4.275 1.4308q-0.1405 0.05-0.2845 0.07025t-0.299 0.02025-0.29825-0.025-0.28375-0.075zm-0.16725-1.6288v-11.7l-4.5-1.5733v11.7zm1.5 0 3.25-1.077v-11.85l-3.25 1.227zm-10.75-0.327 3.25-1.2462v-11.7l-3.25 1.0963zm10.75-11.373v11.7zm-7.5-1.5733v11.7z" fill="#fff" fill-opacity=".2" stroke-width=".025"/><path transform="matrix(.025 0 0 .025 3.7414 28)" d="m280-415.39q-26.65 0-45.63-18.98t-18.98-45.63 18.98-45.63 45.63-18.98 45.63 18.98 18.98 45.63-18.98 45.63-45.63 18.98zm0 155.39q-91.67 0-155.83-64.14-64.17-64.14-64.17-155.77t64.17-155.86q64.16-64.23 155.83-64.23 64.31 0 116.31 33.19 52 33.2 79.38 86.81h345q7.07 0 13.69 2.62 6.62 2.61 12.23 8.23l63.85 63.84q5.62 5.62 7.92 11.9 2.31 6.28 2.31 13.46t-2.31 13.41q-2.3 6.23-7.92 11.85l-105.84 105.46q-4.5 4.65-10.79 7.44t-12.52 3.4q-6.23 0.62-12.46-1.19t-11.85-6.04l-49.31-37.07-55.84 41.46q-4.62 3.61-9.85 5.23-5.23 1.61-10.85 1.61-5.61 0-11.15-1.8-5.54-1.81-10.15-5.04l-56.39-38.77h-77.77q-27.38 53.23-79.38 86.61-52 33.39-116.31 33.39zm0-60q57.54 0 99.65-34.77 42.12-34.77 54.97-85.23h137.69l57.61 39.85q-0.38 0-0.19 0.3 0.19 0.31 0.19-0.3l78.16-57.16 67.92 51.93v-0.2 0.2l74.62-74.62h-0.31 0.31l-40-40v-0.31 0.31h-376q-12.85-50.46-54.97-85.23-42.11-34.77-99.65-34.77-66 0-113 47t-47 113 47 113 113 47z" fill="#fff"/></svg>
