<?xml version="1.0" encoding="UTF-8"?>
<svg width="32" height="32" version="1.1" viewBox="0 0 32 32" xml:space="preserve" xmlns="http://www.w3.org/2000/svg"><rect x=".4923" y=".4923" width="31.02" height="31.02" ry="4.258" fill="#643893" stroke="#371a4a" stroke-width=".9846"/><path d="m16 7.7012c-0.1538 0-0.30025 0.035685-0.43945 0.10938-0.139 0.07367-0.25496 0.1878-0.34766 0.3418l-8.5605 14.791c-0.0925 0.154-0.13475 0.3098-0.12695 0.4668 0.0078 0.157 0.050916 0.3028 0.12891 0.4375 0.07483 0.1357 0.17945 0.24327 0.31445 0.32617 0.135 0.08283 0.28753 0.125 0.45703 0.125h17.15c0.1695 0 0.32008-0.04217 0.45508-0.125s0.24151-0.19047 0.31641-0.32617c0.078-0.1347 0.12111-0.2805 0.12891-0.4375 0.0078-0.157-0.03636-0.3128-0.12891-0.4668l-8.5605-14.791c-0.092669-0.154-0.20866-0.2681-0.34766-0.3418-0.1392-0.07367-0.28555-0.10938-0.43945-0.10938zm0 1.9746 7.1895 12.383-3.7852-1.6816-0.40625 0.91406 3.3887 1.5059h-12.926l3.5293-1.5332-0.39844-0.91602-3.9492 1.7148 7.3574-12.387zm0.003906 9.1895-2.4941 1.084 0.39844 0.91797 2.0918-0.9082 2.084 0.92578 0.40625-0.91406-2.4863-1.1055z" fill="#fff" stroke-width=".025"/></svg>
