<?xml version="1.0" encoding="UTF-8"?>
<svg width="32" height="32" version="1.1" viewBox="0 0 32 32" xml:space="preserve" xmlns="http://www.w3.org/2000/svg"><rect x=".4923" y=".4923" width="31.02" height="31.02" ry="4.258" fill="#643893" stroke="#371a4a" stroke-width=".9846"/><path d="m11.791 21.425q0.50475 0 0.85825-0.35325 0.35325-0.3535 0.35325-0.85825t-0.35325-0.85825q-0.3535-0.35325-0.85825-0.35325t-0.85825 0.35325q-0.35325 0.3535-0.35325 0.85825t0.35325 0.85825q0.3535 0.35325 0.85825 0.35325zm0-8.423q0.50475 0 0.85825-0.35325 0.35325-0.3535 0.35325-0.85825t-0.35325-0.85825q-0.3535-0.35325-0.85825-0.35325t-0.85825 0.35325q-0.35325 0.3535-0.35325 0.85825t0.35325 0.85825q0.3535 0.35325 0.85825 0.35325zm4.2115 4.2115q0.50475 0 0.85825-0.35325 0.35325-0.3535 0.35325-0.85825t-0.35325-0.85825q-0.3535-0.35325-0.85825-0.35325t-0.85825 0.35325q-0.35325 0.3535-0.35325 0.85825t0.35325 0.85825q0.3535 0.35325 0.85825 0.35325zm4.2115 4.2115q0.50475 0 0.85825-0.35325 0.35325-0.3535 0.35325-0.85825t-0.35325-0.85825q-0.3535-0.35325-0.85825-0.35325t-0.85825 0.35325q-0.35325 0.3535-0.35325 0.85825t0.35325 0.85825q0.3535 0.35325 0.85825 0.35325zm0-8.423q0.50475 0 0.85825-0.35325 0.35325-0.3535 0.35325-0.85825t-0.35325-0.85825q-0.3535-0.35325-0.85825-0.35325t-0.85825 0.35325q-0.35325 0.3535-0.35325 0.85825t0.35325 0.85825q0.3535 0.35325 0.85825 0.35325zm-10.904 11.5q-0.75775 0-1.2828-0.525t-0.525-1.2828v-13.384q0-0.75775 0.525-1.2828t1.2828-0.525h13.384q0.75775 0 1.2828 0.525t0.525 1.2828v13.384q0 0.75775-0.525 1.2828t-1.2828 0.525zm0-1.5h13.384q0.1155 0 0.2115-0.09625 0.09625-0.096 0.09625-0.2115v-13.384q0-0.1155-0.09625-0.2115-0.096-0.09625-0.2115-0.09625h-13.384q-0.1155 0-0.2115 0.09625-0.09625 0.096-0.09625 0.2115v13.384q0 0.1155 0.09625 0.2115 0.096 0.09625 0.2115 0.09625zm-0.30775-14v14z" fill="#fff" stroke-width=".025"/></svg>
