<?xml version="1.0" encoding="UTF-8"?>
<svg width="32" height="32" version="1.1" viewBox="0 0 32 32" xml:space="preserve" xmlns="http://www.w3.org/2000/svg"><rect x=".4923" y=".4923" width="31.02" height="31.02" ry="4.258" fill="#643893" stroke="#371a4a" stroke-width=".9846"/><path d="m7.3101 26.5c-0.50517 0-0.93275-0.175-1.2828-0.525s-0.525-0.77758-0.525-1.2828v-2.0578c0-0.2125 0.071917-0.39058 0.21575-0.53425 0.14383-0.14383 0.322-0.21575 0.5345-0.21575 0.21267 0 0.39075 0.07192 0.53425 0.21575 0.14367 0.14367 0.2155 0.32175 0.2155 0.53425v2.0578c0 0.08983 0.028833 0.16358 0.0865 0.22125 0.057667 0.057667 0.13142 0.0865 0.22125 0.0865h2.0578c0.2125 0 0.39058 0.07192 0.53425 0.21575 0.14383 0.14383 0.21575 0.322 0.21575 0.5345 0 0.21267-0.07192 0.39075-0.21575 0.53425-0.14367 0.14367-0.32175 0.2155-0.53425 0.2155zm17.384 0h-2.0578c-0.2125 0-0.39058-0.07192-0.53425-0.21575-0.14383-0.14383-0.21575-0.322-0.21575-0.5345 0-0.21267 0.07192-0.39075 0.21575-0.53425 0.14367-0.14367 0.32175-0.2155 0.53425-0.2155h2.0578c0.08983 0 0.16358-0.02883 0.22125-0.0865 0.05767-0.05767 0.0865-0.13142 0.0865-0.22125v-2.0578c0-0.2125 0.07192-0.39058 0.21575-0.53425 0.14383-0.14383 0.322-0.21575 0.5345-0.21575 0.21267 0 0.39075 0.07192 0.53425 0.21575 0.14367 0.14367 0.2155 0.32175 0.2155 0.53425v2.0578c0 0.50517-0.175 0.93275-0.525 1.2828s-0.77758 0.525-1.2828 0.525zm1.8078-19.192v2.0578c0 0.2125-0.07192 0.39058-0.21575 0.53425-0.14383 0.14383-0.322 0.21575-0.5345 0.21575-0.21267 0-0.39075-0.07192-0.53425-0.21575-0.14367-0.14367-0.2155-0.32175-0.2155-0.53425v-2.0578c0-0.089833-0.02883-0.16358-0.0865-0.22125-0.057667-0.057667-0.13142-0.0865-0.22125-0.0865h-2.0578c-0.2125 0-0.39058-0.071917-0.53425-0.21575-0.14383-0.14383-0.21575-0.322-0.21575-0.5345 0-0.21267 0.071917-0.39075 0.21575-0.53425 0.14367-0.14367 0.32175-0.2155 0.53425-0.2155h2.0578c0.50517 0 0.93275 0.175 1.2828 0.525s0.525 0.77758 0.525 1.2828zm-19.192-1.8078h2.0578c0.2125 0 0.39058 0.071917 0.53425 0.21575 0.14383 0.14383 0.21575 0.322 0.21575 0.5345 0 0.21267-0.07192 0.39075-0.21575 0.53425-0.14367 0.14367-0.32175 0.2155-0.53425 0.2155h-2.0578c-0.089833 0-0.16358 0.028833-0.22125 0.0865-0.057667 0.057667-0.0865 0.13142-0.0865 0.22125v2.0578c0 0.2125-0.071917 0.39058-0.21575 0.53425-0.14383 0.14383-0.322 0.21575-0.5345 0.21575-0.21267 0-0.39075-0.07192-0.53425-0.21575-0.14367-0.14367-0.2155-0.32175-0.2155-0.53425v-2.0578c0-0.50517 0.175-0.93275 0.525-1.2828s0.77758-0.525 1.2828-0.525z" fill="#fff" stroke-width=".025"/></svg>
