<?xml version="1.0" encoding="UTF-8"?>
<svg width="32" height="32" version="1.1" viewBox="0 0 32 32" xml:space="preserve" xmlns="http://www.w3.org/2000/svg"><rect x=".4923" y=".4923" width="31.02" height="31.02" ry="4.258" fill="#643893" stroke="#371a4a" stroke-width=".9846"/><path d="m10.054 23.002h2.1962q0.31875 0 0.5345 0.21575 0.2155 0.21575 0.2155 0.5345 0 0.319-0.2155 0.53425-0.21575 0.2155-0.5345 0.2155h-3.846q-0.38425 0-0.644-0.26-0.26-0.25975-0.26-0.644v-3.846q0-0.31875 0.21575-0.5345 0.21575-0.2155 0.5345-0.2155 0.319 0 0.53425 0.2155 0.2155 0.21575 0.2155 0.5345v2.1962l2.823-2.8232q0.20775-0.2075 0.52225-0.2125 0.3145-0.0048 0.53175 0.2125 0.21725 0.21725 0.21725 0.527 0 0.3095-0.21725 0.527zm12.946-12.946-2.823 2.8232q-0.20775 0.2075-0.52225 0.2125-0.3145 0.0048-0.53175-0.2125-0.21725-0.21725-0.21725-0.527 0-0.3095 0.21725-0.527l2.8232-2.823h-2.1962q-0.31875 0-0.5345-0.21575-0.2155-0.21575-0.2155-0.5345 0-0.319 0.2155-0.53425 0.21575-0.2155 0.5345-0.2155h3.846q0.38425 0 0.644 0.26 0.26 0.25975 0.26 0.644v3.846q0 0.31875-0.21575 0.5345-0.21575 0.2155-0.5345 0.2155-0.319 0-0.53425-0.2155-0.2155-0.21575-0.2155-0.5345z" fill="#fff" stroke-width=".025"/></svg>
