<?xml version="1.0" encoding="UTF-8"?>
<svg width="32" height="32" version="1.1" viewBox="0 0 32 32" xml:space="preserve" xmlns="http://www.w3.org/2000/svg"><rect x=".4923" y=".4923" width="31.02" height="31.02" ry="4.258" fill="#643893" stroke="#371a4a" stroke-width=".9846"/><g transform="matrix(.025 0 0 .025 4.0023 28.002)" fill="#fff"><path d="m480-250q95.83 0 162.92-67.08 67.08-67.09 67.08-162.92 0-81.23-50.12-143.58-50.11-62.34-128.96-80.5-16.46-2-28.69 8.66-12.23 10.65-12.23 27.11v192.16l-135.69 135.69q-12.23 12.23-10.85 28.5 1.39 16.27 14.62 26.11 26.69 19.16 58.13 27.5 31.45 8.35 63.79 8.35zm0.07 150q-78.84 0-148.21-29.92t-120.68-81.21-81.25-120.63q-29.93-69.34-29.93-148.17 0-78.84 29.92-148.21t81.21-120.68 120.63-81.25q69.34-29.93 148.17-29.93 78.84 0 148.21 29.92t120.68 81.21 81.25 120.63q29.93 69.34 29.93 148.17 0 78.84-29.92 148.21t-81.21 120.68-120.63 81.25q-69.34 29.93-148.17 29.93zm-0.07-60q134 0 227-93t93-227-93-227-227-93-227 93-93 227 93 227 227 93z"/></g></svg>
