<?xml version="1.0" encoding="UTF-8"?>
<svg width="32" height="32" version="1.1" viewBox="0 0 32 32" xml:space="preserve" xmlns="http://www.w3.org/2000/svg"><rect x=".4923" y=".4923" width="31.02" height="31.02" ry="4.258" fill="#643893" stroke="#371a4a" stroke-width=".9846"/><g transform="matrix(.025 0 0 .025 4 28.002)" fill="#fff"><path d="m402.31-210q-12.75 0-21.38-8.63-8.62-8.63-8.62-21.38 0-12.76 8.62-21.37 8.63-8.62 21.38-8.62h387.69q12.75 0 21.37 8.63 8.63 8.63 8.63 21.38 0 12.76-8.63 21.37-8.62 8.62-21.37 8.62zm0-240q-12.75 0-21.38-8.63-8.62-8.63-8.62-21.38 0-12.76 8.62-21.37 8.63-8.62 21.38-8.62h387.69q12.75 0 21.37 8.63 8.63 8.63 8.63 21.38 0 12.76-8.63 21.37-8.62 8.62-21.37 8.62zm0-240q-12.75 0-21.38-8.63-8.62-8.63-8.62-21.38 0-12.76 8.62-21.37 8.63-8.62 21.38-8.62h387.69q12.75 0 21.37 8.63 8.63 8.63 8.63 21.38 0 12.76-8.63 21.37-8.62 8.62-21.37 8.62zm-195.77 516.54q-27.45 0-46.99-19.55-19.55-19.54-19.55-46.99t19.55-46.99q19.54-19.55 46.99-19.55t46.99 19.55q19.55 19.54 19.55 46.99t-19.55 46.99q-19.54 19.55-46.99 19.55zm0-240q-27.45 0-46.99-19.55-19.55-19.54-19.55-46.99t19.55-46.99q19.54-19.55 46.99-19.55t46.99 19.55q19.55 19.54 19.55 46.99t-19.55 46.99q-19.54 19.55-46.99 19.55zm0-240q-27.45 0-46.99-19.55-19.55-19.54-19.55-46.99t19.55-46.99q19.54-19.55 46.99-19.55t46.99 19.55q19.55 19.54 19.55 46.99t-19.55 46.99q-19.54 19.55-46.99 19.55z"/></g></svg>
