<?xml version="1.0" encoding="UTF-8"?>
<svg width="32" height="32" version="1.1" viewBox="0 0 32 32" xml:space="preserve" xmlns="http://www.w3.org/2000/svg"><rect x=".4923" y=".4923" width="31.02" height="31.02" ry="4.258" fill="#643893" stroke="#371a4a" stroke-width=".9846"/><path d="m16.348 17.695q-1.125 0-1.9125-0.7875t-0.7875-1.9125 0.7875-1.9125 1.9125-0.7875 1.9125 0.7875 0.7875 1.9125-0.7875 1.9125-1.9125 0.7875zm0 4.3q-3.1675 0-5.9212-1.6798-2.7538-1.68-4.1518-4.5312-0.098-0.187-0.14325-0.38025t-0.04525-0.40875 0.04525-0.40875 0.14325-0.38025q1.398-2.8512 4.1518-4.5312 2.7538-1.6798 5.9212-1.6798 2.9078 0 5.3885 1.3578t4.0538 3.7288q0.18275 0.2635 0.104 0.575-0.079 0.3115-0.35775 0.4635-0.279 0.152-0.5875 0.0635-0.30875-0.0885-0.49125-0.352-1.3655-2.0365-3.4988-3.1865-2.133-1.15-4.611-1.15-2.825 0-5.1875 1.4875-2.3625 1.4875-3.6125 4.0125 1.25 2.525 3.6125 4.0125 2.3625 1.4875 5.1875 1.4875 0.2885 0 0.57375-0.01725t0.5705-0.052q0.29425-0.04025 0.522 0.15975 0.228 0.19975 0.228 0.49825 0 0.31675-0.2155 0.55925-0.21525 0.24225-0.5345 0.28275-0.286 0.0345-0.57225 0.052-0.286 0.01725-0.572 0.01725zm0-2.923q0.5365 0 1.0365-0.13475 0.5-0.1345 0.93075-0.37875 0.154-1.0385 0.701-1.875t1.3895-1.3788q0.0095-0.079 0.01425-0.155 5e-3 -0.076 5e-3 -0.15475 0-1.6988-1.1898-2.8878-1.1898-1.1892-2.8895-1.1892t-2.8872 1.1898-1.1875 2.8895 1.1892 2.8872q1.189 1.1875 2.8878 1.1875zm-0.125-4.077m4.923 9.0095q-0.384 0-0.644-0.25975-0.25975-0.26-0.25975-0.644v-2.8558q0-0.3865 0.27775-0.6405 0.278-0.25375 0.67425-0.25375v-1q0-0.7655 0.5455-1.3105 0.5455-0.54525 1.3115-0.54525t1.3052 0.54525q0.5395 0.545 0.5395 1.3105v1q0.39625 0 0.674 0.25375 0.278 0.254 0.278 0.6405v2.8558q0 0.384-0.26 0.644-0.25975 0.25975-0.644 0.25975zm0.93275-4.6538h1.9328v-1q0-0.425-0.26825-0.698-0.26825-0.27325-0.69325-0.27325t-0.69825 0.27325q-0.273 0.273-0.273 0.698z" fill="#fff" stroke-width=".025"/></svg>
