<?xml version="1.0" encoding="UTF-8"?>
<svg width="32" height="32" version="1.1" viewBox="0 0 32 32" xml:space="preserve" xmlns="http://www.w3.org/2000/svg"><rect x=".4923" y=".4923" width="31.02" height="31.02" ry="4.258" fill="#643893" stroke="#371a4a" stroke-width=".9846"/><path transform="matrix(.025 0 0 .025 3.9952 28.005)" d="m306.54-527.31q-52.42 0-89.48-37.06-37.06-37.05-37.06-89.48 0-52.42 37.06-89.48 37.06-37.05 89.48-37.05t89.48 37.05q37.06 37.06 37.06 89.48 0 52.43-37.06 89.48-37.06 37.06-89.48 37.06zm-0.02-60q27.71 0 47.13-19.4 19.43-19.4 19.43-47.11 0-27.72-19.4-47.14t-47.12-19.42q-27.71 0-47.14 19.4-19.42 19.4-19.42 47.11 0 27.72 19.4 47.14t47.12 19.42zm347.33 407.31q-52.43 0-89.48-37.06-37.06-37.06-37.06-89.48t37.06-89.48q37.05-37.06 89.48-37.06 52.42 0 89.48 37.06 37.05 37.06 37.05 89.48t-37.05 89.48q-37.06 37.06-89.48 37.06zm-0.03-60q27.72 0 47.14-19.4t19.42-47.12q0-27.71-19.4-47.13-19.4-19.43-47.11-19.43-27.72 0-47.14 19.4t-19.42 47.12q0 27.71 19.4 47.14 19.4 19.42 47.11 19.42zm-448.9 35.08q-8.3-8.31-8.3-20.95t8.3-20.82l509.16-509.15q8.3-8.31 20.69-8.12 12.38 0.19 20.69 8.5t8.31 20.95-8.31 20.82l-509.15 509.15q-8.31 8.31-20.69 8.12-12.39-0.2-20.7-8.5z" fill="#fff"/></svg>
