<?xml version="1.0" encoding="UTF-8"?>
<svg width="32" height="32" version="1.1" viewBox="0 0 32 32" xml:space="preserve" xmlns="http://www.w3.org/2000/svg"><rect x=".4923" y=".4923" width="31.02" height="31.02" ry="4.258" fill="#643893" stroke="#371a4a" stroke-width=".9846"/><path transform="matrix(.025 0 0 .025 4 28.002)" d="m172.31-260q-30.31 0-51.31-21t-21-51.44v-295.12q0-30.44 21-51.44t51.31-21h615.38q30.31 0 51.31 21t21 51.44v295.12q0 30.44-21 51.44t-51.31 21zm0-60h615.38q4.62 0 8.46-3.85 3.85-3.84 3.85-8.46v-295.38q0-4.62-3.85-8.46-3.84-3.85-8.46-3.85h-117.69v114.61q0 12.75-8.63 21.38-8.63 8.62-21.38 8.62-12.76 0-21.37-8.62-8.62-8.63-8.62-21.38v-114.61h-100v114.61q0 12.75-8.63 21.38-8.63 8.62-21.38 8.62-12.76 0-21.37-8.62-8.62-8.63-8.62-21.38v-114.61h-100v114.61q0 12.75-8.63 21.38-8.63 8.62-21.38 8.62-12.76 0-21.37-8.62-8.62-8.63-8.62-21.38v-114.61h-117.69q-4.62 0-8.46 3.85-3.85 3.84-3.85 8.46v295.38q0 4.62 3.85 8.46 3.84 3.85 8.46 3.85z" fill="#fff"/></svg>
