<?xml version="1.0" encoding="UTF-8"?>
<svg width="32" height="32" version="1.1" viewBox="0 0 32 32" xml:space="preserve" xmlns="http://www.w3.org/2000/svg"><rect x=".4923" y=".4923" width="31.02" height="31.02" ry="4.258" fill="#643893" stroke="#371a4a" stroke-width=".9846"/><path d="m19.288 19.183q-0.35975 0-0.603-0.24325-0.24325-0.2435-0.24325-0.603v-4q0-0.3595 0.24325-0.603 0.24325-0.24325 0.603-0.24325h2.5q0.3595 0 0.60275 0.24325 0.24325 0.2435 0.24325 0.603v4q0 0.3595-0.24325 0.603-0.24325 0.24325-0.60275 0.24325zm0.346-1.1925h1.8078v-3.3075h-1.8078zm-9.0768 0h2.4038q0.2585 0 0.42725 0.169 0.169 0.16875 0.169 0.42675 0 0.25825-0.169 0.4275-0.16875 0.16925-0.42725 0.16925h-2.75q-0.3595 0-0.60275-0.24325-0.24325-0.2435-0.24325-0.603v-1.5578q0-0.35775 0.26325-0.621 0.2635-0.2635 0.62125-0.2635h2.1155v-1.2115h-2.404q-0.25825 0-0.42725-0.169-0.16875-0.16875-0.16875-0.42675 0-0.25825 0.16875-0.4275 0.169-0.16925 0.42725-0.16925h2.75q0.35975 0 0.603 0.24325 0.24325 0.2435 0.24325 0.603v1.5578q0 0.35775-0.2635 0.621-0.2635 0.2635-0.62125 0.2635h-2.1152zm-2.2692 5.7405q-0.75775 0-1.2828-0.525t-0.525-1.2828v-11.115q0-0.75775 0.525-1.2828t1.2828-0.525h2.9615v-1.25q0-0.31875 0.21575-0.53425 0.21575-0.21575 0.5345-0.21575 0.319 0 0.53425 0.21575 0.2155 0.2155 0.2155 0.53425v1.25h6.5v-1.25q0-0.31875 0.21575-0.53425 0.21575-0.21575 0.5345-0.21575 0.319 0 0.53425 0.21575 0.2155 0.2155 0.2155 0.53425v1.25h2.9615q0.75775 0 1.2828 0.525t0.525 1.2828v11.115q0 0.75775-0.525 1.2828t-1.2828 0.525zm0-1.5h7.1152v-0.7885q0-0.25825 0.169-0.42725 0.16875-0.169 0.42675-0.169 0.25825 0 0.4275 0.169t0.16925 0.42725v0.7885h7.1152q0.1155 0 0.2115-0.09625 0.09625-0.096 0.09625-0.2115v-11.115q0-0.1155-0.09625-0.2115-0.096-0.09625-0.2115-0.09625h-7.1152v0.7885q0 0.25825-0.169 0.42725-0.16875 0.16875-0.42675 0.16875-0.25825 0-0.4275-0.16875-0.16925-0.169-0.16925-0.42725v-0.7885h-7.1152q-0.1155 0-0.2115 0.09625-0.09625 0.096-0.09625 0.2115v11.115q0 0.1155 0.09625 0.2115 0.096 0.09625 0.2115 0.09625zm-0.30775 0v-11.731zm8.0198-6.9615q-0.25825 0-0.4275-0.16875t-0.16925-0.427 0.169-0.42725q0.16875-0.16925 0.42675-0.16925 0.25825 0 0.4275 0.16875t0.16925 0.42675q0 0.25825-0.169 0.4275-0.16875 0.16925-0.42675 0.16925zm0 3.3845q-0.25825 0-0.4275-0.16875t-0.16925-0.427q0-0.258 0.169-0.42725 0.16875-0.16925 0.42675-0.16925 0.25825 0 0.4275 0.16875t0.16925 0.427q0 0.258-0.169 0.42725-0.16875 0.16925-0.42675 0.16925z" fill="#fff" stroke-width=".025"/></svg>
