<?xml version="1.0" encoding="UTF-8"?>
<svg width="32" height="32" version="1.1" viewBox="0 0 32 32" xml:space="preserve" xmlns="http://www.w3.org/2000/svg"><rect x=".4923" y=".4923" width="31.02" height="31.02" ry="4.258" fill="#643893" stroke="#371a4a" stroke-width=".9846"/><path d="m16 7.702c-0.1538 0-0.3003 0.03571-0.4395 0.1094-0.139 0.07367-0.255 0.1878-0.3477 0.3418l-8.561 14.79c-0.0925 0.154-0.1348 0.3098-0.127 0.4668s0.05091 0.3028 0.1289 0.4375c0.07483 0.1357 0.1795 0.2433 0.3145 0.3262 0.135 0.08283 0.2875 0.125 0.457 0.125h17.15c0.1695 0 0.322-0.04217 0.457-0.125s0.2396-0.1905 0.3145-0.3262c0.078-0.1347 0.1211-0.2805 0.1289-0.4375s-0.03445-0.3128-0.127-0.4668l-8.561-14.79c-0.09267-0.154-0.2087-0.2681-0.3477-0.3418-0.1392-0.07367-0.2856-0.1094-0.4395-0.1094zm-0.5 2.957v4.912l-5.793 5.062zm1 0 5.961 10.26-5.961-5.346zm-1 6.24v2.512l-5.484 2.279zm1 0.01953 5.404 4.848-5.404-2.35zm-0.5039 3.369 5.771 2.51h-11.81z" fill="#fff" stroke-width=".025"/></svg>
