<?xml version="1.0" encoding="UTF-8"?>
<svg width="32" height="32" version="1.1" viewBox="0 0 32 32" xml:space="preserve" xmlns="http://www.w3.org/2000/svg"><rect x=".4923" y=".4923" width="31.02" height="31.02" ry="4.258" fill="#643893" stroke="#371a4a" stroke-width=".9846"/><polygon transform="matrix(.19333 0 0 .19333 2.54 .23096)" points="98.581 105.15 119.94 117.48 124.96 114.58 124.96 51.93 98.581 67.16" fill="#191b28"/><polygon transform="matrix(.17804 0 0 .17804 4.0465 1.5474)" points="35.752 96.307 35.752 58.133 13.66 45.377 9.374 47.852 9.374 111.54" fill="#191b28"/><path d="m15.999 3.0977-11.173 6.4562 0.0024339 12.905 11.178 6.4479 11.172-6.4524v-12.903zm0.0059 1.029 3.1457 1.8159-0.95073 0.54909c-0.13886 0.079764-0.22428 0.22802-0.22428 0.38808v12.073c0 0.15988 0.08542 0.30779 0.2243 0.38773l2.5013 1.4445v4.3927l-4.6966 2.7114-2.9579-1.7078 0.82068-0.47397c0.13852-0.0803 0.22429-0.22819 0.22429-0.38843v-12.073c0-0.16006-0.08577-0.30814-0.22429-0.38808l-2.559-1.4776v-4.5005c0-0.013532-0.0016-0.026815-0.0029-0.039991zm4.0418 2.3337 5.9805 3.4524-5.1017 2.9454c-0.13852 0.08012-0.22395 0.22802-0.22395 0.38808v6.5042l-1.8295-1.0561h-3.58e-4v-11.556zm-9.6349 0.89509v3.5073l-3.0372-1.7537zm-3.9337 2.2711 3.9337 2.2711v6.7966l-4.6966 2.7117v-11.339zm19.816 1.1667v11.155l-0.893 0.5157-3.8036-2.196v-6.7633zm-14.986 1.6219 1.8869 1.0898v11.556l-1.045 0.60334-6.009-3.4687 4.9428-2.8539c0.13852-0.07995 0.2243-0.22802 0.2243-0.38808zm10.29 8.8876 2.9071 1.6786-2.9071 1.6789z" fill="#fff" fill-rule="evenodd"/></svg>
