<?xml version="1.0" encoding="UTF-8" standalone="no"?>
<svg
   width="32"
   height="32"
   version="1.1"
   viewBox="0 0 32 32"
   xml:space="preserve"
   id="svg6"
   sodipodi:docname="user-location3.svg"
   inkscape:version="1.2.2 (b0a8486541, 2022-12-01)"
   xmlns:inkscape="http://www.inkscape.org/namespaces/inkscape"
   xmlns:sodipodi="http://sodipodi.sourceforge.net/DTD/sodipodi-0.dtd"
   xmlns="http://www.w3.org/2000/svg"
   xmlns:svg="http://www.w3.org/2000/svg"
   xmlns:rdf="http://www.w3.org/1999/02/22-rdf-syntax-ns#"
   xmlns:cc="http://creativecommons.org/ns#"
   xmlns:dc="http://purl.org/dc/elements/1.1/"><title
     id="title243">user-location.svg</title><defs
     id="defs10"><linearGradient
       id="linearGradient1758"
       inkscape:swatch="solid"><stop
         style="stop-color:#ffffff;stop-opacity:1;"
         offset="0"
         id="stop1756" /></linearGradient><inkscape:perspective
       sodipodi:type="inkscape:persp3d"
       inkscape:vp_x="0 : 16 : 1"
       inkscape:vp_y="0 : 1000 : 0"
       inkscape:vp_z="32 : 16 : 1"
       inkscape:persp3d-origin="16 : 10.666667 : 1"
       id="perspective1674" /></defs><sodipodi:namedview
     id="namedview8"
     pagecolor="#ffffff"
     bordercolor="#000000"
     borderopacity="0.25"
     inkscape:showpageshadow="2"
     inkscape:pageopacity="0.0"
     inkscape:pagecheckerboard="0"
     inkscape:deskcolor="#d1d1d1"
     showgrid="false"
     inkscape:zoom="21.67062"
     inkscape:cx="-2.6072166"
     inkscape:cy="22.311314"
     inkscape:window-width="2560"
     inkscape:window-height="1360"
     inkscape:window-x="1920"
     inkscape:window-y="48"
     inkscape:window-maximized="1"
     inkscape:current-layer="svg6" /><rect
     x=".4923"
     y=".4923"
     width="31.02"
     height="31.02"
     ry="4.258"
     fill="#643893"
     stroke="#371a4a"
     stroke-width=".9846"
     id="rect2" /><path
     d="m 16,25.5 q -2.534,0 -4.142,-0.727 -1.608,-0.7268 -1.608,-1.879 0,-0.4558 0.3088,-0.8558 0.3085,-0.4 0.8778,-0.7212 0.2635,-0.173 0.575,-0.1182 0.3115,0.0548 0.4848,0.3182 0.173,0.2635 0.1058,0.5702 -0.0672,0.3067 -0.3308,0.4798 -0.1635,0.05775 -0.3125,0.1442 -0.1492,0.0865 -0.178,0.173 0.248,0.4482 1.476,0.7818 1.228,0.3338 2.743,0.3338 1.515,0 2.743,-0.3338 1.228,-0.3335 1.476,-0.7818 -0.02875,-0.0865 -0.178,-0.173 -0.149,-0.0865 -0.3125,-0.1442 -0.2635,-0.173 -0.3308,-0.4798 -0.0673,-0.3068 0.1058,-0.5702 0.1732,-0.2635 0.4848,-0.3182 0.3116,-0.0547 0.575,0.1182 0.5692,0.3212 0.8778,0.7212 0.3088,0.4 0.3088,0.8558 0,1.152 -1.608,1.879 -1.608,0.727 -4.142,0.727 z"
     id="path4"
     style="display:none;fill:#ffffff;fill-opacity:1" /><path
     style="display:none;fill:#ffffff;fill-opacity:1;fill-rule:nonzero;stroke:none;stroke-width:0.236;stroke-dasharray:none"
     d="m 13.999417,11.535474 c 0.894352,-0.156818 1.940504,-0.01172 2.849386,-0.01172 0.376012,0 0.81692,-0.07148 1.13922,0.165188 0.357527,0.262564 0.321091,0.688783 0.321091,1.081382 v 2.493139 c 0,0.306158 0.08984,0.781599 -0.02643,1.066921 -0.179121,0.439505 -0.966049,-0.100437 -1.069588,0.464614 -0.07566,0.413042 -0.0081,0.89778 -0.0081,1.317767 v 2.671221 c 0,0.309077 0.160456,1.198309 -0.249464,1.274065 -0.566743,0.104711 -1.239519,0.0081 -1.816341,0.0081 -0.183751,0 -0.482758,0.05623 -0.625654,-0.08669 -0.232013,-0.231969 -0.08671,-1.060261 -0.08671,-1.373577 v -2.564372 c 0,-0.397513 0.0635,-0.855574 -0.0081,-1.246534 -0.09169,-0.500444 -0.700594,-0.135093 -0.981044,-0.347009 -0.219581,-0.165972 -0.114974,-0.725824 -0.114974,-0.970828 0,-1.054919 -0.12402,-2.194996 0.0066,-3.241081 0.04398,-0.352103 0.321412,-0.639455 0.670142,-0.700609 z"
     id="path2836" /><path
     style="fill:none;fill-opacity:1;fill-rule:nonzero;stroke:#ffffff;stroke-width:1.2;stroke-linecap:round;stroke-linejoin:round;stroke-dasharray:none;stroke-opacity:1;paint-order:normal"
     d="m 14.066134,17.375137 v 3.46585 c 0,0.46418 -0.115602,1.114673 0.0994,1.540378 0.120047,0.237743 0.341624,0.391781 0.600801,0.438832 0.356641,0.06477 0.758412,0.01627 1.120307,0.01627 0.42085,0 0.87888,0.05098 1.295355,-0.01059 0.242023,-0.03574 0.463038,-0.167377 0.596214,-0.374594 C 18.035076,22.05166 17.9172,21.39959 17.9172,20.94595 v -3.570876 c 0.399809,0 0.801439,-0.04881 0.996267,-0.455146 0.208939,-0.435717 0.08904,-1.10193 0.08904,-1.575352 V 13.45412 c 0,-0.369517 0.03974,-0.760911 -0.06113,-1.120276 -0.163844,-0.583627 -0.707369,-0.965046 -1.304249,-0.979715 -0.920684,-0.02261 -1.844762,-5.26e-4 -2.765761,-5.26e-4 -0.655729,0 -1.275644,0.01993 -1.67668,0.630156 -0.259667,0.395142 -0.213839,0.880956 -0.213839,1.330326 v 2.415592 c 0,0.384114 -0.08319,0.87574 0.106643,1.225161 0.204736,0.376867 0.595513,0.420243 0.978659,0.420243"
     id="path2829" /><path
     style="fill:none;fill-opacity:1;fill-rule:nonzero;stroke:#ffffff;stroke-width:1.2;stroke-dasharray:none;stroke-opacity:1"
     d="m 16.048068,6.365292 c -0.411781,-0.00477 -0.834935,0.1148354 -1.144632,0.3951595 -0.466323,0.3923319 -0.627222,1.0663486 -0.462679,1.6425789 0.151274,0.590744 0.639153,1.1015679 1.250801,1.2056164 0.715932,0.1362859 1.523379,-0.2411583 1.804816,-0.929526 C 17.833855,7.889296 17.471721,6.8540649 16.675959,6.4995235 16.479344,6.4104697 16.263564,6.3668321 16.048068,6.365292 Z"
     id="path865" /><path
     style="fill:none;fill-opacity:1;fill-rule:nonzero;stroke:#ffffff;stroke-width:1.2;stroke-linecap:round;stroke-dasharray:none;stroke-opacity:1;image-rendering:auto"
     id="path1752"
     sodipodi:type="arc"
     sodipodi:cx="16.001488"
     sodipodi:cy="23.266357"
     sodipodi:rx="6.7203326"
     sodipodi:ry="2.213439"
     sodipodi:start="5.5675665"
     sodipodi:end="3.8311163"
     sodipodi:arc-type="arc"
     d="m 21.073238,21.814154 a 6.7203326,2.213439 0 0 1 -0.389454,3.039965 6.7203326,2.213439 0 0 1 -9.237216,0.0397 6.7203326,2.213439 0 0 1 -0.630147,-3.035582"
     inkscape:label="path1752"
     sodipodi:open="true" /><metadata
     id="metadata241"><rdf:RDF><cc:Work
         rdf:about=""><dc:title>user-location.svg</dc:title><dc:date>21.12.2025</dc:date><dc:creator><cc:Agent><dc:title>Heistergand</dc:title></cc:Agent></dc:creator><dc:publisher><cc:Agent><dc:title>IITC-CE</dc:title></cc:Agent></dc:publisher><dc:rights><cc:Agent><dc:title>© IITC-CE, All rights reserved.</dc:title></cc:Agent></dc:rights><cc:license
           rdf:resource="http://creativecommons.org/publicdomain/zero/1.0/" /></cc:Work><cc:License
         rdf:about="http://creativecommons.org/publicdomain/zero/1.0/"><cc:permits
           rdf:resource="http://creativecommons.org/ns#Reproduction" /><cc:permits
           rdf:resource="http://creativecommons.org/ns#Distribution" /><cc:permits
           rdf:resource="http://creativecommons.org/ns#DerivativeWorks" /></cc:License></rdf:RDF></metadata></svg>
