<?xml version="1.0" encoding="UTF-8"?>
<svg width="32" height="32" version="1.1" viewBox="0 0 32 32" xml:space="preserve" xmlns="http://www.w3.org/2000/svg"><rect x=".4877" y=".4877" width="31.02" height="31.02" ry="4.258" fill="#643893" stroke="#371a4a" stroke-width=".9846"/><g transform="matrix(1.1053 0 0 1.1053 -1.6841 -1.6886)" fill="#fff"><path d="m16 6.5c-0.54531 0-1.094 0.10269-1.6484 0.30664-0.55498 0.20395-1.0573 0.50855-1.5039 0.91406-0.44644 0.40551-0.80957 0.90844-1.0918 1.5098-0.28223 0.60132-0.42383 1.3006-0.42383 2.0996 0 1.7185 0.77783 3.278 1.2969 4.3594 0.49317 1.0274 1.6171 3.1112 2.498 4.6289 0.15858 0.21703 0.35453 0.3587 0.48438 0.4043 0.12974 0.0456 0.25883 0.06907 0.38867 0.06836s0.26088-0.02276 0.39062-0.06836c0.12984-0.04558 0.31792-0.18724 0.49023-0.4043 0.89805-1.478 1.9893-3.5468 2.4902-4.6289 0.50732-1.0958 1.2762-2.8685 1.2969-4.3594 0.011086-0.79907-0.13964-1.4984-0.42188-2.0996-0.28223-0.60123-0.6473-1.1042-1.0938-1.5098-0.44668-0.40551-0.94707-0.71011-1.502-0.91406-0.55441-0.20395-1.1051-0.30664-1.6504-0.30664zm0 2.7715c0.4988 0 0.92414 0.17596 1.2773 0.5293 0.35333 0.35333 0.53125 0.78063 0.53125 1.2793 0 0.50533-0.17792 0.9332-0.53125 1.2832s-0.77868 0.52344-1.2773 0.52344c-0.49233 0-0.9171-0.17344-1.2734-0.52344-0.35653-0.35013-0.5332-0.778-0.5332-1.2832 0-0.4988 0.17667-0.9261 0.5332-1.2793 0.35633-0.35333 0.7811-0.5293 1.2734-0.5293z"/><path d="m16 25.5c0.49867 0 0.92467-0.175 1.278-0.525s0.53-0.77767 0.53-1.283c0-0.49867-0.17667-0.92467-0.53-1.278-0.3532-0.35333-0.7792-0.53-1.278-0.53-0.49233 0-0.91667 0.17667-1.273 0.53-0.35653 0.3532-0.5348 0.7792-0.5348 1.278 0 0.5052 0.17827 0.93287 0.5348 1.283 0.35633 0.35 0.78067 0.525 1.273 0.525z" stroke-width=".025"/></g></svg>
