<?xml version="1.0" encoding="UTF-8"?>
<svg width="32" height="32" version="1.1" viewBox="0 0 32 32" xml:space="preserve" xmlns="http://www.w3.org/2000/svg"><rect x=".4923" y=".4923" width="31.02" height="31.02" ry="4.258" fill="#643893" stroke="#371a4a" stroke-width=".9846"/><path transform="matrix(.025 0 0 .025 3.902 27.897)" d="m192.31-585.85-107.39 106.77q-7.11 6.64-16.59 7.05t-16.94-7.05q-7.47-7.46-7.47-16.77 0-9.3 7.47-16.76l106.77-107.39h-82.01q-10.33 0-17.09-6.75-6.75-6.75-6.75-17.08 0-10.32 6.75-17.09 6.76-6.77 17.09-6.77h127.7q15.36 0 25.76 10.39 10.39 10.4 10.39 25.76v127.69q0 10.34-6.75 17.09-6.75 6.76-17.08 6.76-10.32 0-17.09-6.76-6.77-6.75-6.77-17.09zm181.23-181.84h82.61q10.34 0 17.09 6.75 6.76 6.75 6.76 17.08 0 10.32-6.76 17.09-6.75 6.77-17.09 6.77h-127.69q-15.36 0-25.76-10.39-10.39-10.4-10.39-25.76v-127.7q0-10.33 6.75-17.09 6.75-6.75 17.08-6.75 10.32 0 17.09 6.75 6.77 6.76 6.77 17.09v82.62l106.77-107.38q7.08-7.08 16.58-7.27 9.5-0.2 16.96 7.27 7.46 7.46 7.46 17.07 0 9.62-7.46 17.08zm204.07 703.07q-22.07 0-41.96-8.23-19.88-8.23-35.73-24.07l-177.54-177.77q-10.07-9.7-9.24-23.9 0.84-14.21 10.86-23.95 12.54-12.15 29.04-16.11 16.5-3.97 32.88 0.5l88.69 23.23v-329.7q0-12.75 8.63-21.37t21.39-8.62q12.75 0 21.37 8.62 8.61 8.62 8.61 21.37v361.93q0 18.07-14.46 28.92-14.46 10.84-31.54 6.23l-75.23-20.69 129.31 128.92q6.54 6.54 15.8 10.62 9.25 4.07 19.12 4.07h157q37.62 0 63.81-26.19t26.19-63.81v-160q0-12.75 8.63-21.37 8.63-8.63 21.39-8.63 12.75 0 21.37 8.63 8.61 8.62 8.61 21.37v160q0 62.16-43.92 106.08t-106 43.92zm103.23-177.3m-59.67-282.7q12.75 0 21.37 8.63 8.61 8.62 8.61 21.37v130q0 12.75-8.63 21.38-8.63 8.62-21.38 8.62-12.76 0-21.37-8.62-8.62-8.63-8.62-21.38v-130q0-12.75 8.63-21.37 8.63-8.63 21.39-8.63zm116.92 40q12.75 0 21.37 8.63 8.61 8.62 8.61 21.37v90q0 12.75-8.62 21.38-8.63 8.62-21.39 8.62-12.75 0-21.37-8.62-8.61-8.63-8.61-21.38v-90q0-12.75 8.62-21.37 8.63-8.63 21.39-8.63z" fill="#fff"/></svg>
