<?xml version="1.0" encoding="UTF-8"?>
<svg width="32" height="32" version="1.1" viewBox="0 0 32 32" xml:space="preserve" xmlns="http://www.w3.org/2000/svg"><rect x=".4923" y=".4923" width="31.02" height="31.02" ry="4.258" fill="#643893" stroke="#371a4a" stroke-width=".9846"/><path d="m12.12 16q-0.3192 0-0.5348 0.2155-0.2152 0.2152-0.2152 0.5345v3.25q0 0.3192 0.2152 0.5345 0.2155 0.2155 0.5348 0.2155 0.319 0 0.5345-0.2155 0.2152-0.2152 0.2152-0.5345v-3.25q0-0.3192-0.2152-0.5345-0.2155-0.2155-0.5345-0.2155zm7.769-5q-0.319 0-0.5345 0.2155-0.2152 0.2152-0.2152 0.5345v8.25q0 0.3192 0.2152 0.5345 0.2155 0.2155 0.5345 0.2155 0.3192 0 0.5348-0.2155 0.2152-0.2152 0.2152-0.5345v-8.25q0-0.3192-0.2152-0.5345-0.2155-0.2155-0.5348-0.2155zm-3.884 7q-0.3192 0-0.5345 0.2155-0.2155 0.2152-0.2155 0.5345v1.25q0 0.3192 0.2155 0.5345 0.2152 0.2155 0.5345 0.2155t0.5345-0.2155q0.2155-0.2152 0.2155-0.5345v-1.25q0-0.3192-0.2155-0.5345-0.2152-0.2155-0.5345-0.2155zm-6.692 6.5q-0.7578 0-1.283-0.525t-0.525-1.283v-13.38q0-0.7578 0.525-1.283t1.283-0.525h13.38q0.7578 0 1.283 0.525t0.525 1.283v13.38q0 0.7578-0.525 1.283t-1.283 0.525zm0-1.5h13.38q0.1155 0 0.2115-0.09625 0.09625-0.096 0.09625-0.2115v-13.38q0-0.1155-0.09625-0.2115-0.096-0.09625-0.2115-0.09625h-13.38q-0.1155 0-0.2115 0.09625-0.09625 0.096-0.09625 0.2115v13.38q0 0.1155 0.09625 0.2115 0.096 0.09625 0.2115 0.09625zm-0.3078-14v14zm7 6.75q0.3192 0 0.5345-0.2155 0.2155-0.2152 0.2155-0.5345t-0.2155-0.5345q-0.2152-0.2155-0.5345-0.2155t-0.5345 0.2155q-0.2155 0.2152-0.2155 0.5345t0.2155 0.5345q0.2152 0.2155 0.5345 0.2155z" fill="#fff" stroke-width=".025"/></svg>
