<?xml version="1.0" encoding="UTF-8"?>
<svg width="32" height="32" version="1.1" viewBox="0 0 32 32" xml:space="preserve" xmlns="http://www.w3.org/2000/svg"><rect x=".4923" y=".4923" width="31.02" height="31.02" ry="4.258" fill="#eee" stroke="#5d5d5d" stroke-width=".9846"/><g transform="matrix(.51681 0 0 .51681 7.8342 4.084)"><path transform="translate(-121.26 -36.669)" d="m150.43 36.669h-26.737a2.431 2.431 0 0 0-2.43 2.431v16.4c2.1-1.6 4.725-3.829 9.462-2.66 4.083 1.007 4.973 4.154 11.43 7.729 3.953 2.189 7.662 0.5 10.705-1.268v-20.201a2.431 2.431 0 0 0-2.431-2.431" fill="#00973d"/><path transform="translate(-121.26 -109.84)" d="m144.24 141.05a7.677 7.677 0 0 1-3.386-1.283c-2.263-1.4-4.432-3.68-9.045-6.075-3.675-1.786-7.26-0.424-10.545 1.448v18.383a2.431 2.431 0 0 0 2.43 2.43h26.736a2.431 2.431 0 0 0 2.431-2.43v-14.986c-2.854 1.636-5.594 2.965-8.618 2.513" fill="#00509c"/><path transform="translate(-121.26 -87.023)" d="m142.16 110.92c-6.458-3.575-7.348-6.722-11.43-7.729-4.737-1.169-7.364 1.063-9.462 2.66v6.474c3.285-1.872 6.919-3.33 10.545-1.448 4.614 2.395 6.783 4.678 9.045 6.075a8.661 8.661 0 0 0 3.386 1.283c3.025 0.452 5.765-0.877 8.618-2.513l-7e-3 -2.925 7e-3 -3.145c-3.043 1.768-6.752 3.457-10.705 1.268" fill="#fff"/></g></svg>
