<?xml version="1.0" encoding="UTF-8"?>
<svg width="32" height="32" version="1.1" viewBox="0 0 32 32" xml:space="preserve" xmlns="http://www.w3.org/2000/svg"><g transform="matrix(.041172 0 0 .041172 -7.6106 12.268)"><rect x="196.81" y="-286.03" width="753.43" height="753.43" ry="103.42" fill="#eee" stroke="#371a4a" stroke-width="23.915"/><path d="m232.53-260.91-35.46 41.698 1.2521 377.69 293.69 0.8887 1.5139-445.39-205.27 4e-5z" fill="#c3f79b"/><path d="m569.66 221.17-1.4694 246.24h277.82c65.019 0 86.715-44.018 97.853-79.618l6.3719-167.91z" fill="#81e5fd"/><rect x="196.81" y="-286.03" width="753.43" height="753.43" ry="103.42" fill="none" stroke="#5d5d5d" stroke-width="23.915"/><path d="m509.52 222.55-16 84 50.667-65.333z" fill="#0a25be"/><path d="m820.19-174.79-365.43 364.02 38.761 117.31 16-84z" fill="#025df1"/><path d="m284.19 94.547 170.57 94.686 365.43-364.02-310.67 397.33 206.67 120 104-517.33z" fill="#0285fd"/></g></svg>
