<?xml version="1.0" encoding="UTF-8"?>
<svg width="32" height="32" version="1.1" viewBox="0 0 32 32" xml:space="preserve" xmlns="http://www.w3.org/2000/svg"><rect x=".4923" y=".4923" width="31.02" height="31.02" ry="4.258" fill="#eee" stroke="#5d5d5d" stroke-width=".9846"/><g transform="matrix(.027869 0 0 .027869 2.6229 29.377)" fill="#5d5d5d"><path d="m576.69-149.77-216.69-75.77-171.03 66.17q-9.2 3.68-17.79 2.32-8.58-1.36-15.81-5.89t-11.3-12.24q-4.07-7.7-4.07-17.67v-523.94q0-12.15 6.35-21.48 6.34-9.34 17.81-13.57l172.15-58.39q5.47-2 11.39-3t12.3-1 12.3 1 11.39 3l216.31 75.77 171.03-66.17q9.2-3.68 17.79-2.32 8.58 1.36 15.81 5.89t11.3 12.24q4.07 7.7 4.07 17.67v525.66q0 12.18-6.92 21.41-6.93 9.23-18.77 13.46l-171 57.23q-5.62 2-11.38 2.81t-11.96 0.81-11.93-1-11.35-3zm-6.69-65.15v-468l-180-62.93v468zm60 0 130-43.08v-474l-130 49.08zm-430-13.08 130-49.85v-468l-130 43.85zm430-454.92v468zm-300-62.93v468z" fill="#5d5d5d"/></g></svg>
