<?xml version="1.0" encoding="UTF-8"?>
<svg width="32" height="32" version="1.1" viewBox="0 0 32 32" xml:space="preserve" xmlns="http://www.w3.org/2000/svg"><defs><linearGradient id="B5r3ePYlwpc4tsqTZi2olc" x1="23.701" x2="41.063" y1="13.868" y2="34.421" gradientTransform="matrix(.50952 0 0 .50952 -.30698 2.6984)" gradientUnits="userSpaceOnUse"><stop stop-color="#34bffe" offset="0"/><stop stop-color="#52dbd8" offset="1"/></linearGradient><linearGradient id="B5r3ePYlwpc4tsqTZi2olb" x1="13.55" x2="43.04" y1="42.356" y2="27.547" gradientTransform="matrix(.50952 0 0 .50952 -.30698 2.6984)" gradientUnits="userSpaceOnUse"><stop stop-color="#55d3fd" offset="0"/><stop stop-color="#48b8f5" offset=".153"/><stop stop-color="#2f83e5" offset=".488"/><stop stop-color="#2062dc" offset=".74"/><stop stop-color="#1a55d8" offset=".877"/></linearGradient><linearGradient id="B5r3ePYlwpc4tsqTZi2ola" x1="13.696" x2="21.1" y1=".218" y2="49.494" gradientTransform="matrix(.50952 0 0 .50952 -.30698 2.6984)" gradientUnits="userSpaceOnUse"><stop stop-color="#3cbdf5" offset="0"/><stop stop-color="#1d49dd" offset="1"/></linearGradient></defs><rect x=".4923" y=".4923" width="31.02" height="31.02" ry="4.258" fill="#eee" stroke="#5d5d5d" stroke-width=".9846"/><g transform="translate(3.6927 .85564)" stroke-width=".50952"><path d="m10.903 25.117v-17.017c0-0.83154-0.40558-1.6106-1.0868-2.087l-2.4049-1.6835c-0.67563-0.47284-1.6035 0.01019-1.6035 0.8346v14.687c0 0.77193 0.25018 1.5225 0.71333 2.14l1.121 1.4944c0.76989 1.0267 1.978 1.631 3.2609 1.631z" fill="url(#B5r3ePYlwpc4tsqTZi2ola)"/><path d="m19.564 15.946-8.1524 5.0952c-0.17528 0.10955-0.34393 0.20483-0.50952 0.2945-3.077 1.66-4.5638-0.0026-4.9734-0.6048 0.11515 0.45246 0.30826 0.88351 0.59155 1.2616l1.121 1.4944c0.6634 0.88453 1.6529 1.4532 2.7351 1.5938 0.04687 0.0051 1.0802 0.03669 1.0802 0.03669 0.96911 0 1.9178-0.27616 2.7356-0.79638l4.3528-2.7703c1.9887-2.5991 1.019-5.6047 1.019-5.6047z" fill="url(#B5r3ePYlwpc4tsqTZi2olb)"/><path d="m18.545 21.551s2.0381-3.0571-1.5286-4.0762l-2.2129-0.88504c-0.22113-0.08866-0.42138-0.22062-0.58952-0.38877-0.16814-0.16814-0.30011-0.36838-0.38876-0.58952l-1.6391-4.0981c-0.1498-0.3745 0.01223-0.80148 0.37348-0.98185 0.23693-0.11872 0.51869-0.10802 0.74594 0.02853l4.0308 2.4182c0.56455 0.33883 1.0578 0.78823 1.4216 1.337 0.28278 0.42596 0.59003 0.98236 0.80606 1.6305 0.50952 1.5291 0.50952 3.5672-1.019 5.6053z" fill="url(#B5r3ePYlwpc4tsqTZi2olc)"/></g></svg>
