<?xml version="1.0" encoding="UTF-8"?>
<svg width="32" height="32" version="1.1" viewBox="0 0 32 32" xml:space="preserve" xmlns="http://www.w3.org/2000/svg"><rect x=".4923" y=".4923" width="31.02" height="31.02" ry="4.258" fill="#eee" stroke="#5d5d5d" stroke-width=".9846"/><style type="text/css"> .st0{fill:#333333;} </style><g transform="matrix(.19654 0 0 .19654 -1.3108 -1.5267)" fill="#5d5d5d"><g fill="#5d5d5d"><path class="st0" d="m89.244 97.036c4.036-18.534 11.259-25.237 15.416-34.469l0.043-0.099c1.039-2.2 1.533-4.543 1.533-7.141 0-9.388-7.621-16.975-17.044-16.975s-16.975 7.587-16.975 16.975c0 2.598 0.554 5.023 1.594 7.223 4.122 9.25 11.328 15.936 15.381 34.469zm-4.781-46.542c0-2.631 2.133-4.763 4.763-4.763 2.631 0 4.763 2.133 4.763 4.763 0 2.631-2.133 4.763-4.763 4.763s-4.763-2.133-4.763-4.763z"/><path class="st0" d="m37.081 94.068-13.488 10.967c-3.591 2.92-3.446 6.533 0.388 8.047l43.014 16.991 20.175-17.865zm29.416 32.279-39.767-15.525c-2.237-0.873-2.341-2.974-0.254-4.68l10.858-8.872 43.913 16.089z"/><path class="st0" d="m70.289 131.38 17.082 6.747c4.585 1.811 11.33 0.53 14.956-2.846l13.59-12.656-25.449-9.217z"/><path class="st0" d="m91.374 98.976c-0.208 1.005-1.109 1.732-2.13 1.732v-0.017c-1.039 0-1.905-0.693-2.148-1.732-1.148-5.242-2.552-9.616-4.07-13.432l-18.171 15.416 53.697 19.223 20.073-18.694-43.827-14.337c-1.274 3.432-2.447 7.31-3.424 11.841z"/><path class="st0" d="m150.8 79.922-42.757-12.702c0.427-0.848 0.842-1.702 1.228-2.575l0.173-0.346c1.264-2.858 1.905-5.855 1.905-8.972 0-12.194-9.925-22.119-22.137-22.119-12.194 0-22.102 9.925-22.119 22.119 0 3.256 0.693 6.426 2.079 9.319 0.369 0.815 0.759 1.607 1.157 2.392l-30.623 24.9 22.086 7.906 20.126-16.985c-1.885-4.287-3.888-7.854-5.765-11.198-1.136-2.02-2.23-3.989-3.236-5.979-0.376-0.74-0.751-1.48-1.094-2.231-1.161-2.529-1.767-5.3-1.767-8.141 0-10.566 8.574-19.157 19.157-19.157 10.601 0 19.227 8.591 19.227 19.175 0 2.737-0.676 5.595-1.819 8.124-0.52 1.188-1.102 2.354-1.716 3.518-0.817 1.551-1.695 3.099-2.615 4.692-0.361 0.644-0.728 1.299-1.097 1.963-0.027 0.049-0.054 0.096-0.081 0.145l1e-3 -1e-3c-1.384 2.494-2.804 5.161-4.172 8.179l-4e-3 -1e-3c-0.029 0.064-0.057 0.133-0.085 0.197-0.067 0.15-0.136 0.294-0.203 0.446l8e-3 3e-3c-0.279 0.629-0.559 1.258-0.833 1.921l45.29 14.646 12.311-11.465c3.15-2.935 1.941-6.417-2.625-7.773zm-0.874 6.702-9.847 9.114-40.302-12.885c1.676-3.654 3.424-6.805 5.077-9.755 0.67-1.188 1.318-2.348 1.947-3.508l41.627 12.507c2.653 0.798 3.335 2.827 1.498 4.527z"/></g></g></svg>
