<?xml version="1.0" encoding="UTF-8"?>
<svg width="32" height="32" version="1.1" viewBox="0 0 32 32" xml:space="preserve" xmlns="http://www.w3.org/2000/svg"><rect x=".4923" y=".4923" width="31.02" height="31.02" ry="4.258" fill="#eee" stroke="#5d5d5d" stroke-width=".9846"/><g transform="matrix(.042403 0 0 .042403 -5.2016 -5.6008)" fill="#5d5d5d">
	<path d="m534.29 253.4c-11.104-2.188-22.552-3.396-34.292-3.396-49.062 0-93.542 20.104-125.62 52.5l72.083 58.25zm-101.01 123.46-72.656-58.625c-23.646 30-37.708 67.917-37.708 108.85 0 23.76 4.708 46.74 13.583 68.062zm41.802-18.187c7.76-2.844 16.104-4.5 24.917-4.5 40.312 0 72.917 32.604 72.917 72.917 0 3.521-0.333 6.948-0.812 10.333l80.958-98.948c-21.438-36.865-55.708-65.292-96.719-79.115zm49.302 137.07c-7.635 2.708-15.823 4.26-24.385 4.26-40.312 0-72.917-32.604-72.917-72.917 0-3.688 0.354-7.292 0.875-10.823l-81.281 99.344c4.021 6.938 8.427 13.698 13.427 20.125 3.854 5.208 9.062 11.875 15.104 19.688 13.198 17.01 30.823 39.75 47.813 64.208zm-89.197 141.92c21.688 33.167 40.125 67.677 43.458 94.323 1.458 10.313 10.312 18.021 20.729 18.021 10.625 0 19.479-7.812 20.729-18.229 6.354-50.312 68.438-130 101.88-172.92 5.833-7.5 10.937-14.062 15.625-20.208 25.417-31.458 39.479-71.042 39.479-111.56 0-24.188-4.906-47.25-13.74-68.281z"/>
</g></svg>
