<?xml version="1.0" encoding="UTF-8"?>
<svg width="32" height="32" version="1.1" viewBox="0 0 32 32" xml:space="preserve" xmlns="http://www.w3.org/2000/svg"><rect x=".4923" y=".4923" width="31.02" height="31.02" ry="4.258" fill="#643893" stroke="#371a4a" stroke-width=".9846"/><path d="m14.08 22.95-4.262 2.16q-0.452 0.2308-0.8838-0.028t-0.4318-0.776v-11.8q0-0.748 0.5298-1.278 0.53-0.53 1.278-0.53h7.529q0.748 0 1.278 0.53 0.5298 0.5298 0.5298 1.278v11.8q0 0.5172-0.4318 0.776t-0.8838 0.028zm-4.077 0.5135 3.223-1.717q0.402-0.2212 0.849-0.2212 0.4472 0 0.8492 0.2212l3.223 1.717v-10.96q0-0.1345-0.0865-0.2212-0.0865-0.0865-0.2212-0.0865h-7.529q-0.1348 0-0.2212 0.0865-0.0865 0.08675-0.0865 0.2212zm12.75-1.465q-0.3192 0-0.5345-0.2155-0.2155-0.2155-0.2155-0.5345v-12.66q0-0.1348-0.0865-0.2212t-0.2212-0.0865h-9.548q-0.3192 0-0.5345-0.2155-0.2155-0.2152-0.2155-0.5345t0.2155-0.5345q0.2152-0.2155 0.5345-0.2155h9.548q0.748 0 1.278 0.5298 0.5298 0.53 0.5298 1.278v12.66q0 0.319-0.2155 0.5345-0.2152 0.2155-0.5345 0.2155zm-12.75-9.798h8.144z" fill="#fff" stroke-width=".025"/></svg>
