<?xml version="1.0" encoding="UTF-8"?>
<svg width="32" height="32" version="1.1" viewBox="0 0 32 32" xml:space="preserve" xmlns="http://www.w3.org/2000/svg"><rect x=".4923" y=".4923" width="31.02" height="31.02" ry="4.258" fill="#643893" stroke="#371a4a" stroke-width=".9846"/><path d="m16 24.5q-3.64 0-6.07-1.028-2.43-1.028-2.43-2.568v-9.904q0-1.448 2.488-2.474t6.012-1.026 6.012 1.026 2.488 2.474v9.904q0 1.54-2.43 2.568-2.43 1.028-6.07 1.028zm0-11.54q2.186 0 4.403-0.6182 2.216-0.6182 2.568-1.334-0.3425-0.7345-2.542-1.37-2.199-0.6355-4.43-0.6355-2.227 0-4.414 0.6182t-2.576 1.349q0.379 0.75 2.557 1.37 2.178 0.6202 4.434 0.6202zm0 5.004q1.04 0 2.025-0.1t1.882-0.2922q0.897-0.1922 1.68-0.477 0.7828-0.2845 1.414-0.6442v-3.548q-0.6308 0.3595-1.414 0.6442-0.7828 0.2845-1.68 0.4768-0.8972 0.1925-1.882 0.2925t-2.025 0.1q-1.06 0-2.064-0.105-1.005-0.1048-1.897-0.297t-1.662-0.472q-0.7702-0.28-1.376-0.6395v3.548q0.6058 0.3598 1.376 0.6395t1.662 0.472q0.8922 0.1925 1.897 0.2972 1.005 0.1048 2.064 0.1048zm0 5.038q1.217 0 2.39-0.1605 1.173-0.1608 2.134-0.4385 0.9615-0.278 1.622-0.6452 0.6608-0.3672 0.853-0.7712v-3.036q-0.6308 0.3598-1.414 0.6442-0.7828 0.2848-1.68 0.477-0.8972 0.1922-1.882 0.2922t-2.025 0.1q-1.06 0-2.064-0.1048-1.005-0.1048-1.897-0.2972-0.8922-0.1922-1.662-0.472t-1.376-0.6395v3.052q0.1922 0.4135 0.8452 0.7682 0.6528 0.3548 1.614 0.6328 0.9618 0.2778 2.142 0.4385 1.181 0.1605 2.398 0.1605z" fill="#fff" stroke-width=".025"/></svg>
