<?xml version="1.0" encoding="UTF-8"?>
<svg width="32" height="32" version="1.1" viewBox="0 0 32 32" xml:space="preserve" xmlns="http://www.w3.org/2000/svg"><rect x=".4923" y=".4923" width="31.02" height="31.02" ry="4.258" fill="#643893" stroke="#371a4a" stroke-width=".9846"/><path d="m16 17.05-5.073 5.073q-0.2078 0.2075-0.5222 0.2125-0.3142 0.0048-0.5318-0.2125-0.2172-0.2175-0.2172-0.527t0.2172-0.527l5.073-5.073-5.073-5.073q-0.2075-0.2078-0.2125-0.5222-0.00475-0.3142 0.2125-0.5318 0.2175-0.2172 0.527-0.2172t0.527 0.2172l5.073 5.073 5.073-5.073q0.2078-0.2075 0.5222-0.2125 0.3142-0.0047 0.5318 0.2125 0.2172 0.2175 0.2172 0.527t-0.2172 0.527l-5.073 5.073 5.073 5.073q0.2075 0.2078 0.2125 0.5222 0.0047 0.3142-0.2125 0.5318-0.2175 0.2172-0.527 0.2172t-0.527-0.2172z" fill="#fff" stroke-width=".025"/></svg>
