<?xml version="1.0" encoding="UTF-8"?>
<svg width="32" height="32" version="1.1" viewBox="0 0 32 32" xml:space="preserve" xmlns="http://www.w3.org/2000/svg"><rect x=".4923" y=".4923" width="31.02" height="31.02" ry="4.258" fill="#643893" stroke="#371a4a" stroke-width=".9846"/><path d="m7.143 18.25v-4.423q0-0.2865 0.1982-0.4798 0.198-0.1935 0.4845-0.1935h2.51q0.6 0 1.05 0.45t0.45 1.05v0.6925q0 0.4402-0.2472 0.822-0.247 0.3818-0.7298 0.597l0.577 1.314q0.121 0.2828-0.0405 0.525-0.1615 0.2425-0.4845 0.2425-0.1618 0-0.303-0.081-0.1412-0.08075-0.2068-0.2422l-0.7538-1.677h-1.312v1.404q0 0.2578-0.1692 0.427t-0.427 0.1692-0.427-0.1692-0.1692-0.427zm5.869-0.1405 1.233-4.262q0.08075-0.3192 0.324-0.5068t0.5625-0.1875h0.504q0.319 0 0.5625 0.1875 0.2432 0.1875 0.324 0.5068l1.242 4.262q0.08075 0.2828-0.09625 0.5098-0.1768 0.227-0.4692 0.227-0.2172 0-0.3615-0.1192t-0.1942-0.3212l-0.321-1.079h-1.846l-0.3365 1.094q-0.05 0.2018-0.202 0.3132-0.1518 0.1118-0.3692 0.1118-0.2922 0-0.4642-0.227-0.1722-0.227-0.0915-0.5098zm6.452 0.3118-1.164-4.54q-0.08075-0.2828 0.09625-0.5048 0.1768-0.2222 0.4595-0.2222 0.202 0 0.3665 0.1165 0.1642 0.1162 0.2142 0.3182l0.725 2.825 0.7308-2.835q0.0405-0.1922 0.1925-0.3085 0.1518-0.1165 0.344-0.1165h0.2732q0.1922 0 0.3518 0.1165 0.1598 0.1162 0.2 0.3085l0.7155 2.835 0.7405-2.825q0.05-0.202 0.2065-0.3182 0.1568-0.1165 0.3588-0.1165 0.2828 0 0.4595 0.2222 0.177 0.222 0.09625 0.5048l-1.179 4.54q-0.0405 0.1922-0.1925 0.3085-0.1518 0.1165-0.344 0.1165h-0.2828q-0.1922 0-0.3442-0.1165-0.152-0.1162-0.1922-0.3085l-0.7308-2.808-0.7308 2.808q-0.0405 0.1922-0.1925 0.3085-0.1518 0.1165-0.3442 0.1165h-0.2825q-0.1925 0-0.352-0.1165-0.1595-0.1162-0.2-0.3085zm-4.696-2.268h1.231l-0.423-1.404h-0.3845zm-6.432-0.5h2q0.1152 0 0.2115-0.096 0.096-0.09625 0.096-0.2115v-0.6925q0-0.1152-0.096-0.2115-0.09625-0.096-0.2115-0.096h-2z" fill="#fff" stroke-width=".025"/></svg>
