<?xml version="1.0" encoding="UTF-8"?>
<svg width="32" height="32" version="1.1" viewBox="0 0 32 32" xml:space="preserve" xmlns="http://www.w3.org/2000/svg"><rect x=".4923" y=".4923" width="31.02" height="31.02" ry="4.258" fill="#643893" stroke="#371a4a" stroke-width=".9846"/><path d="m11.83 18.85q-0.4905 0-0.8415-0.351-0.3508-0.351-0.3508-0.8415v-0.5575q0-0.2578 0.169-0.427 0.1692-0.1692 0.427-0.1692t0.427 0.1692 0.1692 0.427v0.5575h1.788v-3.904q0-0.2578 0.1692-0.427 0.169-0.1692 0.4268-0.1692t0.427 0.1692 0.1692 0.427v3.904q0 0.4905-0.351 0.8415t-0.8412 0.351zm5.731 0q-0.3672 0-0.626-0.2588t-0.2588-0.626v-0.5192q0-0.1808 0.131-0.3115 0.1308-0.1308 0.3115-0.1308h0.3075q0.1808 0 0.3115 0.1308 0.131 0.1308 0.131 0.3115v0.2115h2.308v-1.25h-2.692q-0.3385 0-0.573-0.2345-0.2348-0.2348-0.2348-0.573v-1.558q0-0.3672 0.2588-0.626t0.626-0.2588h2.923q0.3672 0 0.626 0.2588t0.2588 0.626v0.5192q0 0.1808-0.131 0.3115-0.1308 0.1308-0.3115 0.1308h-0.3075q-0.1808 0-0.3115-0.1308-0.131-0.1308-0.131-0.3115v-0.2115h-2.308v1.25h2.692q0.3385 0 0.573 0.2345 0.2348 0.2348 0.2348 0.573v1.558q0 0.3672-0.2588 0.626t-0.626 0.2588z" fill="#fff" stroke-width=".025"/></svg>
