<?xml version="1.0" encoding="UTF-8"?>
<svg width="32" height="32" version="1.1" viewBox="0 0 32 32" xml:space="preserve" xmlns="http://www.w3.org/2000/svg"><rect x=".4923" y=".4923" width="31.02" height="31.02" ry="4.258" fill="#643893" stroke="#371a4a" stroke-width=".9846"/><path d="m16 25.5q-2.534 0-4.142-0.727-1.608-0.7268-1.608-1.879 0-0.4558 0.3088-0.8558 0.3085-0.4 0.8778-0.7212 0.2635-0.173 0.575-0.1182t0.4848 0.3182q0.173 0.2635 0.1058 0.5702t-0.3308 0.4798q-0.1635 0.05775-0.3125 0.1442-0.1492 0.0865-0.178 0.173 0.248 0.4482 1.476 0.7818 1.228 0.3338 2.743 0.3338t2.743-0.3338q1.228-0.3335 1.476-0.7818-0.02875-0.0865-0.178-0.173-0.149-0.0865-0.3125-0.1442-0.2635-0.173-0.3308-0.4798t0.1058-0.5702q0.1732-0.2635 0.4848-0.3182t0.575 0.1182q0.5692 0.3212 0.8778 0.7212 0.3088 0.4 0.3088 0.8558 0 1.152-1.608 1.879-1.608 0.727-4.142 0.727zm0.025-4.875q2.484-1.883 3.73-3.73 1.245-1.847 1.245-3.668 0-2.588-1.62-3.908t-3.38-1.319q-1.75 0-3.375 1.319t-1.625 3.908q0 1.704 1.23 3.531t3.795 3.867zm-0.025 1.438q-0.2712 0-0.5422-0.09525-0.2712-0.09525-0.502-0.276-2.748-2.215-4.102-4.323-1.354-2.108-1.354-4.142 0-1.669 0.5895-2.925t1.522-2.103q0.9328-0.847 2.092-1.273 1.158-0.426 2.297-0.426t2.297 0.426q1.159 0.426 2.092 1.273 0.9325 0.8472 1.522 2.103t0.5895 2.925q0 2.034-1.354 4.142-1.354 2.108-4.102 4.323-0.2308 0.1808-0.502 0.276-0.271 0.09525-0.5422 0.09525zm0-7.169q0.748 0 1.278-0.525 0.53-0.525 0.53-1.283 0-0.748-0.53-1.278-0.5298-0.53-1.278-0.53-0.7385 0-1.273 0.53-0.5348 0.5298-0.5348 1.278 0 0.7578 0.5348 1.283 0.5345 0.525 1.273 0.525z" fill="#fff" stroke-width=".025"/></svg>
