<?xml version="1.0" encoding="UTF-8"?>
<svg width="32" height="32" version="1.1" viewBox="0 0 32 32" xml:space="preserve" xmlns="http://www.w3.org/2000/svg"><title>user-location.svg</title><rect x=".4923" y=".4923" width="31.02" height="31.02" ry="4.258" fill="#643893" stroke="#371a4a" stroke-width=".9846"/><path d="m14.82 25.5q-0.7578 0-1.433-0.3192t-1.129-0.9172l-5.094-6.598 0.3692-0.394q0.375-0.4 0.897-0.4808 0.522-0.081 0.9778 0.198l2.437 1.308v-7.912q0-0.3188 0.2158-0.5345 0.2155-0.2155 0.5345-0.2155t0.542 0.2155q0.223 0.2158 0.223 0.5345v10.56l-3.002-1.635 3.119 4.066q0.2462 0.3095 0.6 0.4672 0.354 0.1578 0.7425 0.1578h4.919q0.9405 0 1.6-0.6548 0.6595-0.655 0.6595-1.595v-3.769q0-0.515-0.3482-0.8632-0.3485-0.3482-0.8632-0.3482h-5.042v-1.5h5.042q1.13 0 1.92 0.7908 0.791 0.791 0.791 1.921v3.768q0 1.554-1.104 2.653-1.104 1.098-2.655 1.098zm-6.117-12.87q-0.2962-0.502-0.452-1.074t-0.1558-1.176q0-1.873 1.314-3.186 1.313-1.314 3.185-1.314 0.6088 0 1.166 0.148t1.06 0.4345q1.06 0.5925 1.667 1.642 0.6075 1.05 0.6075 2.272 0 0.6108-0.1558 1.181t-0.4518 1.072l-1.292-0.75q0.2-0.35 0.3-0.7125t0.1-0.7875q0-0.8-0.4125-1.5t-1.112-1.1q-0.325-0.2-0.7-0.3t-0.775-0.1q-1.25 0-2.125 0.875-0.875 0.875-0.875 2.125 0 0.425 0.1 0.7875t0.3 0.7125zm7.48 7m1.838-11.85 0.75-1.318q1.06 0.5925 1.667 1.642 0.6078 1.05 0.6078 2.272 0 0.6108-0.1558 1.181t-0.452 1.072l-1.292-0.75q0.2-0.35 0.3-0.7125t0.1-0.7875q0-0.8-0.4125-1.5t-1.112-1.1z" fill="#fff" stroke-width=".025"/></svg>
