<?xml version="1.0" encoding="UTF-8"?>
<svg width="32" height="32" version="1.1" viewBox="0 0 32 32" xml:space="preserve" xmlns="http://www.w3.org/2000/svg"><rect x=".4923" y=".4923" width="31.02" height="31.02" ry="4.258" fill="#643893" stroke="#371a4a" stroke-width=".9846"/><path d="m8.904 24.5q-0.3868 0-0.6452-0.2588-0.2588-0.2585-0.2588-0.6452v-1.723q0-0.3615 0.1405-0.695 0.1402-0.3338 0.3865-0.58l12.67-12.65q0.2328-0.2328 0.5115-0.3395 0.279-0.1068 0.5578-0.1068 0.2942 0 0.5702 0.1068 0.2758 0.1068 0.4835 0.3395l1.236 1.236q0.2328 0.2078 0.3395 0.4835 0.1068 0.276 0.1068 0.5702 0 0.2788-0.1068 0.5578-0.1068 0.2788-0.3395 0.5115l-12.65 12.67q-0.2462 0.2462-0.58 0.3865-0.3335 0.1405-0.695 0.1405zm0.596-1.5h1.236l10.19-10.18-0.6135-0.6385-0.6385-0.6135-10.18 10.19zm14-12.75-1.252-1.252zm-3.186 1.934-0.6385-0.6135 1.252 1.252zm-2.679 12.31q1.754 0 3.252-0.8578t1.498-2.392q0-0.7808-0.4382-1.388-0.4385-0.6068-1.214-1.078-0.2635-0.173-0.5625-0.1442-0.299 0.029-0.4875 0.2618-0.1885 0.2325-0.1598 0.5548 0.029 0.322 0.2925 0.4952 0.4942 0.294 0.7818 0.6105 0.2875 0.3162 0.2875 0.6875 0 0.7095-0.975 1.23t-2.275 0.5202q-0.3192 0-0.5348 0.2155-0.2152 0.2152-0.2152 0.5345t0.2152 0.5345q0.2155 0.2155 0.5348 0.2155zm-4.635-14.25q0 0.4365-0.4952 0.7915-0.495 0.3548-2.099 1.08-1.933 0.846-2.669 1.515t-0.7365 1.614q0 0.6212 0.3192 1.088t0.7942 0.803q0.248 0.198 0.5422 0.1558 0.2942-0.0425 0.4922-0.2905 0.1982-0.248 0.1635-0.547-0.0345-0.299-0.2828-0.4972-0.2615-0.173-0.395-0.351-0.1338-0.1778-0.1338-0.3605 0-0.377 0.503-0.7442 0.5028-0.3672 2.001-1.012 2.085-0.8922 2.79-1.614 0.7058-0.722 0.7058-1.63 0-1.231-1.038-1.99-1.038-0.7598-2.712-0.7598-1.029 0-1.892 0.3712-0.8635 0.371-1.29 0.9078-0.2075 0.248-0.172 0.547t0.2838 0.4912q0.248 0.1982 0.5422 0.1625 0.2942-0.0355 0.5018-0.2432 0.379-0.3788 0.8712-0.5578 0.4922-0.1788 1.156-0.1788 1.102 0 1.676 0.372 0.574 0.3722 0.574 0.878z" fill="#fff" stroke-width=".025"/></svg>
