<?xml version="1.0" encoding="UTF-8"?>
<svg width="32" height="32" version="1.1" viewBox="0 0 32 32" xml:space="preserve" xmlns="http://www.w3.org/2000/svg"><rect x=".4923" y=".4923" width="31.02" height="31.02" ry="4.258" fill="#643893" stroke="#371a4a" stroke-width=".9846"/><path d="m7.846 13.73q-0.3188 0-0.5345-0.2158-0.2155-0.2158-0.2155-0.5348 0-0.3188 0.2155-0.5342 0.2158-0.2152 0.5345-0.2152h3.058q0.652 0 1.134 0.4335 0.4818 0.4338 0.5585 1.066zm2.019 8.981q1.298 0 2.207-0.9088 0.9088-0.9088 0.9088-2.207t-0.9088-2.207q-0.9085-0.9088-2.207-0.9088-1.298 0-2.206 0.9088-0.9088 0.9088-0.9088 2.207t0.9088 2.207q0.9085 0.9088 2.206 0.9088zm13.63 0q0.7212 0 1.236-0.5145 0.5145-0.5145 0.5145-1.236 0-0.721-0.5145-1.236-0.5142-0.5145-1.236-0.5145t-1.236 0.5145q-0.5145 0.5145-0.5145 1.236 0 0.7212 0.5145 1.236 0.5142 0.5145 1.236 0.5145zm-13.64-1.808q-0.5458 0-0.9255-0.3822-0.3798-0.382-0.3798-0.9278t0.382-0.9255q0.382-0.38 0.928-0.38 0.5458 0 0.9255 0.3822 0.3798 0.382 0.3798 0.9278t-0.382 0.9255q-0.382 0.38-0.928 0.38zm14.12-3.167q0.477 0.096 0.7962 0.2412 0.319 0.1452 0.7038 0.476v-5.666q0-0.7455-0.531-1.276t-1.277-0.531h-5.723l-1.05-1.1 1.4-1.4-0.7-0.7-3.55 3.55 0.75 0.7 1.4-1.4 1.05 1.05v1.915q0 0.9838-0.7005 1.684t-1.684 0.7005h-2.15q0.4308 0.3382 0.6942 0.673 0.2635 0.3345 0.5462 0.8268h0.9095q1.612 0 2.748-1.136t1.136-2.748v-1.116h4.923q0.1348 0 0.2212 0.08675 0.0865 0.0865 0.0865 0.221zm-3.677 2.61q0.1212-0.4922 0.2755-0.806 0.154-0.3138 0.4802-0.694h-6.65q0.07125 0.4315 0.07125 0.7502 0 0.319-0.07125 0.7498zm3.196 3.865q-1.354 0-2.302-0.948-0.948-0.948-0.948-2.302 0-1.354 0.948-2.302 0.9482-0.948 2.302-0.948t2.302 0.948q0.948 0.948 0.948 2.302 0 1.354-0.948 2.302-0.9482 0.948-2.302 0.948zm-13.63 0q-1.915 0-3.265-1.35t-1.35-3.265 1.35-3.265 3.265-1.35q1.916 0 3.266 1.35t1.35 3.265-1.35 3.265-3.266 1.35z" fill="#fff" stroke-width=".025"/></svg>
