<?xml version="1.0" encoding="UTF-8"?>
<svg width="32" height="32" version="1.1" viewBox="0 0 32 32" xml:space="preserve" xmlns="http://www.w3.org/2000/svg"><rect x=".4923" y=".4923" width="31.02" height="31.02" ry="4.258" fill="#643893" stroke="#371a4a" stroke-width=".9846"/><path d="m16.01 20.96-3.885 3.884q-0.5202 0.5172-1.267 0.5172t-1.264-0.5172l-2.437-2.436q-0.5172-0.5202-0.5172-1.267 0-0.7465 0.5172-1.264l3.894-3.894-3.865-3.866q-0.5172-0.5172-0.527-1.265-0.0095-0.748 0.5078-1.265l2.427-2.427q0.5202-0.5172 1.267-0.5172t1.264 0.5172l3.875 3.875 3.875-3.875q0.5202-0.5172 1.267-0.5172t1.264 0.5172l2.436 2.436q0.5172 0.5202 0.5172 1.267 0 0.7465-0.5172 1.264l-3.885 3.884 3.875 3.875q0.527 0.5228 0.527 1.273 0 0.7502-0.5172 1.268l-2.398 2.398q-0.5268 0.527-1.28 0.5318-0.7528 0.0047-1.28-0.522zm0.0018-5.862q0.3848 0 0.6435-0.2605 0.2585-0.2602 0.2585-0.645 0-0.385-0.2602-0.6435-0.2602-0.2588-0.6452-0.2588-0.3848 0-0.6435 0.2602-0.2585 0.2605-0.2585 0.6452t0.2602 0.6435 0.6452 0.2588zm-3.915-0.1598 2.85-2.85-3.875-3.875q-0.0865-0.0865-0.2115-0.0865t-0.2115 0.0865l-2.427 2.427q-0.0865 0.0865-0.0865 0.2115t0.0865 0.2115zm2.108 1.967q0.3848 0 0.6435-0.2602t0.2588-0.6452q0-0.3848-0.2605-0.6435-0.2602-0.2585-0.645-0.2585-0.385 0-0.6435 0.2602-0.2588 0.2602-0.2588 0.6452 0 0.3848 0.2602 0.6435 0.2605 0.2585 0.6452 0.2585zm1.808 1.808q0.3848 0 0.6435-0.2602 0.2585-0.2605 0.2585-0.6452t-0.2602-0.6435-0.6452-0.2588q-0.3848 0-0.6435 0.2605-0.2585 0.2602-0.2585 0.645 0 0.385 0.2602 0.6435 0.2602 0.2588 0.6452 0.2588zm1.808-1.808q0.385 0 0.6435-0.2602 0.2588-0.2602 0.2588-0.6452 0-0.3848-0.2602-0.6435-0.2605-0.2585-0.6452-0.2585t-0.6435 0.2602-0.2588 0.6452q0 0.3848 0.2605 0.6435 0.2602 0.2585 0.645 0.2585zm-0.7555 3 3.885 3.885q0.0865 0.0865 0.2115 0.0865t0.2115-0.0865l2.427-2.427q0.0865-0.0865 0.0865-0.2115t-0.0865-0.2115l-3.885-3.885z" fill="#fff" stroke-width=".025"/></svg>
