<?xml version="1.0" encoding="UTF-8"?>
<svg width="32" height="32" version="1.1" viewBox="0 0 32 32" xml:space="preserve" xmlns="http://www.w3.org/2000/svg"><rect x=".4923" y=".4923" width="31.02" height="31.02" ry="4.258" fill="#643893" stroke="#371a4a" stroke-width=".9846"/><g transform="matrix(.025 0 0 .025 3.9322 27.666)" fill="#fff"><path d="m172.31-93.4q-30.31 0-51.31-21t-21-51.31v-535.38q0-30.31 21-51.31t51.31-21h160l122.38-122.38q10.85-10.85 25.31-10.85t25.31 10.85l122.38 122.38h160q30.31 0 51.31 21t21 51.31v535.38q0 30.31-21 51.31t-51.31 21zm0-60h615.38q4.62 0 8.46-3.85 3.85-3.84 3.85-8.46v-535.38q0-4.62-3.85-8.46-3.84-3.85-8.46-3.85h-615.38q-4.62 0-8.46 3.85-3.85 3.84-3.85 8.46v535.38q0 4.62 3.85 8.46 3.84 3.85 8.46 3.85zm75.38-123.85v-312.3q0-15.46 10.35-25.81t25.81-10.35h392.3q15.46 0 25.81 10.35t10.35 25.81v312.3q0 15.46-10.35 25.81t-25.81 10.35h-392.3q-15.46 0-25.81-10.35t-10.35-25.81zm60-23.84h344.62v-264.62h-344.62z"/></g></svg>
