<?xml version="1.0" encoding="UTF-8"?>
<svg width="32" height="32" version="1.1" viewBox="0 0 32 32" xml:space="preserve" xmlns="http://www.w3.org/2000/svg"><rect x=".4923" y=".4923" width="31.02" height="31.02" ry="4.258" fill="#643893" stroke="#371a4a" stroke-width=".9846"/><path d="m6.6816 22.498q-0.34566 0-0.57935-0.23396-0.23396-0.23396-0.23396-0.57962 0-0.34593 0.23396-0.57935 0.23369-0.23369 0.57935-0.23369h8.9779q0.34566 0 0.57935 0.23396t0.23369 0.57962q0 0.34593-0.23369 0.57935-0.23369 0.23369-0.57935 0.23369zm0-5.3074q-0.34566 0-0.57935-0.23396-0.23396-0.23396-0.23396-0.57962 0-0.34593 0.23396-0.57935 0.23369-0.23369 0.57935-0.23369h3.5035q0.34566 0 0.57962 0.23396 0.23369 0.23396 0.23369 0.57962 0 0.34593-0.23369 0.57962-0.23396 0.23342-0.57962 0.23342zm0-5.3074q-0.34566 0-0.57935-0.23396-0.23396-0.23396-0.23396-0.57962 0-0.34593 0.23396-0.57935 0.23369-0.23369 0.57935-0.23369h3.5035q0.34566 0 0.57962 0.23396 0.23369 0.23396 0.23369 0.57989 0 0.34566-0.23369 0.57935-0.23396 0.23342-0.57962 0.23342zm11.616 7.3927q-2.0382 0-3.4745-1.4241-1.4366-1.4244-1.4366-3.4609 0-2.0363 1.4371-3.4606 1.4374-1.4244 3.4764-1.4244 2.0392 0 3.4739 1.4244 1.4347 1.4244 1.4347 3.4555 0 0.75502-0.23559 1.4859-0.23559 0.7309-0.69647 1.3398l3.6244 3.5932q0.23559 0.22176 0.23559 0.56444t-0.23559 0.57826q-0.22176 0.22529-0.56444 0.22529-0.34268 0-0.57827-0.22529l-3.6244-3.5932q-0.61947 0.45058-1.3504 0.68616-0.7309 0.23559-1.4859 0.23559zm0-1.6266q1.3685 0 2.3266-0.94886t0.95808-2.3095-0.95808-2.3095q-0.95808-0.94886-2.3266-0.94886-1.3685 0-2.3266 0.94886-0.95781 0.94886-0.95781 2.3095t0.95781 2.3095q0.95808 0.94886 2.3266 0.94886z" fill="#fff" stroke-width=".02711"/></svg>
