<?xml version="1.0" encoding="UTF-8"?>
<svg width="32" height="32" version="1.1" viewBox="0 0 32 32" xml:space="preserve" xmlns="http://www.w3.org/2000/svg"><rect x=".4923" y=".4923" width="31.02" height="31.02" ry="4.258" fill="#643893" stroke="#371a4a" stroke-width=".9846"/><path d="m15.98 25.5q-1.944 0-3.673-0.749-1.729-0.749-3.019-2.04-1.29-1.29-2.04-3.024t-0.749-3.688q0-1.979 0.7692-3.712t2.09-3.016q1.32-1.283 3.088-2.027 1.768-0.7442 3.772-0.7442 1.875 0 3.554 0.6395 1.679 0.6395 2.949 1.77 1.27 1.131 2.024 2.688 0.754 1.556 0.754 3.376 0 2.596-1.543 4.062-1.543 1.466-3.957 1.466h-1.812q-0.427 0-0.6828 0.2788-0.2558 0.279-0.2558 0.6598 0 0.4635 0.375 0.9635t0.375 1.148q0 0.9902-0.548 1.47-0.5482 0.4798-1.471 0.4798zm0.01925-9.5m-5.5 0.75q0.5345 0 0.8922-0.3578t0.3578-0.8922-0.3578-0.8922-0.8922-0.3578-0.8922 0.3578-0.3578 0.8922 0.3578 0.8922 0.8922 0.3578zm3-4q0.5345 0 0.8922-0.3578t0.3578-0.8922-0.3578-0.8922-0.8922-0.3578-0.8922 0.3578-0.3578 0.8922 0.3578 0.8922 0.8922 0.3578zm5 0q0.5345 0 0.8922-0.3578t0.3578-0.8922-0.3578-0.8922-0.8922-0.3578-0.8922 0.3578-0.3578 0.8922 0.3578 0.8922 0.8922 0.3578zm3 4q0.5345 0 0.8922-0.3578t0.3578-0.8922-0.3578-0.8922-0.8922-0.3578-0.8922 0.3578-0.3578 0.8922 0.3578 0.8922 0.8922 0.3578zm-5.519 7.25q0.2442 0 0.3818-0.1202t0.1375-0.3298q0-0.35-0.375-0.7865t-0.375-1.367q0-1.069 0.725-1.733t1.775-0.6635h1.75q1.766 0 2.883-1.034 1.117-1.035 1.117-2.992 0-3.034-2.327-5.004-2.327-1.969-5.454-1.969-3.429 0-5.824 2.325t-2.395 5.675q0 3.325 2.338 5.662t5.643 2.338z" fill="#fff" stroke-width=".025"/></svg>
