<?xml version="1.0" encoding="UTF-8"?>
<svg width="32" height="32" version="1.1" viewBox="0 0 32 32" xml:space="preserve" xmlns="http://www.w3.org/2000/svg"><rect x=".4923" y=".4923" width="31.02" height="31.02" ry="4.258" fill="#643893" stroke="#371a4a" stroke-width=".9846"/><path d="m12.86 23.5h-2.55q-0.7458 0-1.277-0.531t-0.531-1.277v-2.55l-1.858-1.877q-0.2558-0.271-0.3865-0.598-0.1308-0.3272-0.1308-0.6655t0.1308-0.6672q0.1308-0.3288 0.3865-0.5998l1.858-1.877v-2.55q0-0.7458 0.531-1.277t1.277-0.531h2.55l1.877-1.858q0.271-0.2558 0.598-0.3865 0.3272-0.1308 0.6655-0.1308t0.6672 0.1308q0.3288 0.1308 0.5998 0.3865l1.877 1.858h2.55q0.7458 0 1.277 0.531t0.531 1.277v2.55l1.858 1.877q0.2558 0.271 0.3865 0.598 0.1308 0.3272 0.1308 0.6655t-0.1308 0.6672q-0.1308 0.3288-0.3865 0.5998l-1.858 1.877v2.55q0 0.7458-0.531 1.277t-1.277 0.531h-2.55l-1.877 1.858q-0.271 0.2558-0.598 0.3865-0.3272 0.1308-0.6655 0.1308t-0.6672-0.1308q-0.3288-0.1308-0.5998-0.3865zm3.142-2.885q1.915 0 3.265-1.35t1.35-3.265-1.35-3.265-3.265-1.35-3.265 1.35-1.35 3.265 1.35 3.265 3.265 1.35zm0-1.5q-1.298 0-2.207-0.9088t-0.9088-2.207 0.9088-2.207 2.207-0.9088 2.207 0.9088 0.9088 2.207-0.9088 2.207-2.207 0.9088zm-2.501 2.884 2.28 2.279q0.0865 0.0865 0.2212 0.0865t0.2212-0.0865l2.28-2.279h3.192q0.1348 0 0.2212-0.0865t0.0865-0.2212v-3.192l2.279-2.28q0.0865-0.0865 0.0865-0.2212t-0.0865-0.2212l-2.279-2.28v-3.192q0-0.1348-0.0865-0.2212t-0.2212-0.0865h-3.192l-2.28-2.279q-0.0865-0.0865-0.2212-0.0865t-0.2212 0.0865l-2.28 2.279h-3.192q-0.1348 0-0.2212 0.0865t-0.0865 0.2212v3.192l-2.279 2.28q-0.0865 0.0865-0.0865 0.2212t0.0865 0.2212l2.279 2.28v3.192q0 0.1348 0.0865 0.2212t0.2212 0.0865z" fill="#fff" stroke-width=".025"/></svg>
