<?xml version="1.0" encoding="UTF-8"?>
<svg width="32" height="32" version="1.1" viewBox="0 0 32 32" xml:space="preserve" xmlns="http://www.w3.org/2000/svg"><rect x=".4923" y=".4923" width="31.02" height="31.02" ry="4.258" fill="#643893" stroke="#371a4a" stroke-width=".9846"/><g transform="matrix(.025 0 0 .025 3.5 28.328)" fill="#fff"><path d="m775.39-593.92q-84.55-4.93-169.81 13.42-85.27 18.35-177.12 108.34 38.16-104.3 134.77-154.92 96.62-50.61 210.16-50.61l-76.77-77.16q-8.31-8.3-8.31-20.69 0-12.38 8.31-20.69 8.3-8.31 20.88-8.31t20.88 8.31l136.31 135.92q10.85 10.85 10.85 25.31t-10.85 25.31l-136.31 136.3q-8.3 8.31-20.69 8.12-12.38-0.19-20.69-8.5t-8.31-20.88q0-12.58 8.31-20.89zm-595.39 41.15q0-128.31 87.04-217.77t212.58-89.46q28.69 0 56.77 4.77 28.07 4.77 54 15.85 11.76 4.23 17.15 15.77 5.38 11.53 1.15 23.3t-15.77 16.85q-11.53 5.08-23.3 0.85-21.47-9.08-44.31-13.24-22.85-4.15-45.69-4.15-100.62 0-170.12 71.73t-69.5 175.5q0 72.54 55.73 162.77t174.65 201.08q3.85 3.84 9.24 3.84 5.38 0 9.23-3.84 51.77-47.93 93.61-93.46 41.85-45.54 73.54-92.24 7.08-10.53 18.85-12.96 11.76-2.42 22.3 4.27t12.96 19.16q2.43 12.46-4.65 23-34.31 50.3-78.46 98.65t-96 96.34q-10.85 10.24-24.19 15.16-13.35 4.92-27.19 4.92-13.85 0-27.5-4.92-13.66-4.92-24.5-15.16-126.47-116.38-187.04-218.3-60.58-101.93-60.58-188.31z"/></g></svg>
