<?xml version="1.0" encoding="UTF-8"?>
<svg width="32" height="32" version="1.1" viewBox="0 0 32 32" xml:space="preserve" xmlns="http://www.w3.org/2000/svg"><rect x=".4923" y=".4923" width="31.02" height="31.02" ry="4.258" fill="#643893" stroke="#371a4a" stroke-width=".9846"/><path d="m13.538 5.3301-0.41107 1.8437a0.44435 0.44435 51.285 0 0 0.4337 0.54105h0.87375a0.55433 0.55433 45 0 1 0.55434 0.55433v1.2038a0.8299 0.8299 123.74 0 1-0.51207 0.76663l-1.468 0.60862a0.82934 0.82934 11.241 0 1-0.90405-0.17968l-0.85082-0.85082a0.55472 0.55472 89.98 0 1-2.73e-4 -0.78422l0.61699-0.61785a0.44431 0.44431 83.673 0 0-0.076416-0.68915l-1.595-1.0117a0.6919 0.6919 173.68 0 0-0.85997 0.095182l-2.5268 2.5283a0.69129 0.69129 96.257 0 0-0.094273 0.85978l1.0142 1.5939a0.44433 0.44433 6.2459 0 0 0.68929 0.07544l0.61699-0.61785a0.55428 0.55428 179.96 0 1 0.78391-5.07e-4l0.8523 0.85129a0.82916 0.82916 78.731 0 1 0.18012 0.9039l-0.60706 1.4659a0.82955 0.82955 146.25 0 1-0.76643 0.51216h-1.2038a0.55433 0.55433 45 0 1-0.55433-0.55434v-0.87375a0.44435 0.44435 38.715 0 0-0.54105-0.4337l-1.8437 0.41107a0.69154 0.69154 128.72 0 0-0.54105 0.67497v3.5749a0.69154 0.69154 51.285 0 0 0.54105 0.67497l1.8437 0.41108a0.44435 0.44435 141.28 0 0 0.54105-0.4337v-0.87375a0.55433 0.55433 135 0 1 0.55433-0.55434h1.2038a0.8298 0.8298 33.744 0 1 0.76657 0.5121l0.60678 1.4641a0.82891 0.82891 101.26 0 1-0.17997 0.90384l-0.8523 0.85128a0.55428 0.55428 0.037073 0 1-0.78391-5.07e-4l-0.61699-0.61785a0.44433 0.44433 173.75 0 0-0.68929 0.07544l-1.0142 1.5939a0.69129 0.69129 83.743 0 0 0.094273 0.85978l2.5268 2.5283a0.69151 0.69151 6.3001 0 0 0.85981 0.09492l1.5953-1.0131a0.44456 0.44456 96.312 0 0 0.07625-0.68941l-0.61699-0.61785a0.55472 0.55472 90.02 0 1 2.73e-4 -0.78422l0.85082-0.85082a0.82899 0.82899 168.77 0 1 0.90396-0.17948l1.4702 0.61017a0.83025 0.83025 56.27 0 1 0.51199 0.76683v1.2038a0.55433 0.55433 135 0 1-0.55434 0.55434h-0.87375a0.44435 0.44435 128.72 0 0-0.4337 0.54105l0.41107 1.8437a0.69154 0.69154 38.715 0 0 0.67497 0.54105h3.5749a0.69154 0.69154 141.28 0 0 0.67497-0.54105l0.41107-1.8437a0.44435 0.44435 51.285 0 0-0.4337-0.54105h-0.87375a0.55433 0.55433 45 0 1-0.55434-0.55434v-1.2038a0.83885 0.83885 123.46 0 1 0.50995-0.77168l2.4772-1.0558a1.3679 1.3679 134.86 0 0 0.72472-0.72838l1.0265-2.4425a0.83427 0.83427 146.4 0 1 0.76911-0.51104h1.2038a0.55433 0.55433 45 0 1 0.55434 0.55434v0.87375a0.44435 0.44435 38.715 0 0 0.54105 0.4337l1.8437-0.41107a0.69154 0.69154 128.72 0 0 0.54105-0.67497v-3.5749a0.69154 0.69154 51.285 0 0-0.54105-0.67497l-1.8437-0.41107a0.44435 0.44435 141.28 0 0-0.54105 0.4337v0.87375a0.55433 0.55433 135 0 1-0.55434 0.55434h-1.2038a0.82919 0.82919 33.764 0 1-0.76623-0.51224l-0.60551-1.4638a0.83005 0.83005 101.26 0 1 0.18008-0.90421l0.85082-0.85082a0.55395 0.55395 0.019973 0 1 0.78368 2.73e-4l0.61699 0.61785a0.44433 0.44433 173.75 0 0 0.68929-0.07544l1.0142-1.5939a0.69129 0.69129 83.743 0 0-0.09427-0.85978l-2.5268-2.5283a0.6919 0.6919 6.3158 0 0-0.85998-0.095182l-1.595 1.0117a0.44399 0.44399 96.307 0 0-0.07614 0.68888l0.6184 0.6184a0.554 0.554 90.017 0 1-2.34e-4 0.78371l-0.8523 0.85129a0.83013 0.83013 168.77 0 1-0.90434 0.17959l-1.4699-0.6089a0.82965 0.82965 56.251 0 1-0.51213-0.76649v-1.2038a0.55433 0.55433 135 0 1 0.55434-0.55433h0.87375a0.44435 0.44435 128.72 0 0 0.4337-0.54105l-0.41107-1.8437a0.69154 0.69154 38.715 0 0-0.67497-0.54105l-3.5749-3e-7a0.69154 0.69154 141.28 0 0-0.67497 0.54105zm2.9745 6.0756 2.3723 0.98359a1.3388 1.3388 45.011 0 1 0.72418 0.72445l0.98007 2.3663a1.3388 1.3388 89.994 0 1 1.04e-4 1.0243l-0.98027 2.3682a1.3388 1.3388 134.98 0 1-0.72404 0.7246l-2.3705 0.98338a1.3366 1.3366 179.99 0 1-1.0241 1.04e-4l-2.3723-0.98359a1.3388 1.3388 45.011 0 1-0.72418-0.72445l-0.98006-2.3663a1.3388 1.3388 89.994 0 1-1.05e-4 -1.0243l0.98028-2.3682a1.3388 1.3388 134.98 0 1 0.72404-0.7246l2.3705-0.98338a1.3366 1.3366 179.99 0 1 1.0241-1.03e-4z" fill="#fff"/></svg>
