<?xml version="1.0" encoding="UTF-8"?>
<svg width="32" height="32" version="1.1" viewBox="0 0 32 32" xml:space="preserve" xmlns="http://www.w3.org/2000/svg"><rect x=".4923" y=".4923" width="31.02" height="31.02" ry="4.258" fill="#643893" stroke="#371a4a" stroke-width=".9846"/><g transform="matrix(.025 0 0 .025 3.9322 28)" fill="#fff"><path d="m479.4-216.84 131.71-298.78q3.96-9.23-1.33-17.19-5.3-7.96-15.01-7.96h-92.77v-201.22q0-7.7-7.12-8.82-7.11-1.11-10.29 5.36l-131.7 299.51q-3.96 9.25 1.33 17.21 5.3 7.96 15.01 7.96h92.77v200.48q0 7.67 7.12 8.79 7.11 1.11 10.28-5.34zm0.67 116.84q-78.84 0-148.21-29.92t-120.68-81.21-81.25-120.63q-29.93-69.34-29.93-148.17 0-78.84 29.92-148.21t81.21-120.68 120.63-81.25q69.34-29.93 148.17-29.93 78.84 0 148.21 29.92t120.68 81.21 81.25 120.63q29.93 69.34 29.93 148.17 0 78.84-29.92 148.21t-81.21 120.68-120.63 81.25q-69.34 29.93-148.17 29.93zm-0.07-380m0 320q133 0 226.5-93.5t93.5-226.5-93.5-226.5-226.5-93.5-226.5 93.5-93.5 226.5 93.5 226.5 226.5 93.5z"/></g></svg>
