<?xml version="1.0" encoding="UTF-8"?>
<svg width="32" height="32" version="1.1" viewBox="0 0 32 32" xml:space="preserve" xmlns="http://www.w3.org/2000/svg"><rect x=".4923" y=".4923" width="31.02" height="31.02" ry="4.258" fill="#643893" stroke="#371a4a" stroke-width=".9846"/><path d="m9.0949 20.976q-0.57552 0-0.97864-0.40256-0.40284-0.40256-0.40284-0.97781 0-0.57497 0.40284-0.97864 0.40312-0.40394 0.97864-0.40394h13.815q0.57552 0 0.97864 0.40256 0.40284 0.40256 0.40284 0.97754 0 0.57525-0.40284 0.97892-0.40312 0.40394-0.97864 0.40394zm0-7.1837q-0.57552 0-0.97864-0.40256-0.40284-0.40256-0.40284-0.97754 0-0.57525 0.40284-0.97892 0.40312-0.40394 0.97864-0.40394h13.815q0.57552 0 0.97864 0.40256 0.40284 0.40256 0.40284 0.97781 0 0.57497-0.40284 0.97864-0.40312 0.40394-0.97864 0.40394z" fill="#fff" stroke-width=".02763"/></svg>
