<?xml version="1.0" encoding="UTF-8"?>
<svg width="32" height="32" version="1.1" viewBox="0 0 32 32" xml:space="preserve" xmlns="http://www.w3.org/2000/svg"><rect x=".4923" y=".4923" width="31.02" height="31.02" ry="4.258" fill="#643893" stroke="#371a4a" stroke-width=".9846"/><path d="m9.4868 21.322 1.5322 1.5322q0.24027 0.24056 0.24606 0.59574 0.0056 0.3549-0.26632 0.62701-0.24924 0.24895-0.6079 0.24895-0.35837 0-0.60993-0.25156l-2.8843-2.8841q-0.16645-0.16645-0.23303-0.34824-0.066869-0.18208-0.066869-0.38992 0-0.20784 0.066869-0.38819 0.06658-0.18034 0.23303-0.3465l2.8843-2.8843q0.24056-0.24056 0.59545-0.24606 0.35519-0.0056 0.62469 0.24374 0.2695 0.27182 0.2695 0.62122 0 0.34969-0.2695 0.61919l-1.5143 1.5143h5.1906q0.36908 0 0.6189 0.24982 0.24953 0.24953 0.24953 0.6189 0 0.36908-0.24953 0.61861-0.24982 0.24924-0.6189 0.24924zm9.2997 0.05587q-0.39253 0-0.65885-0.26545-0.26603-0.26574-0.26603-0.65798 0-0.39253 0.26545-0.65856 0.26574-0.26632 0.65798-0.26632 0.39253 0 0.65885 0.26574 0.26603 0.26545 0.26603 0.65798 0 0.39224-0.26545 0.65856-0.26574 0.26603-0.65798 0.26603zm4.1638 0q-0.39253 0-0.65856-0.26545-0.26603-0.26574-0.26603-0.65798 0-0.39253 0.26545-0.65856 0.26545-0.26632 0.65798-0.26632t0.65856 0.26574q0.26603 0.26545 0.26603 0.65798 0 0.39224-0.26545 0.65856-0.26545 0.26603-0.65798 0.26603zm-0.42148-8.9628h-5.2016q-0.36908 0-0.6189-0.24982-0.24953-0.24953-0.24953-0.6189 0-0.36908 0.24953-0.61861 0.24982-0.24924 0.6189-0.24924h5.1906l-1.5322-1.5322q-0.24027-0.24056-0.24606-0.59574-0.0056-0.3549 0.26632-0.62701 0.24924-0.24895 0.6079-0.24895 0.35837 0 0.60993 0.25156l2.8843 2.8841q0.16645 0.16645 0.23303 0.34824 0.06687 0.18208 0.06687 0.38992 0 0.20784-0.06687 0.38819-0.06658 0.18034-0.22927 0.34274l-2.8991 2.8994q-0.23766 0.24027-0.5943 0.24027-0.35664 0-0.61485-0.24027-0.2695-0.2585-0.264-0.61919 0.0058-0.36069 0.264-0.6189zm-13.473 0.05587q-0.39253 0-0.65856-0.26574-0.26603-0.26545-0.26603-0.65798 0-0.39224 0.26545-0.65856 0.26545-0.26603 0.65798-0.26603 0.39253 0 0.65856 0.26545 0.26603 0.26574 0.26603 0.65798 0 0.39253-0.26545 0.65856-0.26545 0.26632-0.65798 0.26632zm4.1641 0q-0.39253 0-0.65885-0.26574-0.26603-0.26545-0.26603-0.65798 0-0.39224 0.26545-0.65856 0.26574-0.26603 0.65798-0.26603 0.39253 0 0.65885 0.26545 0.26603 0.26574 0.26603 0.65798 0 0.39253-0.26545 0.65856-0.26574 0.26632-0.65798 0.26632z" fill="#fff" stroke-width=".028948"/></svg>
