<?xml version="1.0" encoding="UTF-8"?>
<svg width="32" height="32" version="1.1" viewBox="0 0 32 32" xml:space="preserve" xmlns="http://www.w3.org/2000/svg"><rect x=".4923" y=".4923" width="31.02" height="31.02" ry="4.258" fill="#643893" stroke="#371a4a" stroke-width=".9846"/><path d="m23.546 16.75h-6.077q-0.275 2.3288-1.575 4.2202-1.3 1.8912-3.3942 2.926 0.01725 1.1922-0.77975 2.023t-1.9702 0.83075q-1.1442 0-1.947-0.803-0.803-0.80275-0.803-1.947t0.803-1.947q0.80275-0.803 1.947-0.803 0.69425 0 1.2952 0.3365t0.978 0.90975q1.6192-0.89625 2.6402-2.405 1.0212-1.5085 1.275-3.3412h-3.5615q-0.24225 0.89025-0.974 1.4452-0.73175 0.55475-1.653 0.55475-1.1442 0-1.947-0.803-0.803-0.80275-0.803-1.947t0.803-1.947q0.80275-0.803 1.947-0.803 0.92125 0 1.653 0.55475 0.73175 0.555 0.974 1.4452h3.5615q-0.25375-1.8328-1.275-3.3318-1.021-1.499-2.6402-2.4145-0.377 0.57325-0.978 0.90975t-1.2952 0.3365q-1.1442 0-1.947-0.803-0.803-0.80275-0.803-1.947t0.803-1.947q0.80275-0.803 1.947-0.803 1.1732 0 1.9702 0.83075t0.77975 2.023q2.0635 1.05 3.379 2.9338 1.3152 1.8838 1.5902 4.2125h6.077l-1.323-1.323q-0.20775-0.20775-0.2125-0.52225-5e-3 -0.31425 0.2125-0.53175 0.21725-0.21725 0.52675-0.21725 0.30975 0 0.527 0.21725l2.4942 2.4942q0.14025 0.1405 0.198 0.29625t0.05775 0.3365-0.05775 0.3365-0.198 0.29625l-2.4942 2.4942q-0.20775 0.2075-0.522 0.2125-0.3145 0.0047-0.53175-0.2125-0.2175-0.2175-0.2175-0.527t0.2175-0.527z" fill="#fff" stroke-width=".025"/></svg>
