<?xml version="1.0" encoding="UTF-8"?>
<svg width="32" height="32" version="1.1" viewBox="0 0 32 32" xml:space="preserve" xmlns="http://www.w3.org/2000/svg"><rect x=".4923" y=".4923" width="31.02" height="31.02" ry="4.258" fill="#643893" stroke="#371a4a" stroke-width=".9846"/><g transform="matrix(.025 0 0 .025 4 27.981)" fill="#fff"><path d="m510-235.46v145.46q0 12.77-8.62 21.38-8.61 8.62-21.38 8.62t-21.38-8.62q-8.62-8.61-8.62-21.38v-145.46l-30.62 30.61q-8.3 8.31-20.57 8.5t-21.58-9.11q-8.69-8.69-8.69-21.08 0-12.38 8.69-21.08l77.46-77.46q10.85-10.84 25.31-10.84t25.31 10.84l77.46 77.46q8.31 8.31 8.81 20.58t-8.81 21.58q-8.69 8.69-20.77 9-12.08 0.3-21.38-8.39zm-274.54-214.54h-145.46q-12.77 0-21.38-8.62-8.62-8.61-8.62-21.38t8.62-21.38q8.61-8.62 21.38-8.62h145.46l-30.61-30.62q-8.31-8.3-8.5-20.57t9.11-21.58q8.69-8.69 21.08-8.69 12.38 0 21.08 8.69l77.46 77.46q10.84 10.85 10.84 25.31t-10.84 25.31l-77.46 77.46q-8.31 8.31-20.58 8.81t-21.58-8.81q-8.69-8.69-9-20.77-0.3-12.08 8.39-21.38zm489.08 0 30.61 30.62q8.31 8.3 8.5 20.57t-9.11 21.58q-8.69 8.69-21.08 8.69-12.38 0-21.08-8.69l-77.46-77.46q-10.84-10.85-10.84-25.31t10.84-25.31l77.46-77.46q8.31-8.31 20.58-8.81t21.58 8.81q8.69 8.69 9 20.77 0.3 12.08-8.39 21.38l-30.61 30.62h145.46q12.77 0 21.38 8.62 8.62 8.61 8.62 21.38t-8.62 21.38q-8.61 8.62-21.38 8.62zm-244.54 19.61q-20.77 0-35.19-14.42t-14.42-35.19 14.42-35.19 35.19-14.42 35.19 14.42 14.42 35.19-14.42 35.19-35.19 14.42zm-30-294.15v-145.46q0-12.77 8.62-21.38 8.61-8.62 21.38-8.62t21.38 8.62q8.62 8.61 8.62 21.38v145.46l30.62-30.61q8.3-8.31 20.57-8.5t21.58 9.11q8.69 8.69 8.69 21.08 0 12.38-8.69 21.08l-77.46 77.46q-10.85 10.84-25.31 10.84t-25.31-10.84l-77.46-77.46q-8.31-8.31-8.81-20.58t8.81-21.58q8.69-8.69 20.77-9 12.08-0.3 21.38 8.39z"/></g></svg>
