<?xml version="1.0" encoding="UTF-8"?>
<svg width="32" height="32" version="1.1" viewBox="0 0 32 32" xml:space="preserve" xmlns="http://www.w3.org/2000/svg"><rect x=".4923" y=".4923" width="31.02" height="31.02" ry="4.258" fill="#643893" stroke="#371a4a" stroke-width=".9846"/><path transform="matrix(.025 0 0 .025 4 28)" d="m212.31-140q-29.92 0-51.12-21.19-21.19-21.2-21.19-51.12v-387.69q0-91.54 64.23-155.77t155.77-64.23h240q91.54 0 155.77 64.23t64.23 155.77v387.69q0 29.92-21.19 51.12-21.2 21.19-51.12 21.19zm0-60h535.38q5.39 0 8.85-3.46t3.46-8.85v-387.69q0-66-47-113t-113-47h-240q-66 0-113 47t-47 113v387.69q0 5.39 3.46 8.85t8.85 3.46zm147.69-290q-29.15 0-49.58-20.42-20.42-20.43-20.42-49.58t20.42-49.58q20.43-20.42 49.58-20.42t49.58 20.42q20.42 20.43 20.42 49.58t-20.42 49.58q-20.43 20.42-49.58 20.42zm240 0q-29.15 0-49.58-20.42-20.42-20.43-20.42-49.58t20.42-49.58q20.43-20.42 49.58-20.42t49.58 20.42q20.42 20.43 20.42 49.58t-20.42 49.58q-20.43 20.42-49.58 20.42zm-310 290v-77.69q0-29.92 21.19-51.12 21.2-21.19 51.12-21.19h235.38q29.92 0 51.12 21.19 21.19 21.2 21.19 51.12v77.69h-60v-77.69q0-5.39-3.46-8.85t-8.85-3.46h-87.69v90h-60v-90h-87.69q-5.39 0-8.85 3.46t-3.46 8.85v77.69zm-77.69 0h547.69-560z" fill="#fff"/></svg>
