<?xml version="1.0" encoding="UTF-8"?>
<svg width="32" height="32" version="1.1" viewBox="0 0 32 32" xml:space="preserve" xmlns="http://www.w3.org/2000/svg"><rect x=".4923" y=".4923" width="31.02" height="31.02" ry="4.258" fill="#643893" stroke="#371a4a" stroke-width=".9846"/><path transform="matrix(.025 0 0 .025 4.0014 28.003)" d="m414.63-853.64c-2.0921 0.00499-4.2527 0.22812-6.4844 0.70312-88.253 17.693-161.05 61.351-218.44 130.94-57.38 69.593-86.094 150.29-86.094 242.03 1e-5 91.073 28.82 171.13 86.406 240.31 57.593 69.18 130.5 113.18 218.75 131.95 8.92 1.8933 16.638 0.17228 23.125-5.2344 6.4933-5.4133 9.6875-12.913 9.6875-22.5 0-7.0267-2.3875-13.608-7.1875-19.688-4.7933-6.0733-10.708-10.053-17.734-11.953-73.38-17.127-133.9-54.577-181.56-112.34-47.667-57.773-71.484-124.6-71.484-200.55 1e-5 -76.207 23.818-143.6 71.484-202.11 47.667-58.513 108.18-95.691 181.56-111.48 7.0267-1.8933 12.941-5.7673 17.734-11.641 4.8-5.8733 7.1875-12.348 7.1875-19.375 0-9.5867-3.3067-17.121-10-22.734-5.02-4.215-10.677-6.3431-16.953-6.3281zm134.77 0c-6.2762-0.015-11.933 2.1131-16.953 6.3281-6.6933 5.6133-10.078 13.148-10.078 22.734 0 7.0267 2.5 13.502 7.5 19.375 5 5.8733 11.02 9.7473 18.047 11.641 19.233 4 38.051 10.02 56.484 18.047 18.44 8.0267 36.501 17.754 54.141 29.141 6.6133 4.0467 13.548 5.5264 20.781 4.4531 7.2267-1.08 13.252-4.1702 18.125-9.2969 6.7667-7.0267 9.6948-14.986 8.8281-23.906-0.87332-8.9267-5.2002-15.967-13.047-21.094-21.433-14.1-43.584-25.85-66.484-35.156-22.9-9.3133-46.506-16.489-70.859-21.562-2.2317-0.475-4.3923-0.69813-6.4844-0.70312zm228.05 150.08c-8.72-0.79333-16.574 2.2702-23.594 9.2969-5.1333 5.1267-7.9804 11.466-8.5938 18.906-0.61333 7.4333 1.1096 14.262 5.1562 20.469 10.467 16.047 19.494 33.173 27.188 51.406 7.6867 18.233 13.578 37.562 17.578 57.969 1.9 7.0267 5.6596 13.047 11.406 18.047 5.74 5 12.192 7.5 19.219 7.5 10 0 17.96-3.4906 23.906-10.391 5.9467-6.8933 7.9871-14.823 6.0938-23.75-5.3333-25.893-12.561-49.765-21.641-71.719-9.0733-21.947-21.064-43.751-35.938-65.391-5.1267-7.4333-12.061-11.544-20.781-12.344zm-364.77 32.109c-34.2 0-63.269 12.019-87.266 36.016s-36.016 53.144-36.016 87.344v217.27c0 11.178 3.9582 20.673 11.875 28.594 7.9205 7.9168 17.493 11.875 28.672 11.875h300c11.178 0 20.751-3.9582 28.672-11.875 7.9168-7.9205 11.875-17.415 11.875-28.594v-217.27c0-34.2-12.019-63.347-36.016-87.344s-53.065-36.016-87.266-36.016h-134.53zm0 33.672h134.53c24.658 0 45.722 8.7685 63.281 26.328 17.56 17.56 26.406 38.701 26.406 63.359v217.27c0 2.0138-0.66043 3.6292-1.9531 4.9219s-2.9862 1.9531-5 1.9531h-43.516v-43.516c0-11.178-3.9582-20.751-11.875-28.672-7.9205-7.9168-17.493-11.875-28.672-11.875h-131.88c-11.178 0-20.751 3.9582-28.672 11.875-7.9168 7.9205-11.875 17.493-11.875 28.672v43.516h-43.516c-2.0138 0-3.7073-0.66044-5-1.9531s-1.9531-2.9081-1.9531-4.9219v-217.27c0-24.658 8.8466-45.8 26.406-63.359 17.56-17.56 38.623-26.328 63.281-26.328zm0 72.812c-10.891 0-20.102 3.8553-27.734 11.484-7.6291 7.6328-11.484 16.844-11.484 27.734 1e-5 10.891 3.8553 20.18 11.484 27.812 7.6328 7.6291 16.844 11.484 27.734 11.484 10.891 0 20.18-3.8553 27.812-11.484 7.6291-7.6328 11.406-16.922 11.406-27.812 1e-5 -10.891-3.7771-20.102-11.406-27.734-7.6328-7.6291-16.922-11.484-27.812-11.484zm134.53 0c-10.891 0-20.18 3.8553-27.812 11.484-7.6291 7.6328-11.406 16.844-11.406 27.734 1e-5 10.891 3.7772 20.18 11.406 27.812 7.6328 7.6291 16.922 11.484 27.812 11.484 10.891 0 20.102-3.8553 27.734-11.484 7.6291-7.6328 11.484-16.922 11.484-27.812s-3.8553-20.102-11.484-27.734c-7.6328-7.6291-16.844-11.484-27.734-11.484zm279.53 125c-7.0267 0-13.536 2.5-19.609 7.5-6.08 5-10.053 10.942-11.953 17.969-4.2533 20.153-10.168 39.347-17.734 57.5-7.56 18.153-16.702 35.493-27.422 51.953-4.0533 6.2067-5.7467 12.957-5 20.391 0.74 7.44 3.6948 13.78 8.8281 18.906 7.02 7.0267 14.844 10.092 23.438 9.2188 8.5867-0.87333 15.42-5.0667 20.547-12.5 14.36-20.873 26.268-42.727 35.781-65.547 9.5133-22.82 16.743-46.561 21.562-71.328 2.3067-8.9267 0.61333-16.857-5-23.75-5.6133-6.9-13.438-10.312-23.438-10.312zm-412.73 65.547h49.141v50.469h-56.094v-43.516c1e-5 -2.0138 0.66044-3.7073 1.9531-5s2.9862-1.9531 5-1.9531zm82.734 0h49.141c2.0138 0 3.7073 0.66043 5 1.9531s1.9531 2.9862 1.9531 5v43.516h-56.094v-50.469zm174.53 157.11c-5.49 0.34-10.621 2.0381-15.391 5.0781-16.2 10.873-33.437 20.091-51.797 27.578-18.36 7.4867-37.578 13.325-57.578 17.578-7.0267 1.9-12.941 5.7444-17.734 11.484-4.7933 5.7467-7.1875 12.114-7.1875 19.141 0 10 3.3915 17.854 10.078 23.594 6.6933 5.7467 14.511 7.544 23.438 5.3906 25.127-5.3333 49.055-12.509 71.875-21.562s44.705-20.666 65.625-34.766c7.8467-5.1267 12.144-12.066 12.891-20.859 0.74-8.8-2.355-16.723-9.375-23.75-5.1333-5.1267-11.579-8.01-19.219-8.75-1.91-0.18667-3.795-0.26958-5.625-0.15625z" fill="#fff"/></svg>
