<?xml version="1.0" encoding="UTF-8"?>
<svg width="32" height="32" version="1.1" viewBox="0 0 32 32" xml:space="preserve" xmlns="http://www.w3.org/2000/svg"><rect x=".4923" y=".4923" width="31.02" height="31.02" ry="4.258" fill="#643893" stroke="#371a4a" stroke-width=".9846"/><path d="m18.417 24.256-5.4172-1.8942-4.2758 1.6542q-0.23 0.092-0.44475 0.058-0.2145-0.034-0.39525-0.14725t-0.2825-0.306q-0.10175-0.1925-0.10175-0.44175v-13.098q0-0.30375 0.15875-0.537 0.1585-0.2335 0.44525-0.33925l4.3038-1.4598q0.13675-0.05 0.28475-0.075t0.3075-0.025 0.3075 0.025 0.28475 0.075l5.4078 1.8942 4.2758-1.6542q0.23-0.092 0.44475-0.058 0.2145 0.034 0.39525 0.14725t0.2825 0.306q0.10175 0.1925 0.10175 0.44175v13.142q0 0.3045-0.173 0.53525-0.17325 0.23075-0.46925 0.3365l-4.275 1.4308q-0.1405 0.05-0.2845 0.07025t-0.299 0.02025-0.29825-0.025-0.28375-0.075zm-0.16725-1.6288v-11.7l-4.5-1.5732v11.7zm1.5 0 3.25-1.077v-11.85l-3.25 1.227zm-10.75-0.327 3.25-1.2462v-11.7l-3.25 1.0962zm10.75-11.373v11.7zm-7.5-1.5732v11.7z" fill="#fff" stroke-width=".025"/></svg>
