<?xml version="1.0" encoding="UTF-8"?>
<svg width="32" height="32" version="1.1" viewBox="0 0 32 32" xml:space="preserve" xmlns="http://www.w3.org/2000/svg"><rect x=".4923" y=".4923" width="31.02" height="31.02" ry="4.258" fill="#643893" stroke="#371a4a" stroke-width=".9846"/><path d="m7.3101 24.384q-0.748 0-1.278-0.52975-0.52975-0.52975-0.52975-1.2778v-11.288q0-0.31925 0.2155-0.5345 0.21525-0.2155 0.5345-0.2155t0.5345 0.2155q0.2155 0.21525 0.2155 0.5345v11.288q0 0.1345 0.0865 0.221t0.22125 0.0865h15.442q0.31925 0 0.5345 0.2155 0.2155 0.21525 0.2155 0.5345t-0.2155 0.53475q-0.21525 0.21525-0.5345 0.21525zm3.5-3.5q-0.74825 0-1.278-0.52975-0.52975-0.52975-0.52975-1.2778v-10.769q0-0.748 0.52975-1.278 0.52975-0.52975 1.278-0.52975h4.2325q0.36175 0 0.69525 0.1405 0.33375 0.14025 0.57975 0.3865l1.4732 1.473h6.9038q0.748 0 1.278 0.52975 0.52975 0.53 0.52975 1.278v8.7692q0 0.748-0.52975 1.2778-0.53 0.52975-1.278 0.52975zm0-1.4998h13.884q0.13475 0 0.22125-0.08675 0.0865-0.0865 0.0865-0.221v-8.7692q0-0.13475-0.0865-0.22125t-0.22125-0.0865h-7.5172l-2-2h-4.3672q-0.13475 0-0.22125 0.0865t-0.0865 0.22125v10.769q0 0.1345 0.0865 0.221 0.0865 0.08675 0.22125 0.08675zm-0.30775 0v-11.385z" fill="#fff" stroke-width=".025"/></svg>
