<?xml version="1.0" encoding="UTF-8"?>
<svg width="32" height="32" version="1.1" viewBox="0 0 32 32" xml:space="preserve" xmlns="http://www.w3.org/2000/svg"><rect x=".4923" y=".4923" width="31.02" height="31.02" ry="4.258" fill="#643893" stroke="#371a4a" stroke-width=".9846"/><path d="m7.3105 5.5c-0.50517 0-0.9332 0.17539-1.2832 0.52539-0.35 0.35-0.52539 0.77804-0.52539 1.2832v2.0566c0 0.2125 0.07313 0.39149 0.2168 0.53516 0.1435 0.14383 0.32054 0.21484 0.5332 0.21484 0.2125 0 0.39132-0.071011 0.53516-0.21484 0.14383-0.14367 0.21484-0.32266 0.21484-0.53516v-2.0566c0-0.089833 0.028271-0.16499 0.085938-0.22266 0.057667-0.057667 0.13282-0.085938 0.22266-0.085938h2.0566c0.2125 0 0.39149-0.071177 0.53516-0.21484 0.14383-0.1435 0.21484-0.32249 0.21484-0.53516 0-0.2125-0.071012-0.39132-0.21484-0.53516-0.14367-0.14383-0.32266-0.21484-0.53516-0.21484h-2.0566zm15.326 0c-0.2125 0-0.38954 0.071177-0.5332 0.21484-0.14383 0.1435-0.2168 0.32249-0.2168 0.53516 0 0.2125 0.072964 0.39132 0.2168 0.53516 0.14367 0.14383 0.3207 0.21484 0.5332 0.21484h2.0586c0.089833 0 0.16304 0.028271 0.2207 0.085938 0.05767 0.057667 0.085937 0.13282 0.085937 0.22266v2.0566c0 0.2125 0.07313 0.39149 0.2168 0.53516 0.1435 0.14383 0.32054 0.21484 0.5332 0.21484 0.2125 0 0.39132-0.071011 0.53516-0.21484 0.14383-0.14367 0.21484-0.32266 0.21484-0.53516v-2.0566c0-0.50517-0.17539-0.9332-0.52539-1.2832-0.35-0.35-0.77608-0.52539-1.2812-0.52539h-2.0586zm-8.5215 3.9473c-1.2981 0-2.4017 0.45454-3.3125 1.3652-0.91069 0.91083-1.3672 2.0164-1.3672 3.3145s0.45649 2.4017 1.3672 3.3125c0.91083 0.91069 2.016 1.3672 3.3145 1.3672 0.52889 0 1.04-0.088108 1.5371-0.26172s0.95443-0.41812 1.3711-0.73438l4.5879 4.5664c0.1207 0.12069 0.2495 0.17969 0.38672 0.17969 0.13736 0 0.26602-0.058994 0.38672-0.17969 0.12069-0.12069 0.18037-0.2478 0.17773-0.38086-0.002639-0.13306-0.062318-0.25777-0.17773-0.37305l-4.5859-4.5859c0.30556-0.40056 0.54754-0.85043 0.72656-1.3477 0.17889-0.49708 0.26758-1.0176 0.26758-1.5625 0-1.2985-0.45454-2.4036-1.3652-3.3145-0.91083-0.91069-2.0164-1.3652-3.3145-1.3652zm0 1.082c1.0043 0 1.8543 0.35021 2.5508 1.0469 0.69666 0.69653 1.0469 1.5465 1.0469 2.5508 0 1.0043-0.35021 1.8543-1.0469 2.5508-0.69653 0.69667-1.5465 1.0449-2.5508 1.0449-1.0043 0-1.8543-0.34826-2.5508-1.0449-0.69667-0.69653-1.0449-1.5465-1.0449-2.5508 0-1.0043 0.34826-1.8543 1.0449-2.5508 0.69653-0.69667 1.5465-1.0469 2.5508-1.0469zm-7.8633 11.355c-0.2125 0-0.38937 0.071011-0.5332 0.21484-0.14383 0.14367-0.2168 0.32266-0.2168 0.53516v2.0566c0 0.50517 0.17539 0.9332 0.52539 1.2832 0.35 0.35 0.77804 0.52539 1.2832 0.52539h2.0566c0.2125 0 0.39149-0.071177 0.53516-0.21484 0.14383-0.1435 0.21484-0.32249 0.21484-0.53516 0-0.2125-0.071012-0.39132-0.21484-0.53516-0.14367-0.14383-0.32266-0.21484-0.53516-0.21484h-2.0566c-0.089833 0-0.16499-0.028271-0.22266-0.085938-0.057667-0.057666-0.085938-0.13283-0.085938-0.22266v-2.0566c0-0.2125-0.071177-0.39149-0.21484-0.53516-0.1435-0.14383-0.32249-0.21484-0.53516-0.21484zm19.5 0c-0.2125 0-0.38937 0.071011-0.5332 0.21484-0.14383 0.14367-0.2168 0.32266-0.2168 0.53516v2.0566c0 0.089833-0.028267 0.16499-0.085937 0.22266-0.057667 0.05767-0.13087 0.085938-0.2207 0.085938h-2.0586c-0.2125 0-0.38954 0.071177-0.5332 0.21484-0.14383 0.1435-0.2168 0.32249-0.2168 0.53516 0 0.2125 0.072964 0.39132 0.2168 0.53516 0.14367 0.14383 0.3207 0.21484 0.5332 0.21484h2.0586c0.50517 0 0.93125-0.17539 1.2812-0.52539 0.35-0.35 0.52539-0.77804 0.52539-1.2832v-2.0566c0-0.2125-0.071177-0.39149-0.21484-0.53516-0.1435-0.14383-0.32249-0.21484-0.53516-0.21484z" fill="#fff" stroke-width=".025"/></svg>
