<?xml version="1.0" encoding="UTF-8"?>
<svg width="32" height="32" version="1.1" viewBox="0 0 32 32" xml:space="preserve" xmlns="http://www.w3.org/2000/svg"><rect x=".4923" y=".4923" width="31.02" height="31.02" ry="4.258" fill="#643893" stroke="#371a4a" stroke-width=".9846"/><path d="m13 24.752q-1.5538 0-2.652-1.098-1.098-1.0982-1.098-2.652v-8.348q-0.875-0.325-1.4375-1.0395t-0.5625-1.6092q0-1.1472 0.80175-1.9502t1.947-0.803q1.1455 0 1.9482 0.803 0.803 0.803 0.803 1.9502 0 0.89475-0.5625 1.6092t-1.4375 1.0395v8.348q0 0.92825 0.6615 1.589 0.6615 0.661 1.5902 0.661 0.929 0 1.5888-0.661 0.6595-0.66075 0.6595-1.589v-10q0-1.5537 1.098-2.652 1.0982-1.098 2.652-1.098t2.652 1.098q1.098 1.0982 1.098 2.652v8.348q0.875 0.325 1.4375 1.0395t0.5625 1.6092q0 1.1472-0.80175 1.9502t-1.947 0.803q-1.1455 0-1.9482-0.803-0.803-0.803-0.803-1.9502 0-0.89475 0.5625-1.6218t1.4375-1.027v-8.348q0-0.92825-0.6615-1.589-0.6615-0.661-1.5902-0.661-0.929 0-1.5888 0.661-0.6595 0.66075-0.6595 1.589v10q0 1.5538-1.098 2.652-1.0982 1.098-2.652 1.098zm-3-13.5q0.52125 0 0.8855-0.3645 0.3645-0.36425 0.3645-0.8855 0-0.52125-0.3645-0.8855-0.36425-0.3645-0.8855-0.3645t-0.8855 0.3645q-0.3645 0.36425-0.3645 0.8855 0 0.52125 0.3645 0.8855 0.36425 0.3645 0.8855 0.3645zm12 12q0.52125 0 0.8855-0.3645 0.3645-0.36425 0.3645-0.8855t-0.3645-0.8855q-0.36425-0.3645-0.8855-0.3645t-0.8855 0.3645q-0.3645 0.36425-0.3645 0.8855t0.3645 0.8855q0.36425 0.3645 0.8855 0.3645z" fill="#fff" stroke-width=".025"/></svg>
