<?xml version="1.0" encoding="UTF-8"?>
<svg width="32" height="32" version="1.1" viewBox="0 0 32 32" xml:space="preserve" xmlns="http://www.w3.org/2000/svg"><rect x=".4923" y=".4923" width="31.02" height="31.02" ry="4.258" fill="#643893" stroke="#371a4a" stroke-width=".9846"/><path d="m16.038 23.5q-3.1408 0-5.3202-2.1792-2.1798-2.1792-2.1798-5.3192t2.1798-5.3208q2.1795-2.1808 5.3202-2.1808 1.7538 0 3.3192 0.77975 1.5652 0.78 2.6038 2.201v-2.2308q0-0.31875 0.21575-0.53425 0.21575-0.21575 0.5345-0.21575 0.319 0 0.53425 0.21575 0.2155 0.2155 0.2155 0.53425v4.4615q0 0.38425-0.25975 0.644-0.26 0.25975-0.644 0.25975h-4.4615q-0.31875 0-0.5345-0.2155-0.2155-0.21575-0.2155-0.53475 0-0.31875 0.2155-0.53425 0.21575-0.21525 0.5345-0.21525h3.2q-0.7905-1.4482-2.1925-2.2818-1.4018-0.83375-3.0652-0.83375-2.5 0-4.25 1.75t-1.75 4.25 1.75 4.25 4.25 1.75q1.7432 0 3.1918-0.9155 1.4485-0.91525 2.1948-2.4422 0.14225-0.273 0.41825-0.38175 0.276-0.1085 0.5625-0.0125 0.30575 0.09625 0.428 0.4 0.122 0.304-0.02025 0.577-0.929 1.9422-2.7425 3.1085-1.8135 1.1665-4.0325 1.1665z" fill="#fff" stroke-width=".025"/></svg>
