<?xml version="1.0" encoding="UTF-8"?>
<svg width="32" height="32" version="1.1" viewBox="0 0 32 32" xml:space="preserve" xmlns="http://www.w3.org/2000/svg"><rect x=".4923" y=".4923" width="31.02" height="31.02" ry="4.258" fill="#643893" stroke="#371a4a" stroke-width=".9846"/><path transform="matrix(.025 0 0 .025 4.0023 28)" d="m479.95-482.31q-46.33 0-78.14-31.81-31.81-31.8-31.81-78.14 0-45.43 31.81-77.74t78.14-32.31q45.43 0 77.74 32.31t32.31 77.74q0 46.34-32.31 78.14-32.31 31.81-77.74 31.81zm0.05-60q20.85 0 35.42-14.37 14.58-14.38 14.58-35.63 0-20.84-14.58-35.42-14.57-14.58-35.61-14.58t-35.43 14.58q-14.38 14.58-14.38 35.62 0 21.03 14.37 35.42 14.38 14.38 35.63 14.38zm-230 248.46v-29.84q0-18.54 9.36-34.88 9.36-16.33 25.41-26.05 44.46-26.23 93.81-39.65 49.34-13.42 101.42-13.42t101.42 13.42q49.35 13.42 93.81 39.65 16.05 9.72 25.41 26.05 9.36 16.34 9.36 34.88v29.84q0 15.37-10.39 25.76-10.4 10.4-25.76 10.4h-387.7q-15.36 0-25.76-10.4-10.39-10.39-10.39-25.76zm230-83.84q-42.92 0-85 11.53-42.08 11.54-81.31 33.85v15h332.62v-15.38q-38.85-22.31-81.12-33.66-42.27-11.34-85.19-11.34zm0-214.62m0 275h166.31-332.62zm-307.69 217.31q-30.31 0-51.31-21t-21-51.31v-117.69q0-12.75 8.63-21.38 8.63-8.62 21.38-8.62 12.76 0 21.37 8.62 8.62 8.63 8.62 21.38v117.69q0 4.62 3.85 8.46 3.84 3.85 8.46 3.85h117.69q12.75 0 21.38 8.63 8.62 8.63 8.62 21.38 0 12.76-8.62 21.37-8.63 8.62-21.38 8.62zm-72.31-570v-117.69q0-30.31 21-51.31t51.31-21h117.69q12.75 0 21.38 8.63 8.62 8.63 8.62 21.38 0 12.76-8.62 21.37-8.63 8.62-21.38 8.62h-117.69q-4.62 0-8.46 3.85-3.85 3.84-3.85 8.46v117.69q0 12.75-8.63 21.38-8.63 8.62-21.38 8.62-12.76 0-21.37-8.62-8.62-8.63-8.62-21.38zm687.69 570h-117.69q-12.75 0-21.38-8.63-8.62-8.63-8.62-21.38 0-12.76 8.62-21.37 8.63-8.62 21.38-8.62h117.69q4.62 0 8.46-3.85 3.85-3.84 3.85-8.46v-117.69q0-12.75 8.63-21.38 8.63-8.62 21.38-8.62 12.76 0 21.37 8.62 8.62 8.63 8.62 21.38v117.69q0 30.31-21 51.31t-51.31 21zm12.31-570v-117.69q0-4.62-3.85-8.46-3.84-3.85-8.46-3.85h-117.69q-12.75 0-21.38-8.63-8.62-8.63-8.62-21.38 0-12.76 8.62-21.37 8.63-8.62 21.38-8.62h117.69q30.31 0 51.31 21t21 51.31v117.69q0 12.75-8.63 21.38-8.63 8.62-21.38 8.62-12.76 0-21.37-8.62-8.62-8.63-8.62-21.38z" fill="#fff"/></svg>
