<?xml version="1.0" encoding="UTF-8"?>
<svg width="32" height="32" version="1.1" viewBox="0 0 32 32" xml:space="preserve" xmlns="http://www.w3.org/2000/svg"><rect x=".4923" y=".4923" width="31.02" height="31.02" ry="4.258" fill="#643893" stroke="#371a4a" stroke-width=".9846"/><path d="m14.288 6.6836c-0.2125-1e-7 -0.38937 0.071177-0.5332 0.21484-0.14383 0.14383-0.2168 0.32266-0.2168 0.53516v0.5c0 0.2125 0.07118 0.39149 0.21484 0.53516 0.1435 0.14383 0.32249 0.21484 0.53516 0.21484 0.2125 0 0.39132-0.070891 0.53516-0.21289 0.14383-0.14183 0.21484-0.31751 0.21484-0.52734v-0.50977c0-0.2125-0.07118-0.39132-0.21484-0.53516-0.1435-0.14367-0.32249-0.21484-0.53516-0.21484zm7.0762 0c-0.7539 0-1.3613 0.21094-1.8223 0.63281-0.46094 0.42187-0.69141 0.99219-0.69141 1.7109 0 0.42187 0.10938 0.79883 0.32812 1.1309 0.21875 0.33203 0.51758 0.5918 0.89648 0.7793-0.44531 0.19141-0.79492 0.47266-1.0488 0.84375-0.25 0.37109-0.375 0.78711-0.375 1.248 0 0.73437 0.24609 1.3223 0.73828 1.7637 0.49609 0.4375 1.1543 0.65625 1.9746 0.65625 0.8125 0 1.4668-0.21875 1.9629-0.65625 0.5-0.4375 0.75-1.0254 0.75-1.7637 0-0.46484-0.13086-0.88086-0.39258-1.248-0.25781-0.36719-0.60938-0.64648-1.0547-0.83789 0.38281-0.1875 0.68555-0.44726 0.9082-0.7793 0.22656-0.33203 0.33984-0.71094 0.33984-1.1367 0-0.71875-0.23242-1.2891-0.69727-1.7109-0.46094-0.42187-1.0664-0.63281-1.8164-0.63281zm0 0.89062c0.41406-1e-7 0.75586 0.13672 1.0254 0.41016 0.26953 0.27344 0.4043 0.62695 0.4043 1.0605 1e-6 0.43359-0.13086 0.78516-0.39258 1.0547-0.25781 0.26562-0.60352 0.39844-1.0371 0.39844s-0.78125-0.13281-1.043-0.39844c-0.25781-0.26953-0.38672-0.62109-0.38672-1.0547 0-0.45312 0.13086-0.81055 0.39258-1.0723 0.26562-0.26562 0.61133-0.39844 1.0371-0.39844zm-7.0762 3.1094c-0.2125 0-0.38937 0.07118-0.5332 0.21484-0.14383 0.14383-0.2168 0.32266-0.2168 0.53516v1.5c0 0.2125 0.07118 0.39149 0.21484 0.53516 0.1435 0.14383 0.32249 0.21484 0.53516 0.21484 0.2125 0 0.39132-0.07089 0.53516-0.21289 0.14383-0.14183 0.21484-0.31751 0.21484-0.52734v-1.5098c0-0.2125-0.07118-0.39132-0.21484-0.53516-0.1435-0.14367-0.32249-0.21484-0.53516-0.21484zm7.0645 0.70508c0.48828 0 0.88281 0.15039 1.1836 0.45117 0.30469 0.30078 0.45703 0.68945 0.45703 1.166 0 0.48047-0.14453 0.86133-0.43359 1.1426-0.28906 0.27734-0.6875 0.41602-1.1953 0.41602-0.51172 0-0.91211-0.13867-1.2012-0.41602-0.28516-0.27734-0.42773-0.6582-0.42773-1.1426 0-0.48437 0.14648-0.875 0.43945-1.1719 0.29687-0.29688 0.68945-0.44531 1.1777-0.44531zm-7.0645 4.2949c-0.2125 0-0.38937 0.07118-0.5332 0.21484-0.14383 0.14383-0.2168 0.32266-0.2168 0.53516v6.3965l-4.3359-4.3418c-0.14883-0.14863-0.32749-0.22532-0.53516-0.22852-0.20767-0.0033-0.38649 0.07335-0.53516 0.22852-0.1385 0.14867-0.20629 0.32744-0.20312 0.53711 0.00333 0.20966 0.074558 0.38315 0.21289 0.52148l5.5137 5.498c0.09367 0.0935 0.19304 0.16336 0.29688 0.20703 0.10383 0.0435 0.21432 0.06445 0.33398 0.06445s0.23322-0.02095 0.33789-0.06445c0.10467-0.04367 0.20321-0.11353 0.29688-0.20703l5.5234-5.498c0.1385-0.13833 0.20703-0.31277 0.20703-0.52344 0-0.21067-0.06775-0.3832-0.20508-0.51953-0.14983-0.14883-0.32787-0.22461-0.5332-0.22461s-0.37684 0.07048-0.51367 0.20898l-4.3613 4.3516v-6.4062c0-0.2125-0.07118-0.39132-0.21484-0.53516-0.1435-0.14367-0.32249-0.21484-0.53516-0.21484z" fill="#fff" stroke-width=".025"/></svg>
