<?xml version="1.0" encoding="UTF-8"?>
<svg width="32" height="32" version="1.1" viewBox="0 0 32 32" xml:space="preserve" xmlns="http://www.w3.org/2000/svg"><rect x=".4923" y=".4923" width="31.02" height="31.02" ry="4.258" fill="#643893" stroke="#371a4a" stroke-width=".9846"/><g transform="matrix(.025 0 0 .025 4.0023 27.612)" fill="#fff"><path d="m534.08-770.84 139 110.84h86.15q25.31 0 43.04 17.73t17.73 43.04v419.23h-680v-387.69q0-22.69 19.89-32.54 19.88-9.84 37.96 3.62l86.77 65.07 162.15-227.15q15.38-21.46 41.11-25.12 25.73-3.65 46.2 12.97zm-334.08 250.84v144l120 96 160-220 280 218v-318h-108l-156-125-198 278z"/></g></svg>
