<?xml version="1.0" encoding="UTF-8"?>
<svg width="32" height="32" version="1.1" viewBox="0 0 32 32" xml:space="preserve" xmlns="http://www.w3.org/2000/svg"><rect x=".4923" y=".4923" width="31.02" height="31.02" ry="4.258" fill="#643893" stroke="#371a4a" stroke-width=".9846"/><path d="m22.074 12.416q0.69825 0.54225 0.69825 1.4258 0 0.88375-0.69825 1.426l-2.2518 1.7422q-0.23275 0.1675-0.51175 0.14725-0.27875-0.02025-0.4865-0.228-0.248-0.248-0.21525-0.575 0.03275-0.32675 0.296-0.5345l2.2425-1.7328q0.125-0.096 0.125-0.24025t-0.125-0.2405l-5.2405-4.0652q-0.07675-0.0675-0.1875-0.0675-0.1105 0-0.197 0.0675l-1.804 1.3845q-0.2325 0.16725-0.5115 0.14725-0.27875-0.02025-0.4865-0.228-0.248-0.248-0.21525-0.575 0.0325-0.327 0.296-0.5345l1.804-1.4q0.50175-0.3865 1.1095-0.3865t1.1095 0.3865zm1.0868 13.792-4.127-4.127-2.2098 1.7115q-0.50175 0.3865-1.1095 0.3865t-1.1095-0.3865l-6.3175-4.9135q-0.294-0.223-0.29125-0.5855 3e-3 -0.3625 0.29725-0.59525 0.2075-0.15175 0.45575-0.15175 0.248 0 0.45575 0.15175l6.3172 4.8885q0.0865 0.06725 0.19225 0.06725t0.19225-0.06725l2.0328-1.5845-1.7405-1.7098h0.7155l-0.0905 0.05975q-0.50175 0.37675-1.1095 0.3845-0.60775 0.0078-1.1-0.37875l-5.2885-4.1098q-0.698-0.5325-0.69325-1.4068 5e-3 -0.874 0.69325-1.4065l0.03075-0.031-3.5422-3.5268q-0.223-0.22325-0.2355-0.53-0.0125-0.3065 0.22-0.53925 0.23275-0.23275 0.53475-0.23275t0.5345 0.23275l17.346 17.346q0.20775 0.2075 0.2125 0.522 0.0048 0.3145-0.2125 0.53175-0.21725 0.21725-0.527 0.21725-0.3095 0-0.52675-0.21725zm-7.4442-12.377m7.4345 3.8672q0.27875 0.23275 0.274 0.58275-0.0048 0.35-0.2835 0.598l-0.80025 0.63475q-0.2325 0.1825-0.5115 0.1625-0.27875-0.02025-0.4865-0.228-0.248-0.248-0.223-0.59025t0.30375-0.55l0.8-0.60975q0.20775-0.15175 0.4635-0.15175t0.4635 0.15175z" fill="#fff" stroke-width=".025"/></svg>
