<?xml version="1.0" encoding="UTF-8"?>
<svg width="32" height="32" version="1.1" viewBox="0 0 32 32" xml:space="preserve" xmlns="http://www.w3.org/2000/svg"><rect x=".4923" y=".4923" width="31.02" height="31.02" ry="4.258" fill="#643893" stroke="#371a4a" stroke-width=".9846"/><path transform="matrix(.025 0 0 .025 4 28.15)" d="m397.69-850q-12.75 0-21.37-8.63-8.63-8.63-8.63-21.38 0-12.76 8.63-21.37 8.62-8.62 21.37-8.62h164.62q12.75 0 21.37 8.63 8.63 8.63 8.63 21.38 0 12.76-8.63 21.37-8.62 8.62-21.37 8.62zm82.32 442.31q12.76 0 21.37-8.63 8.62-8.62 8.62-21.37v-164.62q0-12.75-8.63-21.37-8.63-8.63-21.38-8.63-12.76 0-21.37 8.63-8.62 8.62-8.62 21.37v164.62q0 12.75 8.63 21.37 8.63 8.63 21.38 8.63zm-0.01 307.69q-69.97 0-131.91-26.77t-108.24-73.08q-46.31-46.3-73.08-108.24t-26.77-131.91 26.77-131.91 73.08-108.24q46.3-46.31 108.24-73.08t131.91-26.77q60.08 0 115.73 20.39 55.65 20.38 103.35 58.38l28.77-28.77q8.3-8.31 20.88-8.5t21.27 8.5 8.69 21.08q0 12.38-8.69 21.07l-28.77 28.77q38 47.7 58.38 103.35 20.39 55.65 20.39 115.73 0 69.97-26.77 131.91t-73.08 108.24q-46.3 46.31-108.24 73.08t-131.91 26.77zm0-60q116 0 198-82t82-198-82-198-198-82-198 82-82 198 82 198 198 82z" fill="#fff"/></svg>
