<?xml version="1.0" encoding="UTF-8"?>
<svg width="32" height="32" version="1.1" viewBox="0 0 32 32" xml:space="preserve" xmlns="http://www.w3.org/2000/svg"><rect x=".4923" y=".4923" width="31.02" height="31.02" ry="4.258" fill="#643893" stroke="#371a4a" stroke-width=".9846"/><g transform="matrix(.025 0 0 .025 3.5 27.983)" fill="#fff"><path d="m480-538.46m0 438.46q-107.92 0-183.96-76.04t-76.04-183.96v-238.46q0-107.92 76.04-183.96t183.96-76.04 183.96 76.04 76.04 183.96v110.92q-15-2.85-30-3.04t-30 2.27v-50.15h-400v178.46q0 83 58.5 141.5t141.5 58.5q6.87 0 12.81-0.62 5.94-0.61 12.19-1.84v60.61q-6.25 1.23-12.19 1.54t-12.81 0.31zm-200-498.46h170v-197.54q-72.08 10.54-121.04 66.31t-48.96 131.23zm230 0h170q0-75.46-48.96-131.23t-121.04-66.31zm114.38 498.46q-14 0-24.38-10.39-10.39-10.38-10.39-24.38v-122q0-14 10.39-24 10.38-10 24.38-10h5.23v-40q0-31.46 21.97-53.42 21.96-21.96 53.42-21.96t53.42 21.96 21.96 53.42v40h5.23q14.16 0 24.28 10 10.11 10 10.11 24v122q0 14-10.11 24.38-10.12 10.39-24.28 10.39zm40.62-190.77h80v-40q0-17-11.5-28.5t-28.5-11.5-28.5 11.5-11.5 28.5z"/></g></svg>
