<?xml version="1.0" encoding="UTF-8"?>
<svg width="32" height="32" version="1.1" viewBox="0 0 32 32" xml:space="preserve" xmlns="http://www.w3.org/2000/svg"><rect x=".4923" y=".4923" width="31.02" height="31.02" ry="4.258" fill="#643893" stroke="#371a4a" stroke-width=".9846"/><path transform="matrix(.025 0 0 .025 4.0023 28)" d="m230-477.23q0 46.88 17.75 91.15 17.74 44.27 55.33 81.77l25.38 25.39v-79.54q0-12.75 8.63-21.38 8.63-8.62 21.38-8.62 12.76 0 21.38 8.62 8.61 8.63 8.61 21.38v149.23q0 15.36-10.39 25.76-10.4 10.39-25.76 10.39h-149.23q-12.75 0-21.38-8.63-8.62-8.63-8.62-21.38 0-12.76 8.62-21.37 8.63-8.62 21.38-8.62h86.92l-29.08-27.84q-49.3-45.62-70.11-102.2-20.81-56.57-20.81-114.11 0-90.54 46.46-164.92 46.46-74.39 124.77-114.62 10.92-6.08 22.96-1.38 12.04 4.69 15.89 16.72 3.84 11.28-0.47 22.78-4.32 11.51-15.3 17.65-61.46 33.15-97.89 92.65-36.42 59.51-36.42 131.12zm500-5.54q0-46.88-17.75-91.15-17.74-44.27-55.33-81.77l-25.38-25.39v79.54q0 12.75-8.63 21.38-8.63 8.62-21.38 8.62-12.76 0-21.38-8.62-8.61-8.63-8.61-21.38v-149.23q0-15.36 10.39-25.76 10.4-10.39 25.76-10.39h149.23q12.75 0 21.38 8.63 8.62 8.63 8.62 21.38 0 12.76-8.62 21.37-8.63 8.62-21.38 8.62h-86.92l29.08 27.84q47.39 47.39 69.16 103.01 21.76 55.61 21.76 113.36 0 90.48-46.27 164.67t-124.58 114.42q-10.92 6.08-22.96 1.58t-15.88-16.53q-3.85-11.28 0.5-22.81 4.34-11.54 14.88-17.62 61.46-33.15 97.89-92.65 36.42-59.51 36.42-131.12z" fill="#fff"/></svg>
