<?xml version="1.0" encoding="UTF-8"?>
<svg width="32" height="32" version="1.1" viewBox="0 0 32 32" xml:space="preserve" xmlns="http://www.w3.org/2000/svg"><rect x=".4923" y=".4923" width="31.02" height="31.02" ry="4.258" fill="#643893" stroke="#371a4a" stroke-width=".9846"/><path transform="matrix(.025 0 0 .025 3.75 28)" d="m270-410v290q0 12.75-8.63 21.37-8.63 8.63-21.38 8.63-12.76 0-21.37-8.63-8.62-8.62-8.62-21.37v-720q0-12.75 8.63-21.37 8.63-8.63 21.38-8.63 12.76 0 21.37 8.63 8.62 8.62 8.62 21.37v50h502.15q19.08 0 29.73 15.77 10.66 15.77 3.43 33.85l-56.08 140.38 56.08 140.38q7.23 18.08-3.43 33.85-10.65 15.77-29.73 15.77zm0-320v260zm230 200q29.15 0 49.58-20.42 20.42-20.43 20.42-49.58t-20.42-49.58q-20.43-20.42-49.58-20.42t-49.58 20.42q-20.42 20.43-20.42 49.58t20.42 49.58q20.43 20.42 49.58 20.42zm-230 60h466.62l-51.85-130 51.85-130h-466.62z" fill="#fff"/></svg>
