<?xml version="1.0" encoding="UTF-8" standalone="no"?>
<svg
   width="32"
   height="32"
   version="1.1"
   viewBox="0 0 32 32"
   xml:space="preserve"
   id="svg518"
   sodipodi:docname="user-location.svg"
   inkscape:version="1.2.2 (b0a8486541, 2022-12-01)"
   xmlns:inkscape="http://www.inkscape.org/namespaces/inkscape"
   xmlns:sodipodi="http://sodipodi.sourceforge.net/DTD/sodipodi-0.dtd"
   xmlns="http://www.w3.org/2000/svg"
   xmlns:svg="http://www.w3.org/2000/svg"><defs
     id="defs522" /><sodipodi:namedview
     id="namedview520"
     pagecolor="#ffffff"
     bordercolor="#000000"
     borderopacity="0.25"
     inkscape:showpageshadow="2"
     inkscape:pageopacity="0.0"
     inkscape:pagecheckerboard="0"
     inkscape:deskcolor="#d1d1d1"
     showgrid="false"
     inkscape:zoom="15.330385"
     inkscape:cx="20.319125"
     inkscape:cy="19.601596"
     inkscape:window-width="2560"
     inkscape:window-height="1360"
     inkscape:window-x="1920"
     inkscape:window-y="48"
     inkscape:window-maximized="1"
     inkscape:current-layer="svg518" /><rect
     x=".4923"
     y=".4923"
     width="31.02"
     height="31.02"
     ry="4.258"
     fill="#643893"
     stroke="#371a4a"
     stroke-width=".9846"
     id="rect514" /><path
     style="fill:#ffffff;fill-opacity:1;stroke:none;stroke-width:0.0487214"
     d="M 7.4145786,4.3356988 C 6.9323466,4.4047477 6.4721436,4.532865 6.0503844,4.7827933 5.708219,4.9855565 5.3987545,5.2298446 5.1393054,5.5328621 3.5007653,7.4465244 4.6580831,9.8513729 5.7230204,11.720469 c 0.4248898,0.745728 0.9151426,1.457546 1.4297546,2.143737 0.1657345,0.221 0.3707846,0.603706 0.7001056,0.560343 0.2803432,-0.03692 0.4501576,-0.356493 0.603018,-0.560343 C 8.8812365,13.297091 9.2772916,12.710973 9.6533235,12.11024 10.411866,10.898299 11.246217,9.4336379 11.310382,7.9689291 11.401152,5.8955114 9.5177811,4.0345364 7.4145786,4.3356988 m 0.048722,0.7727738 c 0.4026653,-0.052327 0.8329248,-0.00649 1.2180313,0.1198423 0.2956908,0.096985 0.5810503,0.2583692 0.8282636,0.4458262 1.9086065,1.4474179 0.7021705,3.9982318 -0.2630963,5.6078359 -0.3181488,0.530528 -0.6537924,1.049651 -1.0049017,1.559082 -0.087474,0.126919 -0.2576463,0.47713 -0.4372483,0.47713 -0.1796021,0 -0.3497806,-0.350211 -0.4372501,-0.47713 C 6.9951568,12.301423 6.6267113,11.753648 6.3013214,11.184535 5.3206968,9.4694479 4.1249063,6.7223453 6.4401521,5.450684 6.7569091,5.2767014 7.1042911,5.1551212 7.4633004,5.1084726 m 0.048722,0.7880322 C 5.0247798,6.3361617 5.6231545,10.186236 8.0966756,9.7490119 10.581413,9.3097889 9.983262,5.4596838 7.5120223,5.8965048 m 0.097443,0.7716083 C 9.0985342,6.4486628 9.5049674,8.7554839 7.9992337,8.9774109 6.5122073,9.1965589 6.1029536,6.890136 7.6094651,6.6681131 M 20.082119,11.476865 c -2.055455,0.596007 -2.533509,2.393968 -2.533509,4.287471 0,0.404439 -0.175786,1.368389 0.129259,1.673433 0.277419,0.277466 1.065535,0.129256 1.429822,0.129256 v 2.046295 c 0,0.219734 0.07567,0.617397 -0.05008,0.807898 -0.148987,0.225676 -0.604337,0.355421 -0.826897,0.51513 -0.680344,0.488236 -1.336572,1.213017 -1.412917,2.087467 h -0.828263 v 0.779536 h 0.828263 c 0.124678,1.427871 1.567072,2.30929 2.777114,2.748517 0.406188,0.147428 0.839419,0.238679 1.266754,0.300074 0.164045,0.02353 0.426896,-0.01704 0.534571,0.139441 0.115907,0.168377 0.05008,0.513468 0.05008,0.709672 h 0.779547 c 0,-0.196204 -0.06582,-0.541295 0.05008,-0.709672 0.107675,-0.156495 0.370527,-0.115913 0.53457,-0.139441 0.423829,-0.06085 0.863196,-0.147481 1.266756,-0.292673 1.206872,-0.434197 2.653359,-1.338756 2.777112,-2.755918 h 0.828261 v -0.779536 h -0.828258 c -0.09296,-1.064954 -1.228119,-2.341889 -2.289903,-2.533511 v -2.923279 c 0.36429,0 1.152406,0.14821 1.429825,-0.129256 0.305044,-0.305044 0.129258,-1.268994 0.129258,-1.673433 0,-1.820421 -0.464704,-3.79724 -2.533509,-4.287471 0.380368,-0.360784 0.689115,-0.758301 0.841856,-1.266755 0.129501,-0.4312831 0.173497,-0.8720641 0.08365,-1.3154751 -0.08555,-0.4223661 -0.236785,-0.8235179 -0.498662,-1.1693124 -1.766246,-2.3320221 -5.521,-0.4641728 -4.816881,2.3386215 0.143386,0.570673 0.459881,1.01243 0.8821,1.412921 m 1.46164,-4.0292499 c 2.493653,-0.3594853 3.093948,3.5067119 0.584654,3.8684679 -2.490729,0.359077 -3.095946,-3.5064333 -0.584654,-3.8684679 m 3.80026,9.3398699 h -0.779541 v -2.728392 h -0.77954 v 2.728392 h -3.897703 v -2.728392 h -0.779541 v 2.728392 h -0.779541 c 0,-1.174378 -0.222119,-2.548173 0.511087,-3.556655 0.75099,-1.03299 1.82734,-1.12059 2.996848,-1.12059 1.207654,0 2.335894,0.103824 3.064521,1.218032 0.653889,0.999957 0.443412,2.322692 0.443412,3.459213 M 7.4145786,15.228403 v 1.559082 H 8.1941194 V 15.228403 H 7.4145786 m 16.3703594,2.338622 v 5.45679 h -1.559081 v -4.287477 h -0.779542 v 4.287477 h -1.559082 v -5.45679 h 3.897705 M 7.4145786,18.346566 v 1.559082 H 8.1941194 V 18.346566 H 7.4145786 m 11.6931134,2.972001 v 1.607808 c 0,0.233611 -0.03936,0.522429 0.129259,0.711619 0.238003,0.267092 0.768871,0.165357 1.088773,0.165357 h 2.972002 c 0.32882,0 0.893109,0.108847 1.137495,-0.165357 0.168625,-0.18919 0.129258,-0.478008 0.129258,-0.711619 v -1.607808 c 0.72317,0.302705 1.302758,0.946263 1.51036,1.705248 h -0.73082 v 0.779536 h 0.73082 c -0.378857,1.636793 -2.386077,2.22315 -3.848982,2.338622 v -0.77954 h -0.779542 v 0.77954 c -1.463977,-0.115517 -3.470077,-0.70163 -3.848982,-2.338622 h 0.730818 v -0.779536 h -0.730818 c 0.207602,-0.758985 0.787191,-1.402543 1.510359,-1.705248 M 7.4145786,21.464731 v 1.559084 H 8.1941194 V 21.464731 H 7.4145786 m 0,3.118161 v 1.559081 H 8.1941194 V 24.582892 H 7.4145786 m 2.3386251,0.779541 v 0.77954 h 1.5590813 v -0.77954 H 9.7532037 m 3.1181633,0 v 0.77954 h 1.55908 v -0.77954 z"
     id="path2117" /></svg>
