<?xml version="1.0" encoding="UTF-8"?>
<svg width="32" height="32" version="1.1" viewBox="0 0 32 32" xml:space="preserve" xmlns="http://www.w3.org/2000/svg"><rect x=".4923" y=".4923" width="31.02" height="31.02" ry="4.258" fill="#643893" stroke="#371a4a" stroke-width=".9846"/><path transform="matrix(.025 0 0 .025 4.0023 27.99)" d="m214.54-449.62 92.69 92.7q8.31 8.92 8.42 21.19 0.12 12.27-8.8 21.19-8.93 8.92-20.7 8.92-11.76 0-20.69-8.92l-140.15-139.77q-5.62-5.61-7.92-11.84-2.31-6.23-2.31-13.47 0-7.23 2.31-13.46 2.3-6.23 7.92-11.84l139.77-139.77q8.92-8.92 20.88-8.92t20.89 8.92q9.3 8.92 9.11 21.38t-9.11 21.39l-91.93 91.92h530.16l-91.93-91.92q-8.3-8.93-8.8-21.39t8.8-21.38q8.93-8.92 21.08-8.73t21.08 9.11l139.38 139.39q5.62 5.61 7.92 11.84 2.31 6.23 2.31 13.46 0 7.24-2.31 13.47-2.3 6.23-7.92 11.84l-139.77 139.77q-8.92 8.92-20.69 8.92t-21.08-8.92q-9.3-8.92-9.3-21.38t9.3-21.77l91.93-91.93z" fill="#fff"/></svg>
