<?xml version="1.0" encoding="UTF-8" standalone="no"?>
<svg
   xmlns:dc="http://purl.org/dc/elements/1.1/"
   xmlns:cc="http://creativecommons.org/ns#"
   xmlns:rdf="http://www.w3.org/1999/02/22-rdf-syntax-ns#"
   xmlns:svg="http://www.w3.org/2000/svg"
   xmlns="http://www.w3.org/2000/svg"
   xmlns:sodipodi="http://sodipodi.sourceforge.net/DTD/sodipodi-0.dtd"
   xmlns:inkscape="http://www.inkscape.org/namespaces/inkscape"
   viewBox="0 0 240 240"
   version="1.1"
   id="svg22"
   sodipodi:docname="icon-telegram.svg"
   inkscape:version="0.92.3 (2405546, 2018-03-11)">
  <metadata
     id="metadata26">
    <rdf:RDF>
      <cc:Work
         rdf:about="">
        <dc:format>image/svg+xml</dc:format>
        <dc:type
           rdf:resource="http://purl.org/dc/dcmitype/StillImage" />
      </cc:Work>
    </rdf:RDF>
  </metadata>
  <sodipodi:namedview
     pagecolor="#ffffff"
     bordercolor="#666666"
     borderopacity="1"
     objecttolerance="10"
     gridtolerance="10"
     guidetolerance="10"
     inkscape:pageopacity="0"
     inkscape:pageshadow="2"
     inkscape:window-width="1310"
     inkscape:window-height="739"
     id="namedview24"
     showgrid="false"
     inkscape:zoom="1.3906433"
     inkscape:cx="170.35038"
     inkscape:cy="120"
     inkscape:window-x="56"
     inkscape:window-y="0"
     inkscape:window-maximized="1"
     inkscape:current-layer="svg22" />
  <defs
     id="defs12">
    <linearGradient
       id="b"
       x1="0.6667"
       y1="0.1667"
       x2="0.4167"
       y2="0.75">
      <stop
         stop-color="#37aee2"
         offset="0"
         id="stop2" />
      <stop
         stop-color="#1e96c8"
         offset="1"
         id="stop4" />
    </linearGradient>
    <linearGradient
       id="w"
       x1="0.6597"
       y1="0.4369"
       x2="0.8512"
       y2="0.8024">
      <stop
         stop-color="#eff7fc"
         offset="0"
         id="stop7" />
      <stop
         stop-color="#fff"
         offset="1"
         id="stop9" />
    </linearGradient>
  </defs>
  <path
     style="fill:#039be5;fill-opacity:0.94117647"
     d="M 120 0 A 120 120 0 0 0 0 120 A 120 120 0 0 0 120 240 A 120 120 0 0 0 240 120 A 120 120 0 0 0 120 0 z M 173.50586 72.183594 C 177.54142 72.036065 180.59845 75.686791 178.96094 82.251953 L 159.27539 175.01562 C 157.90079 181.60753 153.91889 183.18357 148.40039 180.13867 L 118.41211 157.98438 L 104 172 C 102.3255 173.628 101 175 98 175 C 94.1124 175 94.772441 173.53168 93.431641 169.83008 L 83.232422 136.25977 L 53.574219 127.00391 C 47.168319 125.04251 47.121619 120.63931 55.011719 117.47461 L 170.60156 72.904297 C 171.59143 72.454897 172.57458 72.217639 173.50586 72.183594 z "
     id="circle14" />
</svg>
